<svg width="59" height="53" viewBox="0 0 59 53" fill="none" xmlns="http://www.w3.org/2000/svg">
<g clip-path="url(#clip0_1077_50)">
<path d="M58.9359 6.59826C58.9359 6.59826 57.2143 8.20084 55.0428 9.81891C52.9044 11.4128 50.3307 13.0221 48.5323 13.1325C44.9093 13.3541 39.5549 10.3144 39.5549 10.3144C39.5549 10.3144 38.8855 8.50665 37.6244 7.64245C37.4534 7.52439 37.2707 7.42471 37.0784 7.34923C37.0784 7.34923 34.9963 7.71794 32.6266 10.2273L32.3652 10.3038V10.1325L32.6266 10.0192C32.6266 10.0192 34.7757 7.20697 37.194 6.79858C37.194 6.79858 40.7567 1.32599 45.8944 1.56211C49.0472 1.69082 52.3068 4.61632 54.3151 5.62664C56.3233 6.63697 58.9359 6.59826 58.9359 6.59826Z" fill="#71A33B"/>
<path d="M55.1201 9.8122C52.9685 11.4092 50.379 13.0218 48.5696 13.1324C44.9243 13.3544 39.5371 10.3087 39.5371 10.3087C39.5371 10.3087 38.8636 8.49732 37.5947 7.6314L37.6348 6.96427C37.6426 6.83433 37.7756 6.75094 37.8987 6.79651C43.9028 9.06361 55.1201 9.8122 55.1201 9.8122Z" fill="url(#paint0_linear_1077_50)"/>
<path d="M38.6037 51.5894C38.6037 51.5894 51.7765 46.6344 54.1456 31.9417C56.5148 17.249 47.8191 12.5964 47.8191 12.5964C47.8191 12.5964 44.2663 9.70082 36.8995 10.3494C31.9379 10.609 29.9879 9.76597 27.2151 7.75618C24.4423 5.74639 19.6757 3.65104 13.9127 5.55193C8.14969 7.45282 -0.326653 12.1238 0.00971036 27.6781C0.327549 42.3708 12.0379 50.2904 14.6381 50.6676C16.8376 50.9875 18.5487 50.4518 19.0908 50.2135C19.6328 49.9753 22.6221 49.4357 24.0309 50.5373C25.4397 51.639 31.4699 54.8223 38.6047 51.5884L38.6037 51.5894Z" fill="url(#paint1_radial_1077_50)"/>
<path d="M31.3868 13.144C31.3868 13.144 30.8939 7.50831 36.5663 0.0553778C36.6111 -0.00399645 36.6949 -0.0176233 36.7572 0.0242307L38.6636 1.31294C38.7484 1.37037 38.7455 1.49691 38.6568 1.54849C37.8006 2.04782 34.3404 4.51818 31.3878 13.144H31.3868Z" fill="#71A33B"/>
<path d="M47.8098 12.6498C47.8098 12.6498 45.0986 10.4475 39.5043 10.3174C44.794 14.3908 48.2003 20.7674 48.2003 27.9354C48.2003 40.2343 38.1756 50.2037 25.8107 50.2037C24.725 50.2037 23.6579 50.125 22.6133 49.9764C23.1327 50.0745 23.6159 50.2493 23.9879 50.5406C25.3977 51.6408 31.4371 54.8199 38.5817 51.5903C38.5817 51.5903 51.7726 46.642 54.145 31.969C56.5174 17.2961 47.8098 12.6498 47.8098 12.6498Z" fill="url(#paint2_linear_1077_50)"/>
</g>
<defs>
<linearGradient id="paint0_linear_1077_50" x1="46.2225" y1="9.083" x2="45.4958" y2="12.4415" gradientUnits="userSpaceOnUse">
<stop stop-color="#689933"/>
<stop offset="1" stop-color="#3B670A"/>
</linearGradient>
<radialGradient id="paint1_radial_1077_50" cx="0" cy="0" r="1" gradientUnits="userSpaceOnUse" gradientTransform="translate(17.2427 19.9988) rotate(73.0871) scale(34.4932 39.0451)">
<stop stop-color="#FFEDCB"/>
<stop offset="0.535803" stop-color="#E61F27"/>
<stop offset="1" stop-color="#E41018"/>
</radialGradient>
<linearGradient id="paint2_linear_1077_50" x1="44.6592" y1="12.8945" x2="36.309" y2="50.7792" gradientUnits="userSpaceOnUse">
<stop stop-color="#DB0E15"/>
<stop offset="0.49" stop-color="#B5080B"/>
<stop offset="1" stop-color="#DB0E15"/>
</linearGradient>
<clipPath id="clip0_1077_50">
<rect width="58.94" height="53" fill="white"/>
</clipPath>
</defs>
</svg>
