<svg width="79" height="35" viewBox="0 0 79 35" fill="none" xmlns="http://www.w3.org/2000/svg">
<path d="M74.5078 33.7052L55.011 34.9867C52.7397 35.136 50.8252 33.4135 50.7345 31.1392C50.6447 28.8638 52.4121 26.8993 54.6834 26.75L60.6093 26.3605C40.8644 6.71045 14.6016 8.85394 1.34226 23.3426C0.863325 23.8668 0.0444582 23.3241 0.320631 22.6947C8.98222 3.02396 35.2159 -7.86759 62.0556 10.0428C64.631 11.8041 67.1662 13.6631 69.6617 15.6031L69.4515 10.3334C69.3608 8.05905 71.1291 6.09349 73.3995 5.94525C75.6707 5.79596 77.5862 7.51742 77.676 9.79281L78.4548 29.3162C78.5465 31.5914 76.7791 33.556 74.5078 33.7052Z" fill="#D12A32"/>
</svg>
