<svg width="320" height="231" viewBox="0 0 320 231" fill="none" xmlns="http://www.w3.org/2000/svg">
<path d="M48.784 113.437L60.504 99.5134C61.8693 97.8914 61.6332 95.5043 59.9766 94.1812C58.3187 92.8583 55.8693 93.1006 54.5039 94.7225L50.9417 98.9544C47.0916 73.2949 63.1919 54.7701 81.3808 52.8152C82.0384 52.7451 82.083 51.8311 81.4583 51.6911C61.9179 47.3363 39.2692 61.0121 37.8989 91.0355C37.7995 93.94 37.7955 96.8683 37.8742 99.8113L34.0359 96.7458C32.3793 95.4227 29.9285 95.6651 28.5645 97.2869C27.1992 98.9089 27.434 101.296 29.0919 102.619L43.3125 113.977C44.9692 115.301 47.4187 115.059 48.784 113.437Z" fill="#FFC400"/>
<path d="M271.216 113.437L259.496 99.5134C258.131 97.8914 258.367 95.5043 260.023 94.1812C261.681 92.8583 264.131 93.1006 265.496 94.7225L269.058 98.9544C272.908 73.2949 256.808 54.7701 238.619 52.8152C237.962 52.7451 237.917 51.8311 238.542 51.6911C258.082 47.3363 280.731 61.0121 282.101 91.0355C282.201 93.94 282.205 96.8683 282.126 99.8113L285.964 96.7458C287.621 95.4227 290.071 95.6651 291.435 97.2869C292.801 98.9089 292.566 101.296 290.908 102.619L276.687 113.977C275.031 115.301 272.581 115.059 271.216 113.437Z" fill="#D12A32"/>
</svg>
