<svg width="320" height="249" viewBox="0 0 320 249" fill="none" xmlns="http://www.w3.org/2000/svg">
<path d="M48.784 138.437L60.504 124.513C61.8693 122.891 61.6332 120.504 59.9766 119.181C58.3187 117.858 55.8693 118.101 54.5039 119.723L50.9417 123.954C47.0916 98.2949 63.1919 79.7701 81.3808 77.8152C82.0384 77.7451 82.083 76.8311 81.4583 76.6911C61.9179 72.3363 39.2692 86.0121 37.8989 116.036C37.7995 118.94 37.7955 121.868 37.8742 124.811L34.0359 121.746C32.3793 120.423 29.9285 120.665 28.5645 122.287C27.1992 123.909 27.434 126.296 29.0919 127.619L43.3125 138.977C44.9692 140.301 47.4187 140.059 48.784 138.437Z" fill="#FFC400"/>
<path d="M271.216 138.437L259.496 124.513C258.131 122.891 258.367 120.504 260.023 119.181C261.681 117.858 264.131 118.101 265.496 119.723L269.058 123.954C272.908 98.2949 256.808 79.7701 238.619 77.8152C237.962 77.7451 237.917 76.8311 238.542 76.6911C258.082 72.3363 280.731 86.0121 282.101 116.036C282.201 118.94 282.205 121.868 282.126 124.811L285.964 121.746C287.621 120.423 290.071 120.665 291.435 122.287C292.801 123.909 292.566 126.296 290.908 127.619L276.687 138.977C275.031 140.301 272.581 140.059 271.216 138.437Z" fill="#D12A32"/>
</svg>
