<svg width="79" height="35" viewBox="0 0 79 35" fill="none" xmlns="http://www.w3.org/2000/svg">
<path d="M4.26999 1.75741L23.7668 0.475909C26.0381 0.326623 27.9526 2.04912 28.0434 4.32346C28.1331 6.59885 26.3657 8.56336 24.0944 8.71264L18.1685 9.10214C37.9134 28.7522 64.1762 26.6087 77.4356 12.12C77.9145 11.5958 78.7334 12.1385 78.4572 12.7679C69.7956 32.4387 43.562 43.3302 16.7222 25.4199C14.1469 23.6585 11.6116 21.7996 9.11613 19.8596L9.32635 25.1293C9.41708 27.4036 7.64869 29.3692 5.37837 29.5174C3.10712 29.6667 1.19164 27.9452 1.10185 25.6698L0.323027 6.14646C0.231285 3.87121 1.99874 1.90669 4.26999 1.75741Z" fill="#FFC400"/>
</svg>
