<svg width="320" height="127" viewBox="0 0 320 127" fill="none" xmlns="http://www.w3.org/2000/svg">
<path d="M48.4705 93.4367L60.1905 79.5134C61.5558 77.8914 61.3197 75.5043 59.6631 74.1812C58.0052 72.8583 55.5558 73.1006 54.1905 74.7225L50.6283 78.9544C46.7782 53.2949 62.8785 34.7701 81.0673 32.8152C81.7249 32.7451 81.7695 31.8311 81.1449 31.6911C61.6045 27.3363 38.9557 41.0121 37.5854 71.0355C37.486 73.94 37.482 76.8683 37.5608 79.8113L33.7224 76.7458C32.0658 75.4227 29.6151 75.6651 28.2511 77.2869C26.8858 78.9089 27.1206 81.2962 28.7785 82.6191L42.999 93.9766C44.6558 95.3009 47.1052 95.0586 48.4705 93.4367Z" fill="#FFC400"/>
<path d="M270.903 93.4367L259.183 79.5134C257.817 77.8914 258.053 75.5043 259.71 74.1812C261.368 72.8583 263.817 73.1006 265.183 74.7225L268.745 78.9544C272.595 53.2949 256.495 34.7701 238.306 32.8152C237.648 32.7451 237.604 31.8311 238.228 31.6911C257.769 27.3363 280.417 41.0121 281.788 71.0355C281.887 73.94 281.891 76.8683 281.812 79.8113L285.651 76.7458C287.307 75.4227 289.758 75.6651 291.122 77.2869C292.487 78.9089 292.252 81.2962 290.595 82.6191L276.374 93.9766C274.717 95.3009 272.268 95.0586 270.903 93.4367Z" fill="#D12A32"/>
</svg>
