<svg width="264" height="116" viewBox="0 0 264 116" fill="none" xmlns="http://www.w3.org/2000/svg">
<path d="M120.975 21.7247C120.975 23.1816 122.126 24.3333 123.593 24.3333C125.06 24.3333 126.202 23.1816 126.202 21.7247V14.8634L133.87 4.50752C134.215 4.03501 134.549 3.39516 134.549 2.6667C134.549 1.23933 133.595 0.126953 132 0.126953C130.917 0.126953 130.129 0.737282 129.49 1.6823L123.623 10.0694L117.844 1.75121C117.194 0.796346 116.456 0.156484 115.265 0.156484C113.808 0.156484 112.656 1.2787 112.656 2.6667C112.656 3.41485 112.922 4.03501 113.306 4.53705L120.975 14.9618V21.7247ZM85.2803 21.7936C85.2803 23.2209 86.4025 24.3333 87.8299 24.3333C89.2572 24.3333 90.409 23.2209 90.409 21.7936V9.97094L94.9274 16.9306C95.4786 17.7477 96.148 18.2596 97.1029 18.2596C98.0578 18.2596 98.7272 17.7477 99.2784 16.9306L103.866 9.86265V21.7247C103.866 23.152 105.017 24.3333 106.445 24.3333C107.872 24.3333 109.063 23.1816 109.063 21.7247V2.83405C109.063 1.3673 107.912 0.215545 106.445 0.215545H105.864C104.811 0.215545 104.063 0.658523 103.521 1.54448L97.1718 11.861L90.8618 1.58386C90.3893 0.79634 89.6018 0.215545 88.4796 0.215545H87.8988C86.432 0.215545 85.2803 1.3673 85.2803 2.83405V21.7837V21.7936Z" fill="white"/>
<path d="M205.091 53.058C210.21 53.058 213.813 50.41 213.813 45.6947V45.6258C213.813 41.4815 211.096 39.7489 206.273 38.4889C202.158 37.4257 201.154 36.9335 201.154 35.3585V35.2896C201.154 34.1378 202.207 33.2224 204.206 33.2224C205.83 33.2224 207.474 33.8032 209.206 34.8171C209.61 35.0533 210.013 35.1911 210.525 35.1911C211.884 35.1911 212.967 34.128 212.967 32.7794C212.967 31.7556 212.386 31.0468 211.815 30.7121C209.679 29.3537 207.169 28.6055 204.274 28.6055C199.421 28.6055 195.956 31.4603 195.956 35.7818V35.8507C195.956 40.566 199.047 41.8949 203.831 43.1156C207.808 44.1295 208.625 44.8087 208.625 46.1377V46.2066C208.625 47.5946 207.336 48.4412 205.19 48.4412C202.877 48.4412 200.918 47.6339 199.116 46.305C198.781 46.0786 198.299 45.8325 197.62 45.8325C196.261 45.8325 195.179 46.8858 195.179 48.2344C195.179 49.0515 195.582 49.7996 196.163 50.2032C198.811 52.1031 201.971 53.0481 205.101 53.0481M176.505 52.7134H189.843C191.133 52.7134 192.196 51.6897 192.196 50.4001C192.196 49.1105 191.133 48.0572 189.843 48.0572H179.084V43.0565H188.15C189.44 43.0565 190.493 42.0327 190.493 40.7432C190.493 39.4536 189.44 38.4003 188.15 38.4003H179.084V33.5767H189.686C190.975 33.5767 192.029 32.553 192.029 31.2634C192.029 29.9738 190.975 28.9205 189.686 28.9205H176.505C175.038 28.9205 173.886 30.0624 173.886 31.5292V50.0654C173.886 51.5322 175.038 52.6839 176.505 52.6839V52.7134ZM162.723 50.3115C162.723 51.7684 163.875 52.9202 165.341 52.9202C166.808 52.9202 167.95 51.7684 167.95 50.3115V31.3618C167.95 29.8951 166.798 28.7433 165.341 28.7433C163.885 28.7433 162.723 29.8951 162.723 31.3618V50.3115ZM133.004 50.3804C133.004 51.8078 134.126 52.9202 135.554 52.9202C136.981 52.9202 138.133 51.8078 138.133 50.3804V38.5578L142.651 45.5175C143.202 46.3345 143.872 46.8464 144.827 46.8464C145.781 46.8464 146.451 46.3345 147.002 45.5175L151.589 38.4495V50.3115C151.589 51.7389 152.741 52.9202 154.169 52.9202C155.596 52.9202 156.787 51.7684 156.787 50.3115V31.4209C156.787 29.9542 155.635 28.8024 154.169 28.8024H153.588C152.534 28.8024 151.786 29.2454 151.245 30.1313L144.896 40.4478L138.586 30.1707C138.113 29.3832 137.325 28.8024 136.203 28.8024H135.622C134.156 28.8024 133.004 29.9542 133.004 31.4209V50.3706V50.3804ZM103.531 50.3804C103.531 51.8078 104.653 52.9202 106.081 52.9202C107.508 52.9202 108.66 51.8078 108.66 50.3804V38.5578L113.178 45.5175C113.729 46.3345 114.399 46.8464 115.354 46.8464C116.309 46.8464 116.978 46.3345 117.529 45.5175L122.117 38.4495V50.3115C122.117 51.7389 123.268 52.9202 124.696 52.9202C126.123 52.9202 127.314 51.7684 127.314 50.3115V31.4209C127.314 29.9542 126.162 28.8024 124.696 28.8024H124.115C123.062 28.8024 122.313 29.2454 121.772 30.1313L115.423 40.4478L109.113 30.1707C108.64 29.3832 107.853 28.8024 106.73 28.8024H106.15C104.683 28.8024 103.531 29.9542 103.531 31.4209V50.3706V50.3804ZM87.7709 53.0974C94.1596 53.0974 98.1956 49.5634 98.1956 42.3674V31.3618C98.1956 29.8951 97.0537 28.7433 95.587 28.7433C94.1202 28.7433 92.9685 29.8951 92.9685 31.3618V42.5643C92.9685 46.3345 91.0292 48.2738 87.8496 48.2738C84.67 48.2738 82.7209 46.2755 82.7209 42.3969V31.352C82.7209 29.8852 81.5691 28.7335 80.1024 28.7335C78.6356 28.7335 77.4937 29.8852 77.4937 31.352V42.5249C77.4937 49.5142 81.392 53.0875 87.7709 53.0875V53.0974ZM62.6785 53.1269C66.2519 53.1269 69.0574 51.9456 71.0065 50.7446C72.2567 50.0064 72.8375 48.9432 72.8375 47.4272V41.6488C72.8375 40.1821 71.6858 39.0303 70.219 39.0303H64.2437C62.9935 39.0303 61.9698 40.0541 61.9698 41.3141C61.9698 42.5741 62.9935 43.5487 64.2437 43.5487H67.7777V46.9449C66.4586 47.8997 64.7556 48.3723 62.8557 48.3723C58.6425 48.3723 55.6598 45.1828 55.6598 40.8318V40.7628C55.6598 36.717 58.6819 33.3602 62.4817 33.3602C64.7261 33.3602 66.2519 33.9803 67.6793 34.9844C68.0534 35.2601 68.5259 35.5357 69.274 35.5357C70.7014 35.5357 71.8531 34.3839 71.8531 32.9566C71.8531 31.9328 71.2723 31.224 70.7605 30.85C68.6243 29.3537 66.2421 28.5366 62.649 28.5366C55.4531 28.5366 50.1865 34.0689 50.1865 40.8318V40.9007C50.1865 47.9391 55.2759 53.1269 62.6785 53.1269Z" fill="white"/>
<path d="M6.55775 89.175C5.75775 89.175 5.01642 89.031 4.33375 88.743C3.65108 88.455 3.05375 88.055 2.54175 87.543C2.02975 87.0203 1.62975 86.4176 1.34175 85.735C1.06442 85.0523 0.92575 84.3163 0.92575 83.527C0.92575 82.7376 1.06975 82.0016 1.35775 81.319C1.64575 80.6363 2.04575 80.039 2.55775 79.527C3.06975 79.0043 3.66708 78.599 4.34975 78.311C5.04308 78.023 5.78975 77.879 6.58975 77.879C7.38975 77.879 8.13108 78.023 8.81375 78.311C9.50708 78.5883 10.1044 78.983 10.6058 79.495C11.1178 80.007 11.5124 80.6043 11.7898 81.287C12.0778 81.959 12.2218 82.695 12.2218 83.495C12.2218 84.295 12.0778 85.0416 11.7898 85.735C11.5018 86.4176 11.0964 87.0203 10.5738 87.543C10.0618 88.055 9.46442 88.455 8.78175 88.743C8.09908 89.031 7.35775 89.175 6.55775 89.175ZM6.54175 88.583C7.26708 88.583 7.93375 88.455 8.54175 88.199C9.14975 87.9323 9.68308 87.5696 10.1418 87.111C10.6111 86.6523 10.9738 86.1136 11.2298 85.495C11.4858 84.8656 11.6138 84.199 11.6138 83.495C11.6138 82.7803 11.4858 82.119 11.2298 81.511C10.9844 80.903 10.6324 80.3696 10.1738 79.911C9.72575 79.4523 9.19242 79.1003 8.57375 78.855C7.96575 78.599 7.30442 78.471 6.58975 78.471C5.86442 78.471 5.19242 78.599 4.57375 78.855C3.95508 79.111 3.41642 79.4736 2.95775 79.943C2.50975 80.4016 2.15775 80.935 1.90175 81.543C1.64575 82.151 1.51775 82.8123 1.51775 83.527C1.51775 84.231 1.64575 84.8923 1.90175 85.511C2.15775 86.119 2.50975 86.6576 2.95775 87.127C3.41642 87.5856 3.94975 87.943 4.55775 88.199C5.17642 88.455 5.83775 88.583 6.54175 88.583ZM6.70175 86.855C6.06175 86.855 5.49108 86.7163 4.98975 86.439C4.48842 86.151 4.09375 85.7563 3.80575 85.255C3.51775 84.7536 3.37375 84.1776 3.37375 83.527C3.37375 82.8763 3.51775 82.3003 3.80575 81.799C4.09375 81.2976 4.48842 80.9083 4.98975 80.631C5.49108 80.343 6.06175 80.199 6.70175 80.199C7.24575 80.199 7.73642 80.311 8.17375 80.535C8.62175 80.7483 8.97908 81.047 9.24575 81.431L8.55775 81.943C8.33375 81.6336 8.06175 81.4043 7.74175 81.255C7.42175 81.1056 7.06975 81.031 6.68575 81.031C6.22708 81.031 5.81642 81.1376 5.45375 81.351C5.10175 81.5536 4.81908 81.8416 4.60575 82.215C4.39242 82.5883 4.28575 83.0256 4.28575 83.527C4.28575 84.0283 4.39242 84.4656 4.60575 84.839C4.81908 85.2123 5.10175 85.5056 5.45375 85.719C5.81642 85.9216 6.22708 86.023 6.68575 86.023C7.06975 86.023 7.42175 85.9483 7.74175 85.799C8.06175 85.6496 8.33375 85.4203 8.55775 85.111L9.24575 85.607C8.97908 86.0016 8.62175 86.311 8.17375 86.535C7.73642 86.7483 7.24575 86.855 6.70175 86.855ZM17.8428 89.127V88.311L22.4988 83.751C22.9254 83.335 23.2454 82.9723 23.4588 82.663C23.6721 82.343 23.8161 82.0443 23.8908 81.767C23.9654 81.4896 24.0028 81.2283 24.0028 80.983C24.0028 80.3323 23.7788 79.8203 23.3308 79.447C22.8934 79.0736 22.2428 78.887 21.3788 78.887C20.7174 78.887 20.1308 78.9883 19.6188 79.191C19.1174 79.3936 18.6854 79.7083 18.3228 80.135L17.5068 79.431C17.9441 78.919 18.5041 78.5243 19.1868 78.247C19.8694 77.9696 20.6321 77.831 21.4748 77.831C22.2321 77.831 22.8881 77.9536 23.4428 78.199C23.9974 78.4336 24.4241 78.7803 24.7228 79.239C25.0321 79.6976 25.1868 80.2363 25.1868 80.855C25.1868 81.2176 25.1334 81.575 25.0268 81.927C24.9308 82.279 24.7494 82.6523 24.4828 83.047C24.2268 83.431 23.8481 83.8683 23.3468 84.359L19.0748 88.551L18.7548 88.103H25.6988V89.127H17.8428ZM31.5773 89.223C30.7133 89.223 29.9453 88.999 29.2733 88.551C28.6013 88.0923 28.0733 87.4416 27.6893 86.599C27.3053 85.7456 27.1133 84.7216 27.1133 83.527C27.1133 82.3323 27.3053 81.3136 27.6893 80.471C28.0733 79.6176 28.6013 78.967 29.2733 78.519C29.9453 78.0603 30.7133 77.831 31.5773 77.831C32.4413 77.831 33.2093 78.0603 33.8813 78.519C34.5533 78.967 35.0813 79.6176 35.4653 80.471C35.8599 81.3136 36.0573 82.3323 36.0573 83.527C36.0573 84.7216 35.8599 85.7456 35.4653 86.599C35.0813 87.4416 34.5533 88.0923 33.8813 88.551C33.2093 88.999 32.4413 89.223 31.5773 89.223ZM31.5773 88.167C32.2386 88.167 32.8146 87.991 33.3053 87.639C33.7959 87.2763 34.1799 86.7536 34.4573 86.071C34.7346 85.3776 34.8733 84.5296 34.8733 83.527C34.8733 82.5243 34.7346 81.6816 34.4573 80.999C34.1799 80.3056 33.7959 79.783 33.3053 79.431C32.8146 79.0683 32.2386 78.887 31.5773 78.887C30.9373 78.887 30.3666 79.0683 29.8653 79.431C29.3639 79.783 28.9746 80.3056 28.6973 80.999C28.4199 81.6816 28.2812 82.5243 28.2812 83.527C28.2812 84.5296 28.4199 85.3776 28.6973 86.071C28.9746 86.7536 29.3639 87.2763 29.8653 87.639C30.3666 87.991 30.9373 88.167 31.5773 88.167ZM37.499 89.127V88.311L42.155 83.751C42.5817 83.335 42.9017 82.9723 43.115 82.663C43.3283 82.343 43.4723 82.0443 43.547 81.767C43.6217 81.4896 43.659 81.2283 43.659 80.983C43.659 80.3323 43.435 79.8203 42.987 79.447C42.5497 79.0736 41.899 78.887 41.035 78.887C40.3737 78.887 39.787 78.9883 39.275 79.191C38.7737 79.3936 38.3417 79.7083 37.979 80.135L37.163 79.431C37.6003 78.919 38.1603 78.5243 38.843 78.247C39.5257 77.9696 40.2883 77.831 41.131 77.831C41.8883 77.831 42.5443 77.9536 43.099 78.199C43.6537 78.4336 44.0803 78.7803 44.379 79.239C44.6883 79.6976 44.843 80.2363 44.843 80.855C44.843 81.2176 44.7897 81.575 44.683 81.927C44.587 82.279 44.4057 82.6523 44.139 83.047C43.883 83.431 43.5043 83.8683 43.003 84.359L38.731 88.551L38.411 88.103H45.355V89.127H37.499ZM46.5928 89.127V88.311L51.2488 83.751C51.6754 83.335 51.9954 82.9723 52.2088 82.663C52.4221 82.343 52.5661 82.0443 52.6408 81.767C52.7154 81.4896 52.7528 81.2283 52.7528 80.983C52.7528 80.3323 52.5288 79.8203 52.0808 79.447C51.6434 79.0736 50.9928 78.887 50.1288 78.887C49.4674 78.887 48.8808 78.9883 48.3688 79.191C47.8674 79.3936 47.4354 79.7083 47.0728 80.135L46.2568 79.431C46.6941 78.919 47.2541 78.5243 47.9368 78.247C48.6194 77.9696 49.3821 77.831 50.2248 77.831C50.9821 77.831 51.6381 77.9536 52.1928 78.199C52.7474 78.4336 53.1741 78.7803 53.4728 79.239C53.7821 79.6976 53.9368 80.2363 53.9368 80.855C53.9368 81.2176 53.8834 81.575 53.7768 81.927C53.6808 82.279 53.4994 82.6523 53.2328 83.047C52.9768 83.431 52.5981 83.8683 52.0968 84.359L47.8248 88.551L47.5048 88.103H54.4488V89.127H46.5928ZM61.074 89.127V77.927H62.258V89.127H61.074ZM68.9901 89.223C68.1581 89.223 67.3581 89.0896 66.5901 88.823C65.8328 88.5456 65.2461 88.1936 64.8301 87.767L65.2941 86.855C65.6888 87.239 66.2168 87.5643 66.8781 87.831C67.5501 88.087 68.2541 88.215 68.9901 88.215C69.6941 88.215 70.2648 88.1296 70.7021 87.959C71.1501 87.7776 71.4755 87.5376 71.6781 87.239C71.8915 86.9403 71.9981 86.6096 71.9981 86.247C71.9981 85.8096 71.8701 85.4576 71.6141 85.191C71.3688 84.9243 71.0435 84.7163 70.6381 84.567C70.2328 84.407 69.7848 84.2683 69.2941 84.151C68.8035 84.0336 68.3128 83.911 67.8221 83.783C67.3315 83.6443 66.8781 83.463 66.4621 83.239C66.0568 83.015 65.7261 82.7216 65.4701 82.359C65.2248 81.9856 65.1021 81.5003 65.1021 80.903C65.1021 80.3483 65.2461 79.8416 65.5341 79.383C65.8328 78.9136 66.2861 78.5403 66.8941 78.263C67.5021 77.975 68.2808 77.831 69.2301 77.831C69.8595 77.831 70.4835 77.9216 71.1021 78.103C71.7208 78.2736 72.2541 78.5136 72.7021 78.823L72.3021 79.767C71.8221 79.447 71.3101 79.2123 70.7661 79.063C70.2328 78.9136 69.7155 78.839 69.2141 78.839C68.5421 78.839 67.9875 78.9296 67.5501 79.111C67.1128 79.2923 66.7875 79.5376 66.5741 79.847C66.3715 80.1456 66.2701 80.487 66.2701 80.871C66.2701 81.3083 66.3928 81.6603 66.6381 81.927C66.8941 82.1936 67.2248 82.4016 67.6301 82.551C68.0461 82.7003 68.4995 82.8336 68.9901 82.951C69.4808 83.0683 69.9661 83.1963 70.4461 83.335C70.9368 83.4736 71.3848 83.655 71.7901 83.879C72.2061 84.0923 72.5368 84.3803 72.7821 84.743C73.0381 85.1056 73.1661 85.5803 73.1661 86.167C73.1661 86.711 73.0168 87.2176 72.7181 87.687C72.4195 88.1456 71.9608 88.519 71.3421 88.807C70.7341 89.0843 69.9501 89.223 68.9901 89.223ZM79.9334 89.127V77.927H84.4934C85.688 77.927 86.7334 78.167 87.6294 78.647C88.536 79.1163 89.24 79.7723 89.7414 80.615C90.2427 81.4576 90.4934 82.4283 90.4934 83.527C90.4934 84.6256 90.2427 85.5963 89.7414 86.439C89.24 87.2816 88.536 87.943 87.6294 88.423C86.7334 88.8923 85.688 89.127 84.4934 89.127H79.9334ZM81.1174 88.103H84.4294C85.4214 88.103 86.28 87.911 87.0054 87.527C87.7414 87.1323 88.312 86.5936 88.7174 85.911C89.1227 85.2176 89.3254 84.423 89.3254 83.527C89.3254 82.6203 89.1227 81.8256 88.7174 81.143C88.312 80.4603 87.7414 79.927 87.0054 79.543C86.28 79.1483 85.4214 78.951 84.4294 78.951H81.1174V88.103ZM93.1521 89.127V77.927H94.3361V89.127H93.1521ZM101.068 89.223C100.236 89.223 99.4363 89.0896 98.6683 88.823C97.9109 88.5456 97.3243 88.1936 96.9083 87.767L97.3723 86.855C97.7669 87.239 98.2949 87.5643 98.9563 87.831C99.6283 88.087 100.332 88.215 101.068 88.215C101.772 88.215 102.343 88.1296 102.78 87.959C103.228 87.7776 103.554 87.5376 103.756 87.239C103.97 86.9403 104.076 86.6096 104.076 86.247C104.076 85.8096 103.948 85.4576 103.692 85.191C103.447 84.9243 103.122 84.7163 102.716 84.567C102.311 84.407 101.863 84.2683 101.372 84.151C100.882 84.0336 100.391 83.911 99.9003 83.783C99.4096 83.6443 98.9563 83.463 98.5403 83.239C98.1349 83.015 97.8043 82.7216 97.5483 82.359C97.3029 81.9856 97.1803 81.5003 97.1803 80.903C97.1803 80.3483 97.3243 79.8416 97.6123 79.383C97.9109 78.9136 98.3643 78.5403 98.9723 78.263C99.5803 77.975 100.359 77.831 101.308 77.831C101.938 77.831 102.562 77.9216 103.18 78.103C103.799 78.2736 104.332 78.5136 104.78 78.823L104.38 79.767C103.9 79.447 103.388 79.2123 102.844 79.063C102.311 78.9136 101.794 78.839 101.292 78.839C100.62 78.839 100.066 78.9296 99.6283 79.111C99.1909 79.2923 98.8656 79.5376 98.6523 79.847C98.4496 80.1456 98.3483 80.487 98.3483 80.871C98.3483 81.3083 98.4709 81.6603 98.7163 81.927C98.9723 82.1936 99.3029 82.4016 99.7083 82.551C100.124 82.7003 100.578 82.8336 101.068 82.951C101.559 83.0683 102.044 83.1963 102.524 83.335C103.015 83.4736 103.463 83.655 103.868 83.879C104.284 84.0923 104.615 84.3803 104.86 84.743C105.116 85.1056 105.244 85.5803 105.244 86.167C105.244 86.711 105.095 87.2176 104.796 87.687C104.498 88.1456 104.039 88.519 103.42 88.807C102.812 89.0843 102.028 89.223 101.068 89.223ZM109.844 89.127V78.951H105.908V77.927H114.964V78.951H111.028V89.127H109.844ZM116.855 89.127V77.927H121.047C121.997 77.927 122.813 78.0816 123.495 78.391C124.178 78.6896 124.701 79.127 125.063 79.703C125.437 80.2683 125.623 80.9563 125.623 81.767C125.623 82.5563 125.437 83.239 125.063 83.815C124.701 84.3803 124.178 84.8176 123.495 85.127C122.813 85.4256 121.997 85.575 121.047 85.575H117.511L118.039 85.031V89.127H116.855ZM124.503 89.127L121.623 85.063H122.903L125.799 89.127H124.503ZM118.039 85.127L117.511 84.567H121.015C122.135 84.567 122.983 84.3216 123.559 83.831C124.146 83.3403 124.439 82.6523 124.439 81.767C124.439 80.871 124.146 80.1776 123.559 79.687C122.983 79.1963 122.135 78.951 121.015 78.951H117.511L118.039 78.391V85.127ZM128.418 89.127V77.927H129.602V89.127H128.418ZM133.246 89.127V77.927H138.078C139.326 77.927 140.291 78.1776 140.974 78.679C141.667 79.1803 142.014 79.8896 142.014 80.807C142.014 81.415 141.87 81.927 141.582 82.343C141.305 82.759 140.921 83.0736 140.43 83.287C139.95 83.5003 139.422 83.607 138.846 83.607L139.118 83.223C139.833 83.223 140.446 83.335 140.958 83.559C141.481 83.7723 141.886 84.0976 142.174 84.535C142.462 84.9616 142.606 85.495 142.606 86.135C142.606 87.0843 142.254 87.8203 141.55 88.343C140.857 88.8656 139.806 89.127 138.398 89.127H133.246ZM134.43 88.151H138.382C139.363 88.151 140.115 87.9856 140.638 87.655C141.161 87.3136 141.422 86.775 141.422 86.039C141.422 85.3136 141.161 84.7856 140.638 84.455C140.115 84.1136 139.363 83.943 138.382 83.943H134.302V82.967H137.998C138.894 82.967 139.587 82.7963 140.078 82.455C140.579 82.1136 140.83 81.607 140.83 80.935C140.83 80.2523 140.579 79.7456 140.078 79.415C139.587 79.0736 138.894 78.903 137.998 78.903H134.43V88.151ZM149.82 89.223C148.391 89.223 147.266 88.8123 146.444 87.991C145.623 87.1696 145.212 85.9536 145.212 84.343V77.927H146.396V84.295C146.396 85.6176 146.695 86.5936 147.292 87.223C147.89 87.8523 148.732 88.167 149.82 88.167C150.919 88.167 151.767 87.8523 152.364 87.223C152.962 86.5936 153.26 85.6176 153.26 84.295V77.927H154.412V84.343C154.412 85.9536 154.002 87.1696 153.18 87.991C152.37 88.8123 151.25 89.223 149.82 89.223ZM159.938 89.127V78.951H156.002V77.927H165.058V78.951H161.122V89.127H159.938ZM166.949 89.127V77.927H168.133V89.127H166.949ZM176.673 89.223C175.83 89.223 175.046 89.0843 174.321 88.807C173.606 88.519 172.982 88.119 172.449 87.607C171.926 87.0843 171.516 86.4816 171.217 85.799C170.929 85.1056 170.785 84.3483 170.785 83.527C170.785 82.7056 170.929 81.9536 171.217 81.271C171.516 80.5776 171.926 79.975 172.449 79.463C172.982 78.9403 173.606 78.5403 174.321 78.263C175.036 77.975 175.82 77.831 176.673 77.831C177.516 77.831 178.294 77.975 179.009 78.263C179.724 78.5403 180.342 78.935 180.865 79.447C181.398 79.959 181.809 80.5616 182.097 81.255C182.396 81.9483 182.545 82.7056 182.545 83.527C182.545 84.3483 182.396 85.1056 182.097 85.799C181.809 86.4923 181.398 87.095 180.865 87.607C180.342 88.119 179.724 88.519 179.009 88.807C178.294 89.0843 177.516 89.223 176.673 89.223ZM176.673 88.167C177.345 88.167 177.964 88.055 178.529 87.831C179.105 87.5963 179.601 87.271 180.017 86.855C180.444 86.4283 180.774 85.9376 181.009 85.383C181.244 84.8176 181.361 84.199 181.361 83.527C181.361 82.855 181.244 82.2416 181.009 81.687C180.774 81.1216 180.444 80.631 180.017 80.215C179.601 79.7883 179.105 79.463 178.529 79.239C177.964 79.0043 177.345 78.887 176.673 78.887C176.001 78.887 175.377 79.0043 174.801 79.239C174.225 79.463 173.724 79.7883 173.297 80.215C172.881 80.631 172.55 81.1216 172.305 81.687C172.07 82.2416 171.953 82.855 171.953 83.527C171.953 84.1883 172.07 84.8016 172.305 85.367C172.55 85.9323 172.881 86.4283 173.297 86.855C173.724 87.271 174.225 87.5963 174.801 87.831C175.377 88.055 176.001 88.167 176.673 88.167ZM185.199 89.127V77.927H186.175L193.903 87.655H193.391V77.927H194.559V89.127H193.583L185.871 79.399H186.383V89.127H185.199ZM202.402 89.127V77.927H203.586V88.103H209.858V89.127H202.402ZM212.953 89.127V78.951H209.017V77.927H218.073V78.951H214.137V89.127H212.953ZM219.965 89.127V77.927H224.525C225.719 77.927 226.765 78.167 227.661 78.647C228.567 79.1163 229.271 79.7723 229.773 80.615C230.274 81.4576 230.525 82.4283 230.525 83.527C230.525 84.6256 230.274 85.5963 229.773 86.439C229.271 87.2816 228.567 87.943 227.661 88.423C226.765 88.8923 225.719 89.127 224.525 89.127H219.965ZM221.149 88.103H224.461C225.453 88.103 226.311 87.911 227.037 87.527C227.773 87.1323 228.343 86.5936 228.749 85.911C229.154 85.2176 229.357 84.423 229.357 83.527C229.357 82.6203 229.154 81.8256 228.749 81.143C228.343 80.4603 227.773 79.927 227.037 79.543C226.311 79.1483 225.453 78.951 224.461 78.951H221.149V88.103ZM237.371 89.127V77.927H238.555V89.127H237.371ZM246.247 80.647C246.93 80.647 247.527 80.7803 248.039 81.047C248.562 81.303 248.967 81.6976 249.255 82.231C249.554 82.7643 249.703 83.4363 249.703 84.247V89.127H248.567V84.359C248.567 83.4736 248.343 82.807 247.895 82.359C247.458 81.9003 246.839 81.671 246.039 81.671C245.442 81.671 244.919 81.7936 244.471 82.039C244.034 82.2736 243.692 82.6203 243.447 83.079C243.212 83.527 243.095 84.071 243.095 84.711V89.127H241.959V80.727H243.047V83.031L242.871 82.599C243.138 81.991 243.564 81.5163 244.151 81.175C244.738 80.823 245.436 80.647 246.247 80.647ZM256.26 89.207C255.428 89.207 254.681 89.0256 254.02 88.663C253.369 88.2896 252.857 87.783 252.484 87.143C252.11 86.4923 251.924 85.751 251.924 84.919C251.924 84.0763 252.11 83.335 252.484 82.695C252.857 82.055 253.369 81.5536 254.02 81.191C254.681 80.8283 255.428 80.647 256.26 80.647C256.974 80.647 257.62 80.7856 258.196 81.063C258.772 81.3403 259.225 81.7563 259.556 82.311L258.708 82.887C258.42 82.4603 258.062 82.1456 257.636 81.943C257.209 81.7403 256.745 81.639 256.244 81.639C255.646 81.639 255.108 81.7776 254.628 82.055C254.148 82.3216 253.769 82.7003 253.492 83.191C253.214 83.6816 253.076 84.2576 253.076 84.919C253.076 85.5803 253.214 86.1563 253.492 86.647C253.769 87.1376 254.148 87.5216 254.628 87.799C255.108 88.0656 255.646 88.199 256.244 88.199C256.745 88.199 257.209 88.0976 257.636 87.895C258.062 87.6923 258.42 87.383 258.708 86.967L259.556 87.543C259.225 88.087 258.772 88.503 258.196 88.791C257.62 89.0683 256.974 89.207 256.26 89.207ZM262.212 89.207C261.977 89.207 261.774 89.1216 261.604 88.951C261.444 88.7803 261.364 88.5723 261.364 88.327C261.364 88.071 261.444 87.863 261.604 87.703C261.774 87.543 261.977 87.463 262.212 87.463C262.446 87.463 262.644 87.543 262.804 87.703C262.974 87.863 263.06 88.071 263.06 88.327C263.06 88.5723 262.974 88.7803 262.804 88.951C262.644 89.1216 262.446 89.207 262.212 89.207ZM53.0086 110.127L58.1286 98.927H59.2966L64.4166 110.127H63.1686L58.4646 99.615H58.9446L54.2406 110.127H53.0086ZM55.0246 107.135L55.3766 106.175H61.8886L62.2406 107.135H55.0246ZM66.0293 110.127V98.255H67.1653V110.127H66.0293ZM70.3262 110.127V98.255H71.4622V110.127H70.3262ZM79.0506 110.127V98.927H83.2426C84.1919 98.927 85.0079 99.0816 85.6906 99.391C86.3732 99.6896 86.8959 100.127 87.2586 100.703C87.6319 101.268 87.8186 101.956 87.8186 102.767C87.8186 103.556 87.6319 104.239 87.2586 104.815C86.8959 105.38 86.3732 105.818 85.6906 106.127C85.0079 106.426 84.1919 106.575 83.2426 106.575H79.7066L80.2346 106.031V110.127H79.0506ZM86.6986 110.127L83.8186 106.063H85.0986L87.9946 110.127H86.6986ZM80.2346 106.127L79.7066 105.567H83.2106C84.3306 105.567 85.1786 105.322 85.7546 104.831C86.3412 104.34 86.6346 103.652 86.6346 102.767C86.6346 101.871 86.3412 101.178 85.7546 100.687C85.1786 100.196 84.3306 99.951 83.2106 99.951H79.7066L80.2346 99.391V106.127ZM90.3731 110.127V101.727H91.5091V110.127H90.3731ZM90.9491 99.871C90.7144 99.871 90.5171 99.791 90.3571 99.631C90.1971 99.471 90.1171 99.279 90.1171 99.055C90.1171 98.831 90.1971 98.6443 90.3571 98.495C90.5171 98.335 90.7144 98.255 90.9491 98.255C91.1837 98.255 91.3811 98.3296 91.5411 98.479C91.7011 98.6283 91.7811 98.815 91.7811 99.039C91.7811 99.2736 91.7011 99.471 91.5411 99.631C91.3917 99.791 91.1944 99.871 90.9491 99.871ZM98.2539 113.311C97.4859 113.311 96.7499 113.199 96.0459 112.975C95.3419 112.751 94.7713 112.431 94.3339 112.015L94.9099 111.151C95.3046 111.503 95.7899 111.78 96.3659 111.983C96.9526 112.196 97.5713 112.303 98.2219 112.303C99.2886 112.303 100.073 112.052 100.574 111.551C101.075 111.06 101.326 110.292 101.326 109.247V107.151L101.486 105.711L101.374 104.271V101.727H102.462V109.103C102.462 110.554 102.105 111.615 101.39 112.287C100.686 112.97 99.6406 113.311 98.2539 113.311ZM98.0459 109.807C97.2459 109.807 96.5259 109.636 95.8859 109.295C95.2459 108.943 94.7393 108.458 94.3659 107.839C94.0033 107.22 93.8219 106.511 93.8219 105.711C93.8219 104.911 94.0033 104.207 94.3659 103.599C94.7393 102.98 95.2459 102.5 95.8859 102.159C96.5259 101.818 97.2459 101.647 98.0459 101.647C98.7926 101.647 99.4646 101.802 100.062 102.111C100.659 102.42 101.134 102.879 101.486 103.487C101.838 104.095 102.014 104.836 102.014 105.711C102.014 106.586 101.838 107.327 101.486 107.935C101.134 108.543 100.659 109.007 100.062 109.327C99.4646 109.647 98.7926 109.807 98.0459 109.807ZM98.1579 108.799C98.7766 108.799 99.3259 108.671 99.8059 108.415C100.286 108.148 100.665 107.786 100.942 107.327C101.219 106.858 101.358 106.319 101.358 105.711C101.358 105.103 101.219 104.57 100.942 104.111C100.665 103.652 100.286 103.295 99.8059 103.039C99.3259 102.772 98.7766 102.639 98.1579 102.639C97.5499 102.639 97.0006 102.772 96.5099 103.039C96.0299 103.295 95.6513 103.652 95.3739 104.111C95.1073 104.57 94.9739 105.103 94.9739 105.711C94.9739 106.319 95.1073 106.858 95.3739 107.327C95.6513 107.786 96.0299 108.148 96.5099 108.415C97.0006 108.671 97.5499 108.799 98.1579 108.799ZM109.911 101.647C110.594 101.647 111.191 101.78 111.703 102.047C112.226 102.303 112.631 102.698 112.919 103.231C113.218 103.764 113.367 104.436 113.367 105.247V110.127H112.231V105.359C112.231 104.474 112.007 103.807 111.559 103.359C111.122 102.9 110.503 102.671 109.703 102.671C109.106 102.671 108.583 102.794 108.135 103.039C107.698 103.274 107.356 103.62 107.111 104.079C106.876 104.527 106.759 105.071 106.759 105.711V110.127H105.623V98.255H106.759V104.031L106.535 103.599C106.802 102.991 107.228 102.516 107.815 102.175C108.402 101.823 109.1 101.647 109.911 101.647ZM119.092 110.207C118.302 110.207 117.694 109.994 117.268 109.567C116.841 109.14 116.628 108.538 116.628 107.759V99.871H117.764V107.695C117.764 108.186 117.886 108.564 118.132 108.831C118.388 109.098 118.75 109.231 119.22 109.231C119.721 109.231 120.137 109.087 120.468 108.799L120.868 109.615C120.644 109.818 120.372 109.967 120.052 110.063C119.742 110.159 119.422 110.207 119.092 110.207ZM115.124 102.671V101.727H120.324V102.671H115.124ZM125.192 110.207C124.498 110.207 123.842 110.111 123.224 109.919C122.605 109.716 122.12 109.466 121.768 109.167L122.28 108.271C122.621 108.527 123.058 108.751 123.592 108.943C124.125 109.124 124.685 109.215 125.272 109.215C126.072 109.215 126.648 109.092 127 108.847C127.352 108.591 127.528 108.255 127.528 107.839C127.528 107.53 127.426 107.29 127.224 107.119C127.032 106.938 126.776 106.804 126.456 106.719C126.136 106.623 125.778 106.543 125.384 106.479C124.989 106.415 124.594 106.34 124.2 106.255C123.816 106.17 123.464 106.047 123.144 105.887C122.824 105.716 122.562 105.487 122.36 105.199C122.168 104.911 122.072 104.527 122.072 104.047C122.072 103.588 122.2 103.178 122.456 102.815C122.712 102.452 123.085 102.17 123.576 101.967C124.077 101.754 124.685 101.647 125.4 101.647C125.944 101.647 126.488 101.722 127.032 101.871C127.576 102.01 128.024 102.196 128.376 102.431L127.88 103.343C127.506 103.087 127.106 102.906 126.68 102.799C126.253 102.682 125.826 102.623 125.4 102.623C124.642 102.623 124.082 102.756 123.72 103.023C123.368 103.279 123.192 103.61 123.192 104.015C123.192 104.335 123.288 104.586 123.48 104.767C123.682 104.948 123.944 105.092 124.264 105.199C124.594 105.295 124.952 105.375 125.336 105.439C125.73 105.503 126.12 105.583 126.504 105.679C126.898 105.764 127.256 105.887 127.576 106.047C127.906 106.196 128.168 106.415 128.36 106.703C128.562 106.98 128.664 107.348 128.664 107.807C128.664 108.298 128.525 108.724 128.248 109.087C127.981 109.439 127.586 109.716 127.064 109.919C126.552 110.111 125.928 110.207 125.192 110.207ZM135.176 110.127V98.927H139.368C140.317 98.927 141.133 99.0816 141.816 99.391C142.498 99.6896 143.021 100.127 143.384 100.703C143.757 101.268 143.944 101.956 143.944 102.767C143.944 103.556 143.757 104.239 143.384 104.815C143.021 105.38 142.498 105.818 141.816 106.127C141.133 106.426 140.317 106.575 139.368 106.575H135.832L136.36 106.031V110.127H135.176ZM142.824 110.127L139.944 106.063H141.224L144.12 110.127H142.824ZM136.36 106.127L135.832 105.567H139.336C140.456 105.567 141.304 105.322 141.88 104.831C142.466 104.34 142.76 103.652 142.76 102.767C142.76 101.871 142.466 101.178 141.88 100.687C141.304 100.196 140.456 99.951 139.336 99.951H135.832L136.36 99.391V106.127ZM150.066 110.207C149.191 110.207 148.423 110.026 147.762 109.663C147.101 109.29 146.583 108.783 146.21 108.143C145.837 107.492 145.65 106.751 145.65 105.919C145.65 105.087 145.826 104.351 146.178 103.711C146.541 103.071 147.031 102.57 147.65 102.207C148.279 101.834 148.983 101.647 149.762 101.647C150.551 101.647 151.25 101.828 151.858 102.191C152.477 102.543 152.962 103.044 153.314 103.695C153.666 104.335 153.842 105.076 153.842 105.919C153.842 105.972 153.837 106.031 153.826 106.095C153.826 106.148 153.826 106.207 153.826 106.271H146.514V105.423H153.218L152.77 105.759C152.77 105.151 152.637 104.612 152.37 104.143C152.114 103.663 151.762 103.29 151.314 103.023C150.866 102.756 150.349 102.623 149.762 102.623C149.186 102.623 148.669 102.756 148.21 103.023C147.751 103.29 147.394 103.663 147.138 104.143C146.882 104.623 146.754 105.172 146.754 105.791V105.967C146.754 106.607 146.893 107.172 147.17 107.663C147.458 108.143 147.853 108.522 148.354 108.799C148.866 109.066 149.447 109.199 150.098 109.199C150.61 109.199 151.085 109.108 151.522 108.927C151.97 108.746 152.354 108.468 152.674 108.095L153.314 108.831C152.941 109.279 152.471 109.62 151.906 109.855C151.351 110.09 150.738 110.207 150.066 110.207ZM158.41 110.207C157.717 110.207 157.061 110.111 156.442 109.919C155.824 109.716 155.338 109.466 154.986 109.167L155.498 108.271C155.84 108.527 156.277 108.751 156.81 108.943C157.344 109.124 157.904 109.215 158.49 109.215C159.29 109.215 159.866 109.092 160.218 108.847C160.57 108.591 160.746 108.255 160.746 107.839C160.746 107.53 160.645 107.29 160.442 107.119C160.25 106.938 159.994 106.804 159.674 106.719C159.354 106.623 158.997 106.543 158.602 106.479C158.208 106.415 157.813 106.34 157.418 106.255C157.034 106.17 156.682 106.047 156.362 105.887C156.042 105.716 155.781 105.487 155.578 105.199C155.386 104.911 155.29 104.527 155.29 104.047C155.29 103.588 155.418 103.178 155.674 102.815C155.93 102.452 156.304 102.17 156.794 101.967C157.296 101.754 157.904 101.647 158.618 101.647C159.162 101.647 159.706 101.722 160.25 101.871C160.794 102.01 161.242 102.196 161.594 102.431L161.098 103.343C160.725 103.087 160.325 102.906 159.898 102.799C159.472 102.682 159.045 102.623 158.618 102.623C157.861 102.623 157.301 102.756 156.938 103.023C156.586 103.279 156.41 103.61 156.41 104.015C156.41 104.335 156.506 104.586 156.698 104.767C156.901 104.948 157.162 105.092 157.482 105.199C157.813 105.295 158.17 105.375 158.554 105.439C158.949 105.503 159.338 105.583 159.722 105.679C160.117 105.764 160.474 105.887 160.794 106.047C161.125 106.196 161.386 106.415 161.578 106.703C161.781 106.98 161.882 107.348 161.882 107.807C161.882 108.298 161.744 108.724 161.466 109.087C161.2 109.439 160.805 109.716 160.282 109.919C159.77 110.111 159.146 110.207 158.41 110.207ZM167.535 110.207C166.66 110.207 165.892 110.026 165.231 109.663C164.569 109.29 164.052 108.783 163.679 108.143C163.305 107.492 163.119 106.751 163.119 105.919C163.119 105.087 163.295 104.351 163.647 103.711C164.009 103.071 164.5 102.57 165.119 102.207C165.748 101.834 166.452 101.647 167.231 101.647C168.02 101.647 168.719 101.828 169.327 102.191C169.945 102.543 170.431 103.044 170.783 103.695C171.135 104.335 171.311 105.076 171.311 105.919C171.311 105.972 171.305 106.031 171.295 106.095C171.295 106.148 171.295 106.207 171.295 106.271H163.983V105.423H170.687L170.239 105.759C170.239 105.151 170.105 104.612 169.839 104.143C169.583 103.663 169.231 103.29 168.783 103.023C168.335 102.756 167.817 102.623 167.231 102.623C166.655 102.623 166.137 102.756 165.679 103.023C165.22 103.29 164.863 103.663 164.607 104.143C164.351 104.623 164.223 105.172 164.223 105.791V105.967C164.223 106.607 164.361 107.172 164.639 107.663C164.927 108.143 165.321 108.522 165.823 108.799C166.335 109.066 166.916 109.199 167.567 109.199C168.079 109.199 168.553 109.108 168.991 108.927C169.439 108.746 169.823 108.468 170.143 108.095L170.783 108.831C170.409 109.279 169.94 109.62 169.375 109.855C168.82 110.09 168.207 110.207 167.535 110.207ZM173.623 110.127V101.727H174.711V104.015L174.599 103.615C174.834 102.975 175.228 102.49 175.783 102.159C176.338 101.818 177.026 101.647 177.847 101.647V102.751C177.804 102.751 177.762 102.751 177.719 102.751C177.676 102.74 177.634 102.735 177.591 102.735C176.706 102.735 176.012 103.007 175.511 103.551C175.01 104.084 174.759 104.847 174.759 105.839V110.127H173.623ZM182.439 110.127L178.711 101.727H179.895L183.319 109.519H182.759L186.231 101.727H187.351L183.607 110.127H182.439ZM192.285 110.207C191.41 110.207 190.642 110.026 189.981 109.663C189.319 109.29 188.802 108.783 188.429 108.143C188.055 107.492 187.869 106.751 187.869 105.919C187.869 105.087 188.045 104.351 188.397 103.711C188.759 103.071 189.25 102.57 189.869 102.207C190.498 101.834 191.202 101.647 191.981 101.647C192.77 101.647 193.469 101.828 194.077 102.191C194.695 102.543 195.181 103.044 195.533 103.695C195.885 104.335 196.061 105.076 196.061 105.919C196.061 105.972 196.055 106.031 196.045 106.095C196.045 106.148 196.045 106.207 196.045 106.271H188.733V105.423H195.437L194.989 105.759C194.989 105.151 194.855 104.612 194.589 104.143C194.333 103.663 193.981 103.29 193.533 103.023C193.085 102.756 192.567 102.623 191.981 102.623C191.405 102.623 190.887 102.756 190.429 103.023C189.97 103.29 189.613 103.663 189.357 104.143C189.101 104.623 188.973 105.172 188.973 105.791V105.967C188.973 106.607 189.111 107.172 189.389 107.663C189.677 108.143 190.071 108.522 190.573 108.799C191.085 109.066 191.666 109.199 192.317 109.199C192.829 109.199 193.303 109.108 193.741 108.927C194.189 108.746 194.573 108.468 194.893 108.095L195.533 108.831C195.159 109.279 194.69 109.62 194.125 109.855C193.57 110.09 192.957 110.207 192.285 110.207ZM201.717 110.207C200.917 110.207 200.197 110.026 199.557 109.663C198.928 109.3 198.432 108.799 198.069 108.159C197.706 107.508 197.525 106.762 197.525 105.919C197.525 105.066 197.706 104.319 198.069 103.679C198.432 103.039 198.928 102.543 199.557 102.191C200.197 101.828 200.917 101.647 201.717 101.647C202.453 101.647 203.109 101.812 203.685 102.143C204.272 102.474 204.736 102.959 205.077 103.599C205.429 104.228 205.605 105.002 205.605 105.919C205.605 106.826 205.434 107.599 205.093 108.239C204.752 108.879 204.288 109.37 203.701 109.711C203.125 110.042 202.464 110.207 201.717 110.207ZM201.797 109.199C202.394 109.199 202.928 109.066 203.397 108.799C203.877 108.522 204.25 108.138 204.517 107.647C204.794 107.146 204.933 106.57 204.933 105.919C204.933 105.258 204.794 104.682 204.517 104.191C204.25 103.7 203.877 103.322 203.397 103.055C202.928 102.778 202.394 102.639 201.797 102.639C201.21 102.639 200.682 102.778 200.213 103.055C199.744 103.322 199.37 103.7 199.093 104.191C198.816 104.682 198.677 105.258 198.677 105.919C198.677 106.57 198.816 107.146 199.093 107.647C199.37 108.138 199.744 108.522 200.213 108.799C200.682 109.066 201.21 109.199 201.797 109.199ZM204.965 110.127V107.599L205.077 105.903L204.917 104.207V98.255H206.053V110.127H204.965ZM209.329 110.207C209.094 110.207 208.891 110.122 208.721 109.951C208.561 109.78 208.481 109.572 208.481 109.327C208.481 109.071 208.561 108.863 208.721 108.703C208.891 108.543 209.094 108.463 209.329 108.463C209.563 108.463 209.761 108.543 209.921 108.703C210.091 108.863 210.177 109.071 210.177 109.327C210.177 109.572 210.091 109.78 209.921 109.951C209.761 110.122 209.563 110.207 209.329 110.207Z" fill="#FFCACA"/>
</svg>
