<svg width="264" height="119" viewBox="0 0 264 119" fill="none" xmlns="http://www.w3.org/2000/svg">
<path d="M6.464 93.048C5.664 93.048 4.92267 92.904 4.24 92.616C3.55733 92.328 2.96 91.928 2.448 91.416C1.936 90.8933 1.536 90.2907 1.248 89.608C0.970667 88.9253 0.832 88.1893 0.832 87.4C0.832 86.6107 0.976 85.8747 1.264 85.192C1.552 84.5093 1.952 83.912 2.464 83.4C2.976 82.8773 3.57333 82.472 4.256 82.184C4.94933 81.896 5.696 81.752 6.496 81.752C7.296 81.752 8.03733 81.896 8.72 82.184C9.41333 82.4613 10.0107 82.856 10.512 83.368C11.024 83.88 11.4187 84.4773 11.696 85.16C11.984 85.832 12.128 86.568 12.128 87.368C12.128 88.168 11.984 88.9147 11.696 89.608C11.408 90.2907 11.0027 90.8933 10.48 91.416C9.968 91.928 9.37067 92.328 8.688 92.616C8.00533 92.904 7.264 93.048 6.464 93.048ZM6.448 92.456C7.17333 92.456 7.84 92.328 8.448 92.072C9.056 91.8053 9.58933 91.4427 10.048 90.984C10.5173 90.5253 10.88 89.9867 11.136 89.368C11.392 88.7387 11.52 88.072 11.52 87.368C11.52 86.6533 11.392 85.992 11.136 85.384C10.8907 84.776 10.5387 84.2427 10.08 83.784C9.632 83.3253 9.09867 82.9733 8.48 82.728C7.872 82.472 7.21067 82.344 6.496 82.344C5.77067 82.344 5.09867 82.472 4.48 82.728C3.86133 82.984 3.32267 83.3467 2.864 83.816C2.416 84.2747 2.064 84.808 1.808 85.416C1.552 86.024 1.424 86.6853 1.424 87.4C1.424 88.104 1.552 88.7653 1.808 89.384C2.064 89.992 2.416 90.5307 2.864 91C3.32267 91.4587 3.856 91.816 4.464 92.072C5.08267 92.328 5.744 92.456 6.448 92.456ZM6.608 90.728C5.968 90.728 5.39733 90.5893 4.896 90.312C4.39467 90.024 4 89.6293 3.712 89.128C3.424 88.6267 3.28 88.0507 3.28 87.4C3.28 86.7493 3.424 86.1733 3.712 85.672C4 85.1707 4.39467 84.7813 4.896 84.504C5.39733 84.216 5.968 84.072 6.608 84.072C7.152 84.072 7.64267 84.184 8.08 84.408C8.528 84.6213 8.88533 84.92 9.152 85.304L8.464 85.816C8.24 85.5067 7.968 85.2773 7.648 85.128C7.328 84.9787 6.976 84.904 6.592 84.904C6.13333 84.904 5.72267 85.0107 5.36 85.224C5.008 85.4267 4.72533 85.7147 4.512 86.088C4.29867 86.4613 4.192 86.8987 4.192 87.4C4.192 87.9013 4.29867 88.3387 4.512 88.712C4.72533 89.0853 5.008 89.3787 5.36 89.592C5.72267 89.7947 6.13333 89.896 6.592 89.896C6.976 89.896 7.328 89.8213 7.648 89.672C7.968 89.5227 8.24 89.2933 8.464 88.984L9.152 89.48C8.88533 89.8747 8.528 90.184 8.08 90.408C7.64267 90.6213 7.152 90.728 6.608 90.728ZM17.749 93V92.184L22.405 87.624C22.8317 87.208 23.1517 86.8453 23.365 86.536C23.5783 86.216 23.7223 85.9173 23.797 85.64C23.8717 85.3627 23.909 85.1013 23.909 84.856C23.909 84.2053 23.685 83.6933 23.237 83.32C22.7997 82.9467 22.149 82.76 21.285 82.76C20.6237 82.76 20.037 82.8613 19.525 83.064C19.0237 83.2667 18.5917 83.5813 18.229 84.008L17.413 83.304C17.8503 82.792 18.4103 82.3973 19.093 82.12C19.7757 81.8427 20.5383 81.704 21.381 81.704C22.1383 81.704 22.7943 81.8267 23.349 82.072C23.9037 82.3067 24.3303 82.6533 24.629 83.112C24.9383 83.5707 25.093 84.1093 25.093 84.728C25.093 85.0907 25.0397 85.448 24.933 85.8C24.837 86.152 24.6557 86.5253 24.389 86.92C24.133 87.304 23.7543 87.7413 23.253 88.232L18.981 92.424L18.661 91.976H25.605V93H17.749ZM31.4835 93.096C30.6195 93.096 29.8515 92.872 29.1795 92.424C28.5075 91.9653 27.9795 91.3147 27.5955 90.472C27.2115 89.6187 27.0195 88.5947 27.0195 87.4C27.0195 86.2053 27.2115 85.1867 27.5955 84.344C27.9795 83.4907 28.5075 82.84 29.1795 82.392C29.8515 81.9333 30.6195 81.704 31.4835 81.704C32.3475 81.704 33.1155 81.9333 33.7875 82.392C34.4595 82.84 34.9875 83.4907 35.3715 84.344C35.7662 85.1867 35.9635 86.2053 35.9635 87.4C35.9635 88.5947 35.7662 89.6187 35.3715 90.472C34.9875 91.3147 34.4595 91.9653 33.7875 92.424C33.1155 92.872 32.3475 93.096 31.4835 93.096ZM31.4835 92.04C32.1448 92.04 32.7208 91.864 33.2115 91.512C33.7022 91.1493 34.0862 90.6267 34.3635 89.944C34.6408 89.2507 34.7795 88.4027 34.7795 87.4C34.7795 86.3973 34.6408 85.5547 34.3635 84.872C34.0862 84.1787 33.7022 83.656 33.2115 83.304C32.7208 82.9413 32.1448 82.76 31.4835 82.76C30.8435 82.76 30.2728 82.9413 29.7715 83.304C29.2702 83.656 28.8808 84.1787 28.6035 84.872C28.3262 85.5547 28.1875 86.3973 28.1875 87.4C28.1875 88.4027 28.3262 89.2507 28.6035 89.944C28.8808 90.6267 29.2702 91.1493 29.7715 91.512C30.2728 91.864 30.8435 92.04 31.4835 92.04ZM37.4053 93V92.184L42.0613 87.624C42.4879 87.208 42.8079 86.8453 43.0213 86.536C43.2346 86.216 43.3786 85.9173 43.4533 85.64C43.5279 85.3627 43.5653 85.1013 43.5653 84.856C43.5653 84.2053 43.3413 83.6933 42.8933 83.32C42.4559 82.9467 41.8053 82.76 40.9413 82.76C40.2799 82.76 39.6933 82.8613 39.1813 83.064C38.6799 83.2667 38.2479 83.5813 37.8853 84.008L37.0693 83.304C37.5066 82.792 38.0666 82.3973 38.7493 82.12C39.4319 81.8427 40.1946 81.704 41.0373 81.704C41.7946 81.704 42.4506 81.8267 43.0053 82.072C43.5599 82.3067 43.9866 82.6533 44.2853 83.112C44.5946 83.5707 44.7493 84.1093 44.7493 84.728C44.7493 85.0907 44.6959 85.448 44.5893 85.8C44.4933 86.152 44.3119 86.5253 44.0453 86.92C43.7893 87.304 43.4106 87.7413 42.9093 88.232L38.6373 92.424L38.3173 91.976H45.2613V93H37.4053ZM46.499 93V92.184L51.155 87.624C51.5817 87.208 51.9017 86.8453 52.115 86.536C52.3283 86.216 52.4723 85.9173 52.547 85.64C52.6217 85.3627 52.659 85.1013 52.659 84.856C52.659 84.2053 52.435 83.6933 51.987 83.32C51.5497 82.9467 50.899 82.76 50.035 82.76C49.3737 82.76 48.787 82.8613 48.275 83.064C47.7737 83.2667 47.3417 83.5813 46.979 84.008L46.163 83.304C46.6003 82.792 47.1603 82.3973 47.843 82.12C48.5257 81.8427 49.2883 81.704 50.131 81.704C50.8883 81.704 51.5443 81.8267 52.099 82.072C52.6537 82.3067 53.0803 82.6533 53.379 83.112C53.6883 83.5707 53.843 84.1093 53.843 84.728C53.843 85.0907 53.7897 85.448 53.683 85.8C53.587 86.152 53.4057 86.5253 53.139 86.92C52.883 87.304 52.5043 87.7413 52.003 88.232L47.731 92.424L47.411 91.976H54.355V93H46.499ZM60.9803 93V81.8H62.1643V93H60.9803ZM68.8964 93.096C68.0644 93.096 67.2644 92.9627 66.4964 92.696C65.739 92.4187 65.1524 92.0667 64.7364 91.64L65.2004 90.728C65.595 91.112 66.123 91.4373 66.7844 91.704C67.4564 91.96 68.1604 92.088 68.8964 92.088C69.6004 92.088 70.171 92.0027 70.6084 91.832C71.0564 91.6507 71.3817 91.4107 71.5844 91.112C71.7977 90.8133 71.9044 90.4827 71.9044 90.12C71.9044 89.6827 71.7764 89.3307 71.5204 89.064C71.275 88.7973 70.9497 88.5893 70.5444 88.44C70.139 88.28 69.691 88.1413 69.2004 88.024C68.7097 87.9067 68.219 87.784 67.7284 87.656C67.2377 87.5173 66.7844 87.336 66.3684 87.112C65.963 86.888 65.6324 86.5947 65.3764 86.232C65.131 85.8587 65.0084 85.3733 65.0084 84.776C65.0084 84.2213 65.1524 83.7147 65.4404 83.256C65.739 82.7867 66.1924 82.4133 66.8004 82.136C67.4084 81.848 68.187 81.704 69.1364 81.704C69.7657 81.704 70.3897 81.7947 71.0084 81.976C71.627 82.1467 72.1604 82.3867 72.6084 82.696L72.2084 83.64C71.7284 83.32 71.2164 83.0853 70.6724 82.936C70.139 82.7867 69.6217 82.712 69.1204 82.712C68.4484 82.712 67.8937 82.8027 67.4564 82.984C67.019 83.1653 66.6937 83.4107 66.4804 83.72C66.2777 84.0187 66.1764 84.36 66.1764 84.744C66.1764 85.1813 66.299 85.5333 66.5444 85.8C66.8004 86.0667 67.131 86.2747 67.5364 86.424C67.9524 86.5733 68.4057 86.7067 68.8964 86.824C69.387 86.9413 69.8724 87.0693 70.3524 87.208C70.843 87.3467 71.291 87.528 71.6964 87.752C72.1124 87.9653 72.443 88.2533 72.6884 88.616C72.9444 88.9787 73.0724 89.4533 73.0724 90.04C73.0724 90.584 72.923 91.0907 72.6244 91.56C72.3257 92.0187 71.867 92.392 71.2484 92.68C70.6404 92.9573 69.8564 93.096 68.8964 93.096ZM79.8396 93V81.8H84.3996C85.5943 81.8 86.6396 82.04 87.5356 82.52C88.4423 82.9893 89.1463 83.6453 89.6476 84.488C90.149 85.3307 90.3996 86.3013 90.3996 87.4C90.3996 88.4987 90.149 89.4693 89.6476 90.312C89.1463 91.1547 88.4423 91.816 87.5356 92.296C86.6396 92.7653 85.5943 93 84.3996 93H79.8396ZM81.0236 91.976H84.3356C85.3276 91.976 86.1863 91.784 86.9116 91.4C87.6476 91.0053 88.2183 90.4667 88.6236 89.784C89.029 89.0907 89.2316 88.296 89.2316 87.4C89.2316 86.4933 89.029 85.6987 88.6236 85.016C88.2183 84.3333 87.6476 83.8 86.9116 83.416C86.1863 83.0213 85.3276 82.824 84.3356 82.824H81.0236V91.976ZM93.0584 93V81.8H94.2424V93H93.0584ZM100.975 93.096C100.143 93.096 99.3425 92.9627 98.5745 92.696C97.8172 92.4187 97.2305 92.0667 96.8145 91.64L97.2785 90.728C97.6732 91.112 98.2012 91.4373 98.8625 91.704C99.5345 91.96 100.239 92.088 100.975 92.088C101.679 92.088 102.249 92.0027 102.687 91.832C103.135 91.6507 103.46 91.4107 103.663 91.112C103.876 90.8133 103.983 90.4827 103.983 90.12C103.983 89.6827 103.855 89.3307 103.599 89.064C103.353 88.7973 103.028 88.5893 102.623 88.44C102.217 88.28 101.769 88.1413 101.279 88.024C100.788 87.9067 100.297 87.784 99.8065 87.656C99.3158 87.5173 98.8625 87.336 98.4465 87.112C98.0412 86.888 97.7105 86.5947 97.4545 86.232C97.2092 85.8587 97.0865 85.3733 97.0865 84.776C97.0865 84.2213 97.2305 83.7147 97.5185 83.256C97.8172 82.7867 98.2705 82.4133 98.8785 82.136C99.4865 81.848 100.265 81.704 101.215 81.704C101.844 81.704 102.468 81.7947 103.087 81.976C103.705 82.1467 104.239 82.3867 104.687 82.696L104.286 83.64C103.807 83.32 103.295 83.0853 102.751 82.936C102.217 82.7867 101.7 82.712 101.199 82.712C100.527 82.712 99.9718 82.8027 99.5345 82.984C99.0972 83.1653 98.7718 83.4107 98.5585 83.72C98.3558 84.0187 98.2545 84.36 98.2545 84.744C98.2545 85.1813 98.3772 85.5333 98.6225 85.8C98.8785 86.0667 99.2092 86.2747 99.6145 86.424C100.031 86.5733 100.484 86.7067 100.975 86.824C101.465 86.9413 101.951 87.0693 102.431 87.208C102.921 87.3467 103.369 87.528 103.775 87.752C104.191 87.9653 104.521 88.2533 104.767 88.616C105.023 88.9787 105.151 89.4533 105.151 90.04C105.151 90.584 105.001 91.0907 104.703 91.56C104.404 92.0187 103.945 92.392 103.327 92.68C102.719 92.9573 101.935 93.096 100.975 93.096ZM109.75 93V82.824H105.814V81.8H114.87V82.824H110.934V93H109.75ZM116.762 93V81.8H120.954C121.903 81.8 122.719 81.9547 123.402 82.264C124.084 82.5627 124.607 83 124.97 83.576C125.343 84.1413 125.53 84.8293 125.53 85.64C125.53 86.4293 125.343 87.112 124.97 87.688C124.607 88.2533 124.084 88.6907 123.402 89C122.719 89.2987 121.903 89.448 120.954 89.448H117.418L117.946 88.904V93H116.762ZM124.41 93L121.53 88.936H122.81L125.706 93H124.41ZM117.946 89L117.418 88.44H120.922C122.042 88.44 122.89 88.1947 123.466 87.704C124.052 87.2133 124.345 86.5253 124.345 85.64C124.345 84.744 124.052 84.0507 123.466 83.56C122.89 83.0693 122.042 82.824 120.922 82.824H117.418L117.946 82.264V89ZM128.324 93V81.8H129.508V93H128.324ZM133.152 93V81.8H137.984C139.232 81.8 140.197 82.0507 140.88 82.552C141.573 83.0533 141.92 83.7627 141.92 84.68C141.92 85.288 141.776 85.8 141.488 86.216C141.211 86.632 140.827 86.9467 140.336 87.16C139.856 87.3733 139.328 87.48 138.752 87.48L139.024 87.096C139.739 87.096 140.352 87.208 140.864 87.432C141.387 87.6453 141.792 87.9707 142.08 88.408C142.368 88.8347 142.512 89.368 142.512 90.008C142.512 90.9573 142.16 91.6933 141.456 92.216C140.763 92.7387 139.712 93 138.304 93H133.152ZM134.336 92.024H138.288C139.269 92.024 140.021 91.8587 140.544 91.528C141.067 91.1867 141.328 90.648 141.328 89.912C141.328 89.1867 141.067 88.6587 140.544 88.328C140.021 87.9867 139.269 87.816 138.288 87.816H134.208V86.84H137.904C138.8 86.84 139.493 86.6693 139.984 86.328C140.485 85.9867 140.736 85.48 140.736 84.808C140.736 84.1253 140.485 83.6187 139.984 83.288C139.493 82.9467 138.8 82.776 137.904 82.776H134.336V92.024ZM149.727 93.096C148.297 93.096 147.172 92.6853 146.351 91.864C145.529 91.0427 145.119 89.8267 145.119 88.216V81.8H146.303V88.168C146.303 89.4907 146.601 90.4667 147.199 91.096C147.796 91.7253 148.639 92.04 149.727 92.04C150.825 92.04 151.673 91.7253 152.271 91.096C152.868 90.4667 153.167 89.4907 153.167 88.168V81.8H154.319V88.216C154.319 89.8267 153.908 91.0427 153.087 91.864C152.276 92.6853 151.156 93.096 149.727 93.096ZM159.844 93V82.824H155.908V81.8H164.964V82.824H161.028V93H159.844ZM166.855 93V81.8H168.039V93H166.855ZM176.579 93.096C175.737 93.096 174.953 92.9573 174.227 92.68C173.513 92.392 172.889 91.992 172.355 91.48C171.833 90.9573 171.422 90.3547 171.123 89.672C170.835 88.9787 170.691 88.2213 170.691 87.4C170.691 86.5787 170.835 85.8267 171.123 85.144C171.422 84.4507 171.833 83.848 172.355 83.336C172.889 82.8133 173.513 82.4133 174.227 82.136C174.942 81.848 175.726 81.704 176.579 81.704C177.422 81.704 178.201 81.848 178.915 82.136C179.63 82.4133 180.249 82.808 180.771 83.32C181.305 83.832 181.715 84.4347 182.003 85.128C182.302 85.8213 182.451 86.5787 182.451 87.4C182.451 88.2213 182.302 88.9787 182.003 89.672C181.715 90.3653 181.305 90.968 180.771 91.48C180.249 91.992 179.63 92.392 178.915 92.68C178.201 92.9573 177.422 93.096 176.579 93.096ZM176.579 92.04C177.251 92.04 177.87 91.928 178.435 91.704C179.011 91.4693 179.507 91.144 179.923 90.728C180.35 90.3013 180.681 89.8107 180.915 89.256C181.15 88.6907 181.267 88.072 181.267 87.4C181.267 86.728 181.15 86.1147 180.915 85.56C180.681 84.9947 180.35 84.504 179.923 84.088C179.507 83.6613 179.011 83.336 178.435 83.112C177.87 82.8773 177.251 82.76 176.579 82.76C175.907 82.76 175.283 82.8773 174.707 83.112C174.131 83.336 173.63 83.6613 173.203 84.088C172.787 84.504 172.457 84.9947 172.211 85.56C171.977 86.1147 171.859 86.728 171.859 87.4C171.859 88.0613 171.977 88.6747 172.211 89.24C172.457 89.8053 172.787 90.3013 173.203 90.728C173.63 91.144 174.131 91.4693 174.707 91.704C175.283 91.928 175.907 92.04 176.579 92.04ZM185.105 93V81.8H186.081L193.809 91.528H193.297V81.8H194.465V93H193.489L185.777 83.272H186.289V93H185.105ZM202.308 93V81.8H203.492V91.976H209.764V93H202.308ZM212.859 93V82.824H208.923V81.8H217.979V82.824H214.043V93H212.859ZM219.871 93V81.8H224.431C225.626 81.8 226.671 82.04 227.567 82.52C228.474 82.9893 229.178 83.6453 229.679 84.488C230.18 85.3307 230.431 86.3013 230.431 87.4C230.431 88.4987 230.18 89.4693 229.679 90.312C229.178 91.1547 228.474 91.816 227.567 92.296C226.671 92.7653 225.626 93 224.431 93H219.871ZM221.055 91.976H224.367C225.359 91.976 226.218 91.784 226.943 91.4C227.679 91.0053 228.25 90.4667 228.655 89.784C229.06 89.0907 229.263 88.296 229.263 87.4C229.263 86.4933 229.06 85.6987 228.655 85.016C228.25 84.3333 227.679 83.8 226.943 83.416C226.218 83.0213 225.359 82.824 224.367 82.824H221.055V91.976ZM237.277 93V81.8H238.461V93H237.277ZM246.153 84.52C246.836 84.52 247.433 84.6533 247.945 84.92C248.468 85.176 248.873 85.5707 249.161 86.104C249.46 86.6373 249.609 87.3093 249.609 88.12V93H248.473V88.232C248.473 87.3467 248.249 86.68 247.801 86.232C247.364 85.7733 246.745 85.544 245.945 85.544C245.348 85.544 244.825 85.6667 244.377 85.912C243.94 86.1467 243.599 86.4933 243.353 86.952C243.119 87.4 243.001 87.944 243.001 88.584V93H241.865V84.6H242.953V86.904L242.777 86.472C243.044 85.864 243.471 85.3893 244.057 85.048C244.644 84.696 245.343 84.52 246.153 84.52ZM256.166 93.08C255.334 93.08 254.587 92.8987 253.926 92.536C253.275 92.1627 252.763 91.656 252.39 91.016C252.016 90.3653 251.83 89.624 251.83 88.792C251.83 87.9493 252.016 87.208 252.39 86.568C252.763 85.928 253.275 85.4267 253.926 85.064C254.587 84.7013 255.334 84.52 256.166 84.52C256.88 84.52 257.526 84.6587 258.102 84.936C258.678 85.2133 259.131 85.6293 259.462 86.184L258.614 86.76C258.326 86.3333 257.968 86.0187 257.542 85.816C257.115 85.6133 256.651 85.512 256.15 85.512C255.552 85.512 255.014 85.6507 254.534 85.928C254.054 86.1947 253.675 86.5733 253.398 87.064C253.12 87.5547 252.982 88.1307 252.982 88.792C252.982 89.4533 253.12 90.0293 253.398 90.52C253.675 91.0107 254.054 91.3947 254.534 91.672C255.014 91.9387 255.552 92.072 256.15 92.072C256.651 92.072 257.115 91.9707 257.542 91.768C257.968 91.5653 258.326 91.256 258.614 90.84L259.462 91.416C259.131 91.96 258.678 92.376 258.102 92.664C257.526 92.9413 256.88 93.08 256.166 93.08ZM262.118 93.08C261.883 93.08 261.681 92.9947 261.51 92.824C261.35 92.6533 261.27 92.4453 261.27 92.2C261.27 91.944 261.35 91.736 261.51 91.576C261.681 91.416 261.883 91.336 262.118 91.336C262.353 91.336 262.55 91.416 262.71 91.576C262.881 91.736 262.966 91.944 262.966 92.2C262.966 92.4453 262.881 92.6533 262.71 92.824C262.55 92.9947 262.353 93.08 262.118 93.08ZM0.032 114L5.152 102.8H6.32L11.44 114H10.192L5.488 103.488H5.968L1.264 114H0.032ZM2.048 111.008L2.4 110.048H8.912L9.264 111.008H2.048ZM13.0528 114V102.128H14.1888V114H13.0528ZM17.3496 114V102.128H18.4856V114H17.3496ZM26.074 114V102.8H30.266C31.2153 102.8 32.0313 102.955 32.714 103.264C33.3967 103.563 33.9193 104 34.282 104.576C34.6553 105.141 34.842 105.829 34.842 106.64C34.842 107.429 34.6553 108.112 34.282 108.688C33.9193 109.253 33.3967 109.691 32.714 110C32.0313 110.299 31.2153 110.448 30.266 110.448H26.73L27.258 109.904V114H26.074ZM33.722 114L30.842 109.936H32.122L35.018 114H33.722ZM27.258 110L26.73 109.44H30.234C31.354 109.44 32.202 109.195 32.778 108.704C33.3647 108.213 33.658 107.525 33.658 106.64C33.658 105.744 33.3647 105.051 32.778 104.56C32.202 104.069 31.354 103.824 30.234 103.824H26.73L27.258 103.264V110ZM37.3965 114V105.6H38.5325V114H37.3965ZM37.9725 103.744C37.7378 103.744 37.5405 103.664 37.3805 103.504C37.2205 103.344 37.1405 103.152 37.1405 102.928C37.1405 102.704 37.2205 102.517 37.3805 102.368C37.5405 102.208 37.7378 102.128 37.9725 102.128C38.2072 102.128 38.4045 102.203 38.5645 102.352C38.7245 102.501 38.8045 102.688 38.8045 102.912C38.8045 103.147 38.7245 103.344 38.5645 103.504C38.4152 103.664 38.2178 103.744 37.9725 103.744ZM45.2774 117.184C44.5094 117.184 43.7734 117.072 43.0694 116.848C42.3654 116.624 41.7947 116.304 41.3574 115.888L41.9334 115.024C42.328 115.376 42.8134 115.653 43.3894 115.856C43.976 116.069 44.5947 116.176 45.2454 116.176C46.312 116.176 47.096 115.925 47.5974 115.424C48.0987 114.933 48.3494 114.165 48.3494 113.12V111.024L48.5094 109.584L48.3974 108.144V105.6H49.4854V112.976C49.4854 114.427 49.128 115.488 48.4134 116.16C47.7094 116.843 46.664 117.184 45.2774 117.184ZM45.0694 113.68C44.2694 113.68 43.5494 113.509 42.9094 113.168C42.2694 112.816 41.7627 112.331 41.3894 111.712C41.0267 111.093 40.8454 110.384 40.8454 109.584C40.8454 108.784 41.0267 108.08 41.3894 107.472C41.7627 106.853 42.2694 106.373 42.9094 106.032C43.5494 105.691 44.2694 105.52 45.0694 105.52C45.816 105.52 46.488 105.675 47.0854 105.984C47.6827 106.293 48.1574 106.752 48.5094 107.36C48.8614 107.968 49.0374 108.709 49.0374 109.584C49.0374 110.459 48.8614 111.2 48.5094 111.808C48.1574 112.416 47.6827 112.88 47.0854 113.2C46.488 113.52 45.816 113.68 45.0694 113.68ZM45.1814 112.672C45.8 112.672 46.3494 112.544 46.8294 112.288C47.3094 112.021 47.688 111.659 47.9654 111.2C48.2427 110.731 48.3814 110.192 48.3814 109.584C48.3814 108.976 48.2427 108.443 47.9654 107.984C47.688 107.525 47.3094 107.168 46.8294 106.912C46.3494 106.645 45.8 106.512 45.1814 106.512C44.5734 106.512 44.024 106.645 43.5334 106.912C43.0534 107.168 42.6747 107.525 42.3974 107.984C42.1307 108.443 41.9974 108.976 41.9974 109.584C41.9974 110.192 42.1307 110.731 42.3974 111.2C42.6747 111.659 43.0534 112.021 43.5334 112.288C44.024 112.544 44.5734 112.672 45.1814 112.672ZM56.9345 105.52C57.6172 105.52 58.2145 105.653 58.7265 105.92C59.2492 106.176 59.6545 106.571 59.9425 107.104C60.2412 107.637 60.3905 108.309 60.3905 109.12V114H59.2545V109.232C59.2545 108.347 59.0305 107.68 58.5825 107.232C58.1452 106.773 57.5265 106.544 56.7265 106.544C56.1292 106.544 55.6065 106.667 55.1585 106.912C54.7212 107.147 54.3798 107.493 54.1345 107.952C53.8998 108.4 53.7825 108.944 53.7825 109.584V114H52.6465V102.128H53.7825V107.904L53.5585 107.472C53.8252 106.864 54.2518 106.389 54.8385 106.048C55.4252 105.696 56.1238 105.52 56.9345 105.52ZM66.115 114.08C65.3257 114.08 64.7177 113.867 64.291 113.44C63.8643 113.013 63.651 112.411 63.651 111.632V103.744H64.787V111.568C64.787 112.059 64.9097 112.437 65.155 112.704C65.411 112.971 65.7737 113.104 66.243 113.104C66.7443 113.104 67.1603 112.96 67.491 112.672L67.891 113.488C67.667 113.691 67.395 113.84 67.075 113.936C66.7657 114.032 66.4457 114.08 66.115 114.08ZM62.147 106.544V105.6H67.347V106.544H62.147ZM72.215 114.08C71.5217 114.08 70.8657 113.984 70.247 113.792C69.6283 113.589 69.143 113.339 68.791 113.04L69.303 112.144C69.6443 112.4 70.0817 112.624 70.615 112.816C71.1483 112.997 71.7083 113.088 72.295 113.088C73.095 113.088 73.671 112.965 74.023 112.72C74.375 112.464 74.551 112.128 74.551 111.712C74.551 111.403 74.4497 111.163 74.247 110.992C74.055 110.811 73.799 110.677 73.479 110.592C73.159 110.496 72.8017 110.416 72.407 110.352C72.0123 110.288 71.6177 110.213 71.223 110.128C70.839 110.043 70.487 109.92 70.167 109.76C69.847 109.589 69.5857 109.36 69.383 109.072C69.191 108.784 69.095 108.4 69.095 107.92C69.095 107.461 69.223 107.051 69.479 106.688C69.735 106.325 70.1083 106.043 70.599 105.84C71.1003 105.627 71.7083 105.52 72.423 105.52C72.967 105.52 73.511 105.595 74.055 105.744C74.599 105.883 75.047 106.069 75.399 106.304L74.903 107.216C74.5297 106.96 74.1297 106.779 73.703 106.672C73.2763 106.555 72.8497 106.496 72.423 106.496C71.6657 106.496 71.1057 106.629 70.743 106.896C70.391 107.152 70.215 107.483 70.215 107.888C70.215 108.208 70.311 108.459 70.503 108.64C70.7057 108.821 70.967 108.965 71.287 109.072C71.6177 109.168 71.975 109.248 72.359 109.312C72.7537 109.376 73.143 109.456 73.527 109.552C73.9217 109.637 74.279 109.76 74.599 109.92C74.9297 110.069 75.191 110.288 75.383 110.576C75.5857 110.853 75.687 111.221 75.687 111.68C75.687 112.171 75.5483 112.597 75.271 112.96C75.0043 113.312 74.6097 113.589 74.087 113.792C73.575 113.984 72.951 114.08 72.215 114.08ZM82.199 114V102.8H86.391C87.3403 102.8 88.1563 102.955 88.839 103.264C89.5217 103.563 90.0443 104 90.407 104.576C90.7803 105.141 90.967 105.829 90.967 106.64C90.967 107.429 90.7803 108.112 90.407 108.688C90.0443 109.253 89.5217 109.691 88.839 110C88.1563 110.299 87.3403 110.448 86.391 110.448H82.855L83.383 109.904V114H82.199ZM89.847 114L86.967 109.936H88.247L91.143 114H89.847ZM83.383 110L82.855 109.44H86.359C87.479 109.44 88.327 109.195 88.903 108.704C89.4897 108.213 89.783 107.525 89.783 106.64C89.783 105.744 89.4897 105.051 88.903 104.56C88.327 104.069 87.479 103.824 86.359 103.824H82.855L83.383 103.264V110ZM97.0895 114.08C96.2148 114.08 95.4468 113.899 94.7855 113.536C94.1242 113.163 93.6068 112.656 93.2335 112.016C92.8602 111.365 92.6735 110.624 92.6735 109.792C92.6735 108.96 92.8495 108.224 93.2015 107.584C93.5642 106.944 94.0548 106.443 94.6735 106.08C95.3028 105.707 96.0068 105.52 96.7855 105.52C97.5748 105.52 98.2735 105.701 98.8815 106.064C99.5002 106.416 99.9855 106.917 100.338 107.568C100.69 108.208 100.866 108.949 100.866 109.792C100.866 109.845 100.86 109.904 100.85 109.968C100.85 110.021 100.85 110.08 100.85 110.144H93.5375V109.296H100.242L99.7935 109.632C99.7935 109.024 99.6602 108.485 99.3935 108.016C99.1375 107.536 98.7855 107.163 98.3375 106.896C97.8895 106.629 97.3722 106.496 96.7855 106.496C96.2095 106.496 95.6922 106.629 95.2335 106.896C94.7748 107.163 94.4175 107.536 94.1615 108.016C93.9055 108.496 93.7775 109.045 93.7775 109.664V109.84C93.7775 110.48 93.9162 111.045 94.1935 111.536C94.4815 112.016 94.8762 112.395 95.3775 112.672C95.8895 112.939 96.4708 113.072 97.1215 113.072C97.6335 113.072 98.1082 112.981 98.5455 112.8C98.9935 112.619 99.3775 112.341 99.6975 111.968L100.338 112.704C99.9642 113.152 99.4948 113.493 98.9295 113.728C98.3748 113.963 97.7615 114.08 97.0895 114.08ZM105.434 114.08C104.74 114.08 104.084 113.984 103.466 113.792C102.847 113.589 102.362 113.339 102.01 113.04L102.522 112.144C102.863 112.4 103.3 112.624 103.834 112.816C104.367 112.997 104.927 113.088 105.514 113.088C106.314 113.088 106.89 112.965 107.242 112.72C107.594 112.464 107.77 112.128 107.77 111.712C107.77 111.403 107.668 111.163 107.466 110.992C107.274 110.811 107.018 110.677 106.698 110.592C106.378 110.496 106.02 110.416 105.626 110.352C105.231 110.288 104.836 110.213 104.442 110.128C104.058 110.043 103.706 109.92 103.386 109.76C103.066 109.589 102.804 109.36 102.602 109.072C102.41 108.784 102.314 108.4 102.314 107.92C102.314 107.461 102.442 107.051 102.698 106.688C102.954 106.325 103.327 106.043 103.818 105.84C104.319 105.627 104.927 105.52 105.642 105.52C106.186 105.52 106.73 105.595 107.274 105.744C107.818 105.883 108.266 106.069 108.618 106.304L108.122 107.216C107.748 106.96 107.348 106.779 106.922 106.672C106.495 106.555 106.068 106.496 105.642 106.496C104.884 106.496 104.324 106.629 103.962 106.896C103.61 107.152 103.434 107.483 103.434 107.888C103.434 108.208 103.53 108.459 103.722 108.64C103.924 108.821 104.186 108.965 104.506 109.072C104.836 109.168 105.194 109.248 105.578 109.312C105.972 109.376 106.362 109.456 106.746 109.552C107.14 109.637 107.498 109.76 107.818 109.92C108.148 110.069 108.41 110.288 108.602 110.576C108.804 110.853 108.906 111.221 108.906 111.68C108.906 112.171 108.767 112.597 108.49 112.96C108.223 113.312 107.828 113.589 107.306 113.792C106.794 113.984 106.17 114.08 105.434 114.08ZM114.558 114.08C113.684 114.08 112.916 113.899 112.254 113.536C111.593 113.163 111.076 112.656 110.702 112.016C110.329 111.365 110.142 110.624 110.142 109.792C110.142 108.96 110.318 108.224 110.67 107.584C111.033 106.944 111.524 106.443 112.142 106.08C112.772 105.707 113.476 105.52 114.254 105.52C115.044 105.52 115.742 105.701 116.35 106.064C116.969 106.416 117.454 106.917 117.806 107.568C118.158 108.208 118.334 108.949 118.334 109.792C118.334 109.845 118.329 109.904 118.318 109.968C118.318 110.021 118.318 110.08 118.318 110.144H111.006V109.296H117.71L117.262 109.632C117.262 109.024 117.129 108.485 116.862 108.016C116.606 107.536 116.254 107.163 115.806 106.896C115.358 106.629 114.841 106.496 114.254 106.496C113.678 106.496 113.161 106.629 112.702 106.896C112.244 107.163 111.886 107.536 111.63 108.016C111.374 108.496 111.246 109.045 111.246 109.664V109.84C111.246 110.48 111.385 111.045 111.662 111.536C111.95 112.016 112.345 112.395 112.846 112.672C113.358 112.939 113.94 113.072 114.59 113.072C115.102 113.072 115.577 112.981 116.014 112.8C116.462 112.619 116.846 112.341 117.166 111.968L117.806 112.704C117.433 113.152 116.964 113.493 116.398 113.728C115.844 113.963 115.23 114.08 114.558 114.08ZM120.647 114V105.6H121.735V107.888L121.623 107.488C121.857 106.848 122.252 106.363 122.807 106.032C123.361 105.691 124.049 105.52 124.871 105.52V106.624C124.828 106.624 124.785 106.624 124.743 106.624C124.7 106.613 124.657 106.608 124.615 106.608C123.729 106.608 123.036 106.88 122.535 107.424C122.033 107.957 121.783 108.72 121.783 109.712V114H120.647ZM129.463 114L125.735 105.6H126.919L130.343 113.392H129.783L133.255 105.6H134.375L130.631 114H129.463ZM139.308 114.08C138.434 114.08 137.666 113.899 137.004 113.536C136.343 113.163 135.826 112.656 135.452 112.016C135.079 111.365 134.892 110.624 134.892 109.792C134.892 108.96 135.068 108.224 135.42 107.584C135.783 106.944 136.274 106.443 136.892 106.08C137.522 105.707 138.226 105.52 139.004 105.52C139.794 105.52 140.492 105.701 141.1 106.064C141.719 106.416 142.204 106.917 142.556 107.568C142.908 108.208 143.084 108.949 143.084 109.792C143.084 109.845 143.079 109.904 143.068 109.968C143.068 110.021 143.068 110.08 143.068 110.144H135.756V109.296H142.46L142.012 109.632C142.012 109.024 141.879 108.485 141.612 108.016C141.356 107.536 141.004 107.163 140.556 106.896C140.108 106.629 139.591 106.496 139.004 106.496C138.428 106.496 137.911 106.629 137.452 106.896C136.994 107.163 136.636 107.536 136.38 108.016C136.124 108.496 135.996 109.045 135.996 109.664V109.84C135.996 110.48 136.135 111.045 136.412 111.536C136.7 112.016 137.095 112.395 137.596 112.672C138.108 112.939 138.69 113.072 139.34 113.072C139.852 113.072 140.327 112.981 140.764 112.8C141.212 112.619 141.596 112.341 141.916 111.968L142.556 112.704C142.183 113.152 141.714 113.493 141.148 113.728C140.594 113.963 139.98 114.08 139.308 114.08ZM148.741 114.08C147.941 114.08 147.221 113.899 146.581 113.536C145.951 113.173 145.455 112.672 145.093 112.032C144.73 111.381 144.549 110.635 144.549 109.792C144.549 108.939 144.73 108.192 145.093 107.552C145.455 106.912 145.951 106.416 146.581 106.064C147.221 105.701 147.941 105.52 148.741 105.52C149.477 105.52 150.133 105.685 150.709 106.016C151.295 106.347 151.759 106.832 152.101 107.472C152.453 108.101 152.628 108.875 152.628 109.792C152.628 110.699 152.458 111.472 152.117 112.112C151.775 112.752 151.311 113.243 150.725 113.584C150.149 113.915 149.487 114.08 148.741 114.08ZM148.821 113.072C149.418 113.072 149.951 112.939 150.421 112.672C150.901 112.395 151.274 112.011 151.541 111.52C151.818 111.019 151.957 110.443 151.957 109.792C151.957 109.131 151.818 108.555 151.541 108.064C151.274 107.573 150.901 107.195 150.421 106.928C149.951 106.651 149.418 106.512 148.821 106.512C148.234 106.512 147.706 106.651 147.237 106.928C146.767 107.195 146.394 107.573 146.117 108.064C145.839 108.555 145.701 109.131 145.701 109.792C145.701 110.443 145.839 111.019 146.117 111.52C146.394 112.011 146.767 112.395 147.237 112.672C147.706 112.939 148.234 113.072 148.821 113.072ZM151.989 114V111.472L152.101 109.776L151.941 108.08V102.128H153.077V114H151.989ZM156.352 114.08C156.118 114.08 155.915 113.995 155.744 113.824C155.584 113.653 155.504 113.445 155.504 113.2C155.504 112.944 155.584 112.736 155.744 112.576C155.915 112.416 156.118 112.336 156.352 112.336C156.587 112.336 156.784 112.416 156.944 112.576C157.115 112.736 157.2 112.944 157.2 113.2C157.2 113.445 157.115 113.653 156.944 113.824C156.784 113.995 156.587 114.08 156.352 114.08Z" fill="#FFCACA"/>
<path d="M70.788 21.5977C70.788 23.0546 71.9398 24.2064 73.4065 24.2064C74.8733 24.2064 76.0152 23.0546 76.0152 21.5977V14.7364L83.6837 4.38057C84.0282 3.90806 84.3629 3.26821 84.3629 2.53975C84.3629 1.11237 83.408 0 81.8133 0C80.7305 0 79.9429 0.610329 79.3031 1.55535L73.4361 9.94242L67.6576 1.62426C67.0079 0.669393 66.2697 0.0295308 65.0785 0.0295308C63.6216 0.0295308 62.4699 1.15175 62.4699 2.53975C62.4699 3.28789 62.7357 3.90806 63.1196 4.4101L70.788 14.8349V21.5977ZM35.0938 21.6666C35.0938 23.094 36.216 24.2064 37.6433 24.2064C39.0707 24.2064 40.2225 23.094 40.2225 21.6666V9.84399L44.7409 16.8037C45.2921 17.6207 45.9615 18.1326 46.9164 18.1326C47.8712 18.1326 48.5406 17.6207 49.0919 16.8037L53.6792 9.7357V21.5977C53.6792 23.0251 54.8309 24.2064 56.2583 24.2064C57.6857 24.2064 58.8768 23.0546 58.8768 21.5977V2.7071C58.8768 1.24034 57.7251 0.0885923 56.2583 0.0885923H55.6775C54.6242 0.0885923 53.8761 0.53157 53.3347 1.41753L46.9853 11.734L40.6753 1.45691C40.2028 0.669387 39.4153 0.0885923 38.293 0.0885923H37.7122C36.2455 0.0885923 35.0938 1.24034 35.0938 2.7071V21.6568V21.6666Z" fill="white"/>
<path d="M154.905 52.931C160.024 52.931 163.627 50.283 163.627 45.5677V45.4988C163.627 41.3545 160.91 39.622 156.086 38.3619C151.971 37.2988 150.967 36.8066 150.967 35.2316V35.1626C150.967 34.0109 152.021 33.0954 154.019 33.0954C155.643 33.0954 157.287 33.6762 159.02 34.6901C159.423 34.9264 159.827 35.0642 160.339 35.0642C161.697 35.0642 162.78 34.001 162.78 32.6524C162.78 31.6286 162.199 30.9199 161.628 30.5852C159.492 29.2267 156.982 28.4786 154.088 28.4786C149.235 28.4786 145.77 31.3333 145.77 35.6548V35.7237C145.77 40.439 148.861 41.768 153.645 42.9886C157.622 44.0025 158.439 44.6818 158.439 46.0107V46.0796C158.439 47.4676 157.149 48.3142 155.003 48.3142C152.69 48.3142 150.731 47.507 148.93 46.1781C148.595 45.9516 148.113 45.7055 147.433 45.7055C146.075 45.7055 144.992 46.7589 144.992 48.1075C144.992 48.9245 145.396 49.6727 145.976 50.0763C148.624 51.9762 151.784 52.9212 154.915 52.9212M126.318 52.5865H139.657C140.946 52.5865 142.009 51.5627 142.009 50.2732C142.009 48.9836 140.946 47.9303 139.657 47.9303H128.897V42.9295H137.963C139.253 42.9295 140.306 41.9058 140.306 40.6162C140.306 39.3266 139.253 38.2733 137.963 38.2733H128.897V33.4498H139.499C140.789 33.4498 141.842 32.426 141.842 31.1364C141.842 29.8469 140.789 28.7936 139.499 28.7936H126.318C124.851 28.7936 123.7 29.9355 123.7 31.4022V49.9385C123.7 51.4052 124.851 52.557 126.318 52.557V52.5865ZM112.536 50.1846C112.536 51.6415 113.688 52.7932 115.155 52.7932C116.622 52.7932 117.764 51.6415 117.764 50.1846V31.2349C117.764 29.7681 116.612 28.6164 115.155 28.6164C113.698 28.6164 112.536 29.7681 112.536 31.2349V50.1846ZM82.8174 50.2535C82.8174 51.6808 83.9397 52.7932 85.367 52.7932C86.7944 52.7932 87.9462 51.6808 87.9462 50.2535V38.4308L92.4646 45.3905C93.0158 46.2076 93.6852 46.7195 94.6401 46.7195C95.5949 46.7195 96.2643 46.2076 96.8156 45.3905L101.403 38.3226V50.1846C101.403 51.6119 102.555 52.7932 103.982 52.7932C105.409 52.7932 106.601 51.6415 106.601 50.1846V31.294C106.601 29.8272 105.449 28.6755 103.982 28.6755H103.401C102.348 28.6755 101.6 29.1184 101.058 30.0044L94.709 40.3209L88.399 30.0438C87.9265 29.2562 87.139 28.6755 86.0167 28.6755H85.436C83.9692 28.6755 82.8174 29.8272 82.8174 31.294V50.2436V50.2535ZM53.3446 50.2535C53.3446 51.6808 54.4668 52.7932 55.8941 52.7932C57.3215 52.7932 58.4733 51.6808 58.4733 50.2535V38.4308L62.9917 45.3905C63.5429 46.2076 64.2123 46.7195 65.1672 46.7195C66.122 46.7195 66.7914 46.2076 67.3427 45.3905L71.93 38.3226V50.1846C71.93 51.6119 73.0817 52.7932 74.5091 52.7932C75.9365 52.7932 77.1276 51.6415 77.1276 50.1846V31.294C77.1276 29.8272 75.9759 28.6755 74.5091 28.6755H73.9283C72.875 28.6755 72.1269 29.1184 71.5855 30.0044L65.2361 40.3209L58.9261 30.0438C58.4536 29.2562 57.6661 28.6755 56.5439 28.6755H55.9631C54.4963 28.6755 53.3446 29.8272 53.3446 31.294V50.2436V50.2535ZM37.5843 52.9704C43.9731 52.9704 48.0091 49.4364 48.0091 42.2405V31.2349C48.0091 29.7681 46.8672 28.6164 45.4005 28.6164C43.9337 28.6164 42.782 29.7681 42.782 31.2349V42.4373C42.782 46.2076 40.8427 48.1469 37.6631 48.1469C34.4835 48.1469 32.5344 46.1485 32.5344 42.27V31.225C32.5344 29.7583 31.3826 28.6065 29.9159 28.6065C28.4491 28.6065 27.3072 29.7583 27.3072 31.225V42.398C27.3072 49.3872 31.2054 52.9606 37.5843 52.9606V52.9704ZM12.492 52.9999C16.0654 52.9999 18.8709 51.8187 20.82 50.6177C22.0702 49.8794 22.651 48.8162 22.651 47.3003V41.5219C22.651 40.0551 21.4993 38.9034 20.0325 38.9034H14.0572C12.807 38.9034 11.7833 39.9271 11.7833 41.1872C11.7833 42.4472 12.807 43.4217 14.0572 43.4217H17.5912V46.8179C16.2721 47.7728 14.5691 48.2453 12.6692 48.2453C8.45598 48.2453 5.47326 45.0558 5.47326 40.7048V40.6359C5.47326 36.59 8.49536 33.2332 12.2951 33.2332C14.5396 33.2332 16.0654 33.8534 17.4928 34.8575C17.8668 35.1331 18.3393 35.4087 19.0875 35.4087C20.5149 35.4087 21.6666 34.257 21.6666 32.8296C21.6666 31.8058 21.0858 31.0971 20.5739 30.723C18.4378 29.2267 16.0555 28.4097 12.4625 28.4097C5.26653 28.4097 0 33.942 0 40.7048V40.7737C0 47.8122 5.08934 52.9999 12.492 52.9999Z" fill="white"/>
</svg>
