<svg width="30" height="30" viewBox="0 0 30 30" fill="none" xmlns="http://www.w3.org/2000/svg">
<g clip-path="url(#clip0_866_391)">
<rect x="0.5" y="0.5" width="29" height="29" rx="14.5" stroke="#090E34"/>
<path fill-rule="evenodd" clip-rule="evenodd" d="M18.7782 10.2929C19.1687 9.90237 19.8019 9.90237 20.1924 10.2929C20.5829 10.6834 20.5829 11.3166 20.1924 11.7071L16.8287 15.0708L20.5361 18.7782C20.9266 19.1687 20.9266 19.8019 20.5361 20.1924C20.1455 20.5829 19.5124 20.5829 19.1219 20.1924L15.4145 16.485L11.7071 20.1924C11.3166 20.5829 10.6834 20.5829 10.2929 20.1924C9.90237 19.8019 9.90237 19.1687 10.2929 18.7782L14.0003 15.0708L10.6366 11.7071C10.246 11.3166 10.246 10.6834 10.6366 10.2929C11.0271 9.90237 11.6603 9.90237 12.0508 10.2929L15.4145 13.6566L18.7782 10.2929Z" fill="#090E34"/>
</g>
<defs>
<clipPath id="clip0_866_391">
<rect width="30" height="30" fill="white"/>
</clipPath>
</defs>
</svg>
