<svg width="90" height="90" viewBox="0 0 90 90" fill="none" xmlns="http://www.w3.org/2000/svg">
<g clip-path="url(#clip0_462_4170)">
<path d="M11.3713 15.1002L25.1327 28.8615C25.0652 32.76 25.8329 36.8633 27.452 41.5776L27.4678 41.6222L29.567 47.3949C26.9431 50.0553 25.5706 53.6193 25.5706 57.8461C25.5706 68.5595 34.2865 77.2756 45 77.2756C52.7063 77.2756 59.3789 72.7657 62.5179 66.2467L74.8999 78.6287C66.654 85.9792 56.1367 90 45 90C32.9801 90 21.6795 85.3192 13.1801 76.8198C4.68092 68.3204 4.57764e-05 57.0199 4.57764e-05 45C4.57764e-05 33.8634 4.02087 23.3461 11.3713 15.1002Z" fill="white"/>
<path d="M45 0C57.0199 0 68.3204 4.68088 76.8197 13.1803C85.3191 21.6796 90 32.9801 90 45C90 56.1366 85.9792 66.654 78.6287 74.8999L64.2452 60.5164C64.3658 59.6431 64.4296 58.7521 64.4296 57.8461C64.4296 53.3974 62.9088 49.6833 60.0091 46.9839L62.5229 42.1835C67.6464 45 72.5839 43.7453 75.2783 39.6499C77.9989 35.5147 76.8818 29.8865 72.7878 27.1042L68.0279 23.869C64.8148 21.6274 60.7148 21.1277 57.0567 22.5323C53.395 23.9384 50.6816 27.0584 49.7971 30.8793L47.1067 42.2133C46.4189 42.1712 44.5152 42.1538 44.2742 42.1587V22.491C44.2742 17.5908 40.2875 13.6042 35.3872 13.6042C31.5079 13.6042 28.1048 16.1858 26.7177 20.1811C26.4681 20.9 26.2496 21.6155 26.0585 22.33L15.1001 11.3716C23.346 4.02082 33.8634 0 45 0V0Z" fill="white"/>
<path d="M34.0494 44.2913L32.4317 39.8428C29.9759 32.6827 29.7637 27.4855 31.6992 21.9106C32.4764 19.672 34.1716 18.8777 35.3869 18.8777C37.3794 18.8777 39.0005 20.4987 39.0005 22.491V42.7089C37.1943 43.0676 35.5353 43.598 34.0494 44.2913Z" fill="white"/>
<path d="M60.4438 34.786L55.5601 44.1119C54.5581 43.6727 53.481 43.3054 52.3371 43.0115L54.9334 32.0732C55.4286 29.9276 56.8915 28.2445 58.947 27.4552C61.0025 26.666 63.2159 26.9374 65.0198 28.2002L65.0496 28.2208L69.8235 31.4655C71.5485 32.6378 72.0192 35.0091 70.8727 36.7514C69.7374 38.4771 67.4605 38.9962 65.6897 37.9336L60.4438 34.786Z" fill="white"/>
<path d="M47.6366 71.752V66.7171L51.3022 63.0515L47.5734 59.3227L44.9999 61.8961L42.4265 59.3227L38.6976 63.0515L42.3632 66.7171V71.752C35.8138 70.5125 30.8439 64.7504 30.8439 57.8461C30.8439 54.3342 32.0814 51.7693 34.6274 50.0049C37.0659 48.3149 40.6527 47.4218 44.9997 47.4218C49.347 47.4218 52.9336 48.3151 55.3721 50.0049C57.9181 51.7692 59.1558 54.3342 59.1558 57.8461C59.1559 64.7504 54.1861 70.5127 47.6366 71.752Z" fill="white"/>
</g>
<defs>
<clipPath id="clip0_462_4170">
<rect width="90" height="90" fill="white" transform="matrix(-1 0 0 1 90 0)"/>
</clipPath>
</defs>
</svg>
