<svg width="90" height="90" viewBox="0 0 90 90" fill="none" xmlns="http://www.w3.org/2000/svg">
<g clip-path="url(#clip0_462_4181)">
<path d="M60.4951 64.2252C56.5049 67.6336 50.9502 68.24 47.6367 68.2576V76.8164C47.6367 78.2719 46.4555 79.4531 45 79.4531C43.5445 79.4531 42.3633 78.2719 42.3633 76.8164V68.2576C38.8389 68.2383 32.7762 67.5563 28.7613 63.5396C22.9342 57.7125 24.1242 47.5664 24.177 47.1375C24.3264 45.9404 25.2703 44.9965 26.4674 44.8471C26.5219 44.84 26.7381 44.8154 27.0809 44.7873C23.182 38.9074 24.1295 30.8303 24.177 30.4488C24.2596 29.7879 24.583 29.2043 25.0594 28.7895L11.3695 15.0996C4.01836 23.3438 0 33.8643 0 45C0 69.8718 20.1264 90 45 90C56.1357 90 66.6562 85.9816 74.9004 78.6305L60.4951 64.2252ZM45 0C33.8643 0 23.3438 4.01836 15.0996 11.3695L31.8902 28.1602C32.966 28.2674 34.135 28.4467 35.3268 28.7402C35.1334 27.8385 35.0244 26.9033 35.0244 25.9418C35.0244 17.7012 43.04 11.3678 43.3811 11.1023C44.3338 10.3623 45.6662 10.3623 46.6189 11.1023C46.96 11.3678 54.9756 17.7012 54.9756 25.9418C54.9756 26.9033 54.8666 27.8385 54.6732 28.7402C59.1434 27.6416 63.2637 28.125 63.5326 28.1584C64.7297 28.3078 65.6736 29.25 65.823 30.4488C65.8705 30.8303 66.818 38.9074 62.9191 44.7891C63.2619 44.8154 63.4781 44.84 63.5326 44.8471C64.7297 44.9965 65.6736 45.9404 65.823 47.1375C65.867 47.4891 66.6721 54.3568 63.7629 60.0328L78.6305 74.9004C85.9816 66.6562 90 56.1357 90 45C90 20.1282 69.8736 0 45 0Z" fill="white"/>
<path d="M60.6833 49.9869C60.5768 58.8215 56.6141 62.9253 47.686 62.9842C47.7036 60.3158 48.1765 55.8439 50.8589 53.1598C53.5431 50.4773 58.0167 50.0045 60.6833 49.9869Z" fill="white"/>
<path d="M42.3142 62.9842C39.6458 62.9666 35.1739 62.4955 32.4897 59.8113C29.8056 57.1271 29.3345 52.6553 29.3169 49.9869C31.9853 50.0062 36.4571 50.4773 39.1413 53.1598C41.8255 55.8439 42.2966 60.3176 42.3142 62.9842Z" fill="white"/>
<path d="M42.3142 46.2885C39.6405 46.2639 35.1546 45.7875 32.4897 43.1227C29.8056 40.4385 29.3345 35.9649 29.3169 33.2983C38.5825 33.3958 42.2569 37.7389 42.3142 46.2885Z" fill="white"/>
<path d="M47.686 46.2885C50.3597 46.2639 54.8456 45.7875 57.5105 43.1227C60.1946 40.4385 60.6657 35.9649 60.6833 33.2983C51.4177 33.3958 47.7433 37.7389 47.686 46.2885Z" fill="white"/>
<path d="M49.7021 25.9418C49.7021 29.3519 47.4052 32.6979 45 35.1334C42.5927 32.6805 40.2979 29.3628 40.2979 25.9418C40.2979 22.1466 43.1262 18.6504 45 16.7519C46.8738 18.6521 49.7021 22.1484 49.7021 25.9418Z" fill="white"/>
</g>
<defs>
<clipPath id="clip0_462_4181">
<rect width="90" height="90" fill="white"/>
</clipPath>
</defs>
</svg>
