<svg width="1900" height="219" viewBox="0 0 1900 219" fill="none" xmlns="http://www.w3.org/2000/svg">
<path d="M156.464 143.048C155.664 143.048 154.923 142.904 154.24 142.616C153.557 142.328 152.96 141.928 152.448 141.416C151.936 140.893 151.536 140.291 151.248 139.608C150.971 138.925 150.832 138.189 150.832 137.4C150.832 136.611 150.976 135.875 151.264 135.192C151.552 134.509 151.952 133.912 152.464 133.4C152.976 132.877 153.573 132.472 154.256 132.184C154.949 131.896 155.696 131.752 156.496 131.752C157.296 131.752 158.037 131.896 158.72 132.184C159.413 132.461 160.011 132.856 160.512 133.368C161.024 133.88 161.419 134.477 161.696 135.16C161.984 135.832 162.128 136.568 162.128 137.368C162.128 138.168 161.984 138.915 161.696 139.608C161.408 140.291 161.003 140.893 160.48 141.416C159.968 141.928 159.371 142.328 158.688 142.616C158.005 142.904 157.264 143.048 156.464 143.048ZM156.448 142.456C157.173 142.456 157.84 142.328 158.448 142.072C159.056 141.805 159.589 141.443 160.048 140.984C160.517 140.525 160.88 139.987 161.136 139.368C161.392 138.739 161.52 138.072 161.52 137.368C161.52 136.653 161.392 135.992 161.136 135.384C160.891 134.776 160.539 134.243 160.08 133.784C159.632 133.325 159.099 132.973 158.48 132.728C157.872 132.472 157.211 132.344 156.496 132.344C155.771 132.344 155.099 132.472 154.48 132.728C153.861 132.984 153.323 133.347 152.864 133.816C152.416 134.275 152.064 134.808 151.808 135.416C151.552 136.024 151.424 136.685 151.424 137.4C151.424 138.104 151.552 138.765 151.808 139.384C152.064 139.992 152.416 140.531 152.864 141C153.323 141.459 153.856 141.816 154.464 142.072C155.083 142.328 155.744 142.456 156.448 142.456ZM156.608 140.728C155.968 140.728 155.397 140.589 154.896 140.312C154.395 140.024 154 139.629 153.712 139.128C153.424 138.627 153.28 138.051 153.28 137.4C153.28 136.749 153.424 136.173 153.712 135.672C154 135.171 154.395 134.781 154.896 134.504C155.397 134.216 155.968 134.072 156.608 134.072C157.152 134.072 157.643 134.184 158.08 134.408C158.528 134.621 158.885 134.92 159.152 135.304L158.464 135.816C158.24 135.507 157.968 135.277 157.648 135.128C157.328 134.979 156.976 134.904 156.592 134.904C156.133 134.904 155.723 135.011 155.36 135.224C155.008 135.427 154.725 135.715 154.512 136.088C154.299 136.461 154.192 136.899 154.192 137.4C154.192 137.901 154.299 138.339 154.512 138.712C154.725 139.085 155.008 139.379 155.36 139.592C155.723 139.795 156.133 139.896 156.592 139.896C156.976 139.896 157.328 139.821 157.648 139.672C157.968 139.523 158.24 139.293 158.464 138.984L159.152 139.48C158.885 139.875 158.528 140.184 158.08 140.408C157.643 140.621 157.152 140.728 156.608 140.728ZM167.749 143V142.184L172.405 137.624C172.832 137.208 173.152 136.845 173.365 136.536C173.578 136.216 173.722 135.917 173.797 135.64C173.872 135.363 173.909 135.101 173.909 134.856C173.909 134.205 173.685 133.693 173.237 133.32C172.8 132.947 172.149 132.76 171.285 132.76C170.624 132.76 170.037 132.861 169.525 133.064C169.024 133.267 168.592 133.581 168.229 134.008L167.413 133.304C167.85 132.792 168.41 132.397 169.093 132.12C169.776 131.843 170.538 131.704 171.381 131.704C172.138 131.704 172.794 131.827 173.349 132.072C173.904 132.307 174.33 132.653 174.629 133.112C174.938 133.571 175.093 134.109 175.093 134.728C175.093 135.091 175.04 135.448 174.933 135.8C174.837 136.152 174.656 136.525 174.389 136.92C174.133 137.304 173.754 137.741 173.253 138.232L168.981 142.424L168.661 141.976H175.605V143H167.749ZM181.484 143.096C180.62 143.096 179.852 142.872 179.18 142.424C178.508 141.965 177.98 141.315 177.596 140.472C177.212 139.619 177.02 138.595 177.02 137.4C177.02 136.205 177.212 135.187 177.596 134.344C177.98 133.491 178.508 132.84 179.18 132.392C179.852 131.933 180.62 131.704 181.484 131.704C182.348 131.704 183.116 131.933 183.788 132.392C184.46 132.84 184.988 133.491 185.372 134.344C185.766 135.187 185.964 136.205 185.964 137.4C185.964 138.595 185.766 139.619 185.372 140.472C184.988 141.315 184.46 141.965 183.788 142.424C183.116 142.872 182.348 143.096 181.484 143.096ZM181.484 142.04C182.145 142.04 182.721 141.864 183.212 141.512C183.702 141.149 184.086 140.627 184.364 139.944C184.641 139.251 184.78 138.403 184.78 137.4C184.78 136.397 184.641 135.555 184.364 134.872C184.086 134.179 183.702 133.656 183.212 133.304C182.721 132.941 182.145 132.76 181.484 132.76C180.844 132.76 180.273 132.941 179.772 133.304C179.27 133.656 178.881 134.179 178.604 134.872C178.326 135.555 178.188 136.397 178.188 137.4C178.188 138.403 178.326 139.251 178.604 139.944C178.881 140.627 179.27 141.149 179.772 141.512C180.273 141.864 180.844 142.04 181.484 142.04ZM187.405 143V142.184L192.061 137.624C192.488 137.208 192.808 136.845 193.021 136.536C193.235 136.216 193.379 135.917 193.453 135.64C193.528 135.363 193.565 135.101 193.565 134.856C193.565 134.205 193.341 133.693 192.893 133.32C192.456 132.947 191.805 132.76 190.941 132.76C190.28 132.76 189.693 132.861 189.181 133.064C188.68 133.267 188.248 133.581 187.885 134.008L187.069 133.304C187.507 132.792 188.067 132.397 188.749 132.12C189.432 131.843 190.195 131.704 191.037 131.704C191.795 131.704 192.451 131.827 193.005 132.072C193.56 132.307 193.987 132.653 194.285 133.112C194.595 133.571 194.749 134.109 194.749 134.728C194.749 135.091 194.696 135.448 194.589 135.8C194.493 136.152 194.312 136.525 194.045 136.92C193.789 137.304 193.411 137.741 192.909 138.232L188.637 142.424L188.317 141.976H195.261V143H187.405ZM196.499 143V142.184L201.155 137.624C201.582 137.208 201.902 136.845 202.115 136.536C202.328 136.216 202.472 135.917 202.547 135.64C202.622 135.363 202.659 135.101 202.659 134.856C202.659 134.205 202.435 133.693 201.987 133.32C201.55 132.947 200.899 132.76 200.035 132.76C199.374 132.76 198.787 132.861 198.275 133.064C197.774 133.267 197.342 133.581 196.979 134.008L196.163 133.304C196.6 132.792 197.16 132.397 197.843 132.12C198.526 131.843 199.288 131.704 200.131 131.704C200.888 131.704 201.544 131.827 202.099 132.072C202.654 132.307 203.08 132.653 203.379 133.112C203.688 133.571 203.843 134.109 203.843 134.728C203.843 135.091 203.79 135.448 203.683 135.8C203.587 136.152 203.406 136.525 203.139 136.92C202.883 137.304 202.504 137.741 202.003 138.232L197.731 142.424L197.411 141.976H204.355V143H196.499ZM210.98 143V131.8H212.164V143H210.98ZM218.896 143.096C218.064 143.096 217.264 142.963 216.496 142.696C215.739 142.419 215.152 142.067 214.736 141.64L215.2 140.728C215.595 141.112 216.123 141.437 216.784 141.704C217.456 141.96 218.16 142.088 218.896 142.088C219.6 142.088 220.171 142.003 220.608 141.832C221.056 141.651 221.382 141.411 221.584 141.112C221.798 140.813 221.904 140.483 221.904 140.12C221.904 139.683 221.776 139.331 221.52 139.064C221.275 138.797 220.95 138.589 220.544 138.44C220.139 138.28 219.691 138.141 219.2 138.024C218.71 137.907 218.219 137.784 217.728 137.656C217.238 137.517 216.784 137.336 216.368 137.112C215.963 136.888 215.632 136.595 215.376 136.232C215.131 135.859 215.008 135.373 215.008 134.776C215.008 134.221 215.152 133.715 215.44 133.256C215.739 132.787 216.192 132.413 216.8 132.136C217.408 131.848 218.187 131.704 219.136 131.704C219.766 131.704 220.39 131.795 221.008 131.976C221.627 132.147 222.16 132.387 222.608 132.696L222.208 133.64C221.728 133.32 221.216 133.085 220.672 132.936C220.139 132.787 219.622 132.712 219.12 132.712C218.448 132.712 217.894 132.803 217.456 132.984C217.019 133.165 216.694 133.411 216.48 133.72C216.278 134.019 216.176 134.36 216.176 134.744C216.176 135.181 216.299 135.533 216.544 135.8C216.8 136.067 217.131 136.275 217.536 136.424C217.952 136.573 218.406 136.707 218.896 136.824C219.387 136.941 219.872 137.069 220.352 137.208C220.843 137.347 221.291 137.528 221.696 137.752C222.112 137.965 222.443 138.253 222.688 138.616C222.944 138.979 223.072 139.453 223.072 140.04C223.072 140.584 222.923 141.091 222.624 141.56C222.326 142.019 221.867 142.392 221.248 142.68C220.64 142.957 219.856 143.096 218.896 143.096ZM229.84 143V131.8H234.4C235.594 131.8 236.64 132.04 237.536 132.52C238.442 132.989 239.146 133.645 239.648 134.488C240.149 135.331 240.4 136.301 240.4 137.4C240.4 138.499 240.149 139.469 239.648 140.312C239.146 141.155 238.442 141.816 237.536 142.296C236.64 142.765 235.594 143 234.4 143H229.84ZM231.024 141.976H234.336C235.328 141.976 236.186 141.784 236.912 141.4C237.648 141.005 238.218 140.467 238.624 139.784C239.029 139.091 239.232 138.296 239.232 137.4C239.232 136.493 239.029 135.699 238.624 135.016C238.218 134.333 237.648 133.8 236.912 133.416C236.186 133.021 235.328 132.824 234.336 132.824H231.024V141.976ZM243.058 143V131.8H244.242V143H243.058ZM250.975 143.096C250.143 143.096 249.343 142.963 248.575 142.696C247.817 142.419 247.231 142.067 246.815 141.64L247.279 140.728C247.673 141.112 248.201 141.437 248.863 141.704C249.535 141.96 250.239 142.088 250.975 142.088C251.679 142.088 252.249 142.003 252.687 141.832C253.135 141.651 253.46 141.411 253.663 141.112C253.876 140.813 253.983 140.483 253.983 140.12C253.983 139.683 253.855 139.331 253.599 139.064C253.353 138.797 253.028 138.589 252.623 138.44C252.217 138.28 251.769 138.141 251.279 138.024C250.788 137.907 250.297 137.784 249.807 137.656C249.316 137.517 248.863 137.336 248.447 137.112C248.041 136.888 247.711 136.595 247.455 136.232C247.209 135.859 247.087 135.373 247.087 134.776C247.087 134.221 247.231 133.715 247.519 133.256C247.817 132.787 248.271 132.413 248.879 132.136C249.487 131.848 250.265 131.704 251.215 131.704C251.844 131.704 252.468 131.795 253.087 131.976C253.705 132.147 254.239 132.387 254.687 132.696L254.286 133.64C253.807 133.32 253.295 133.085 252.751 132.936C252.217 132.787 251.7 132.712 251.199 132.712C250.527 132.712 249.972 132.803 249.535 132.984C249.097 133.165 248.772 133.411 248.559 133.72C248.356 134.019 248.255 134.36 248.255 134.744C248.255 135.181 248.377 135.533 248.623 135.8C248.879 136.067 249.209 136.275 249.615 136.424C250.031 136.573 250.484 136.707 250.975 136.824C251.465 136.941 251.951 137.069 252.431 137.208C252.921 137.347 253.369 137.528 253.775 137.752C254.191 137.965 254.521 138.253 254.767 138.616C255.023 138.979 255.151 139.453 255.151 140.04C255.151 140.584 255.001 141.091 254.703 141.56C254.404 142.019 253.945 142.392 253.327 142.68C252.719 142.957 251.935 143.096 250.975 143.096ZM259.75 143V132.824H255.814V131.8H264.87V132.824H260.934V143H259.75ZM266.762 143V131.8H270.954C271.903 131.8 272.719 131.955 273.402 132.264C274.084 132.563 274.607 133 274.97 133.576C275.343 134.141 275.53 134.829 275.53 135.64C275.53 136.429 275.343 137.112 274.97 137.688C274.607 138.253 274.084 138.691 273.402 139C272.719 139.299 271.903 139.448 270.954 139.448H267.418L267.946 138.904V143H266.762ZM274.41 143L271.53 138.936H272.81L275.706 143H274.41ZM267.946 139L267.418 138.44H270.922C272.042 138.44 272.89 138.195 273.466 137.704C274.052 137.213 274.345 136.525 274.345 135.64C274.345 134.744 274.052 134.051 273.466 133.56C272.89 133.069 272.042 132.824 270.922 132.824H267.418L267.946 132.264V139ZM278.324 143V131.8H279.508V143H278.324ZM283.152 143V131.8H287.984C289.232 131.8 290.197 132.051 290.88 132.552C291.573 133.053 291.92 133.763 291.92 134.68C291.92 135.288 291.776 135.8 291.488 136.216C291.211 136.632 290.827 136.947 290.336 137.16C289.856 137.373 289.328 137.48 288.752 137.48L289.024 137.096C289.739 137.096 290.352 137.208 290.864 137.432C291.387 137.645 291.792 137.971 292.08 138.408C292.368 138.835 292.512 139.368 292.512 140.008C292.512 140.957 292.16 141.693 291.456 142.216C290.763 142.739 289.712 143 288.304 143H283.152ZM284.336 142.024H288.288C289.269 142.024 290.021 141.859 290.544 141.528C291.067 141.187 291.328 140.648 291.328 139.912C291.328 139.187 291.067 138.659 290.544 138.328C290.021 137.987 289.269 137.816 288.288 137.816H284.208V136.84H287.904C288.8 136.84 289.493 136.669 289.984 136.328C290.485 135.987 290.736 135.48 290.736 134.808C290.736 134.125 290.485 133.619 289.984 133.288C289.493 132.947 288.8 132.776 287.904 132.776H284.336V142.024ZM299.727 143.096C298.297 143.096 297.172 142.685 296.351 141.864C295.529 141.043 295.119 139.827 295.119 138.216V131.8H296.303V138.168C296.303 139.491 296.601 140.467 297.199 141.096C297.796 141.725 298.639 142.04 299.727 142.04C300.825 142.04 301.673 141.725 302.271 141.096C302.868 140.467 303.167 139.491 303.167 138.168V131.8H304.319V138.216C304.319 139.827 303.908 141.043 303.087 141.864C302.276 142.685 301.156 143.096 299.727 143.096ZM309.844 143V132.824H305.908V131.8H314.964V132.824H311.028V143H309.844ZM316.855 143V131.8H318.039V143H316.855ZM326.579 143.096C325.737 143.096 324.953 142.957 324.227 142.68C323.513 142.392 322.889 141.992 322.355 141.48C321.833 140.957 321.422 140.355 321.123 139.672C320.835 138.979 320.691 138.221 320.691 137.4C320.691 136.579 320.835 135.827 321.123 135.144C321.422 134.451 321.833 133.848 322.355 133.336C322.889 132.813 323.513 132.413 324.227 132.136C324.942 131.848 325.726 131.704 326.579 131.704C327.422 131.704 328.201 131.848 328.915 132.136C329.63 132.413 330.249 132.808 330.771 133.32C331.305 133.832 331.715 134.435 332.003 135.128C332.302 135.821 332.451 136.579 332.451 137.4C332.451 138.221 332.302 138.979 332.003 139.672C331.715 140.365 331.305 140.968 330.771 141.48C330.249 141.992 329.63 142.392 328.915 142.68C328.201 142.957 327.422 143.096 326.579 143.096ZM326.579 142.04C327.251 142.04 327.87 141.928 328.435 141.704C329.011 141.469 329.507 141.144 329.923 140.728C330.35 140.301 330.681 139.811 330.915 139.256C331.15 138.691 331.267 138.072 331.267 137.4C331.267 136.728 331.15 136.115 330.915 135.56C330.681 134.995 330.35 134.504 329.923 134.088C329.507 133.661 329.011 133.336 328.435 133.112C327.87 132.877 327.251 132.76 326.579 132.76C325.907 132.76 325.283 132.877 324.707 133.112C324.131 133.336 323.63 133.661 323.203 134.088C322.787 134.504 322.457 134.995 322.211 135.56C321.977 136.115 321.859 136.728 321.859 137.4C321.859 138.061 321.977 138.675 322.211 139.24C322.457 139.805 322.787 140.301 323.203 140.728C323.63 141.144 324.131 141.469 324.707 141.704C325.283 141.928 325.907 142.04 326.579 142.04ZM335.105 143V131.8H336.081L343.809 141.528H343.297V131.8H344.465V143H343.489L335.777 133.272H336.289V143H335.105ZM352.308 143V131.8H353.492V141.976H359.764V143H352.308ZM362.859 143V132.824H358.923V131.8H367.979V132.824H364.043V143H362.859ZM369.871 143V131.8H374.431C375.626 131.8 376.671 132.04 377.567 132.52C378.474 132.989 379.178 133.645 379.679 134.488C380.18 135.331 380.431 136.301 380.431 137.4C380.431 138.499 380.18 139.469 379.679 140.312C379.178 141.155 378.474 141.816 377.567 142.296C376.671 142.765 375.626 143 374.431 143H369.871ZM371.055 141.976H374.367C375.359 141.976 376.218 141.784 376.943 141.4C377.679 141.005 378.25 140.467 378.655 139.784C379.06 139.091 379.263 138.296 379.263 137.4C379.263 136.493 379.06 135.699 378.655 135.016C378.25 134.333 377.679 133.8 376.943 133.416C376.218 133.021 375.359 132.824 374.367 132.824H371.055V141.976ZM387.277 143V131.8H388.461V143H387.277ZM396.153 134.52C396.836 134.52 397.433 134.653 397.945 134.92C398.468 135.176 398.873 135.571 399.161 136.104C399.46 136.637 399.609 137.309 399.609 138.12V143H398.473V138.232C398.473 137.347 398.249 136.68 397.801 136.232C397.364 135.773 396.745 135.544 395.945 135.544C395.348 135.544 394.825 135.667 394.377 135.912C393.94 136.147 393.599 136.493 393.353 136.952C393.119 137.4 393.001 137.944 393.001 138.584V143H391.865V134.6H392.953V136.904L392.777 136.472C393.044 135.864 393.471 135.389 394.057 135.048C394.644 134.696 395.343 134.52 396.153 134.52ZM406.166 143.08C405.334 143.08 404.587 142.899 403.926 142.536C403.275 142.163 402.763 141.656 402.39 141.016C402.016 140.365 401.83 139.624 401.83 138.792C401.83 137.949 402.016 137.208 402.39 136.568C402.763 135.928 403.275 135.427 403.926 135.064C404.587 134.701 405.334 134.52 406.166 134.52C406.88 134.52 407.526 134.659 408.102 134.936C408.678 135.213 409.131 135.629 409.462 136.184L408.614 136.76C408.326 136.333 407.968 136.019 407.542 135.816C407.115 135.613 406.651 135.512 406.15 135.512C405.552 135.512 405.014 135.651 404.534 135.928C404.054 136.195 403.675 136.573 403.398 137.064C403.12 137.555 402.982 138.131 402.982 138.792C402.982 139.453 403.12 140.029 403.398 140.52C403.675 141.011 404.054 141.395 404.534 141.672C405.014 141.939 405.552 142.072 406.15 142.072C406.651 142.072 407.115 141.971 407.542 141.768C407.968 141.565 408.326 141.256 408.614 140.84L409.462 141.416C409.131 141.96 408.678 142.376 408.102 142.664C407.526 142.941 406.88 143.08 406.166 143.08ZM412.118 143.08C411.883 143.08 411.681 142.995 411.51 142.824C411.35 142.653 411.27 142.445 411.27 142.2C411.27 141.944 411.35 141.736 411.51 141.576C411.681 141.416 411.883 141.336 412.118 141.336C412.353 141.336 412.55 141.416 412.71 141.576C412.881 141.736 412.966 141.944 412.966 142.2C412.966 142.445 412.881 142.653 412.71 142.824C412.55 142.995 412.353 143.08 412.118 143.08ZM150.032 164L155.152 152.8H156.32L161.44 164H160.192L155.488 153.488H155.968L151.264 164H150.032ZM152.048 161.008L152.4 160.048H158.912L159.264 161.008H152.048ZM163.053 164V152.128H164.189V164H163.053ZM167.35 164V152.128H168.486V164H167.35ZM176.074 164V152.8H180.266C181.215 152.8 182.031 152.955 182.714 153.264C183.397 153.563 183.919 154 184.282 154.576C184.655 155.141 184.842 155.829 184.842 156.64C184.842 157.429 184.655 158.112 184.282 158.688C183.919 159.253 183.397 159.691 182.714 160C182.031 160.299 181.215 160.448 180.266 160.448H176.73L177.258 159.904V164H176.074ZM183.722 164L180.842 159.936H182.122L185.018 164H183.722ZM177.258 160L176.73 159.44H180.234C181.354 159.44 182.202 159.195 182.778 158.704C183.365 158.213 183.658 157.525 183.658 156.64C183.658 155.744 183.365 155.051 182.778 154.56C182.202 154.069 181.354 153.824 180.234 153.824H176.73L177.258 153.264V160ZM187.397 164V155.6H188.533V164H187.397ZM187.973 153.744C187.738 153.744 187.541 153.664 187.381 153.504C187.221 153.344 187.141 153.152 187.141 152.928C187.141 152.704 187.221 152.517 187.381 152.368C187.541 152.208 187.738 152.128 187.973 152.128C188.207 152.128 188.405 152.203 188.565 152.352C188.725 152.501 188.805 152.688 188.805 152.912C188.805 153.147 188.725 153.344 188.565 153.504C188.415 153.664 188.218 153.744 187.973 153.744ZM195.277 167.184C194.509 167.184 193.773 167.072 193.069 166.848C192.365 166.624 191.795 166.304 191.357 165.888L191.933 165.024C192.328 165.376 192.813 165.653 193.389 165.856C193.976 166.069 194.595 166.176 195.245 166.176C196.312 166.176 197.096 165.925 197.597 165.424C198.099 164.933 198.349 164.165 198.349 163.12V161.024L198.509 159.584L198.397 158.144V155.6H199.485V162.976C199.485 164.427 199.128 165.488 198.413 166.16C197.709 166.843 196.664 167.184 195.277 167.184ZM195.069 163.68C194.269 163.68 193.549 163.509 192.909 163.168C192.269 162.816 191.763 162.331 191.389 161.712C191.027 161.093 190.845 160.384 190.845 159.584C190.845 158.784 191.027 158.08 191.389 157.472C191.763 156.853 192.269 156.373 192.909 156.032C193.549 155.691 194.269 155.52 195.069 155.52C195.816 155.52 196.488 155.675 197.085 155.984C197.683 156.293 198.157 156.752 198.509 157.36C198.861 157.968 199.037 158.709 199.037 159.584C199.037 160.459 198.861 161.2 198.509 161.808C198.157 162.416 197.683 162.88 197.085 163.2C196.488 163.52 195.816 163.68 195.069 163.68ZM195.181 162.672C195.8 162.672 196.349 162.544 196.829 162.288C197.309 162.021 197.688 161.659 197.965 161.2C198.243 160.731 198.381 160.192 198.381 159.584C198.381 158.976 198.243 158.443 197.965 157.984C197.688 157.525 197.309 157.168 196.829 156.912C196.349 156.645 195.8 156.512 195.181 156.512C194.573 156.512 194.024 156.645 193.533 156.912C193.053 157.168 192.675 157.525 192.397 157.984C192.131 158.443 191.997 158.976 191.997 159.584C191.997 160.192 192.131 160.731 192.397 161.2C192.675 161.659 193.053 162.021 193.533 162.288C194.024 162.544 194.573 162.672 195.181 162.672ZM206.935 155.52C207.617 155.52 208.215 155.653 208.727 155.92C209.249 156.176 209.655 156.571 209.943 157.104C210.241 157.637 210.391 158.309 210.391 159.12V164H209.255V159.232C209.255 158.347 209.031 157.68 208.583 157.232C208.145 156.773 207.527 156.544 206.727 156.544C206.129 156.544 205.607 156.667 205.159 156.912C204.721 157.147 204.38 157.493 204.135 157.952C203.9 158.4 203.783 158.944 203.783 159.584V164H202.647V152.128H203.783V157.904L203.559 157.472C203.825 156.864 204.252 156.389 204.839 156.048C205.425 155.696 206.124 155.52 206.935 155.52ZM216.115 164.08C215.326 164.08 214.718 163.867 214.291 163.44C213.864 163.013 213.651 162.411 213.651 161.632V153.744H214.787V161.568C214.787 162.059 214.91 162.437 215.155 162.704C215.411 162.971 215.774 163.104 216.243 163.104C216.744 163.104 217.16 162.96 217.491 162.672L217.891 163.488C217.667 163.691 217.395 163.84 217.075 163.936C216.766 164.032 216.446 164.08 216.115 164.08ZM212.147 156.544V155.6H217.347V156.544H212.147ZM222.215 164.08C221.522 164.08 220.866 163.984 220.247 163.792C219.628 163.589 219.143 163.339 218.791 163.04L219.303 162.144C219.644 162.4 220.082 162.624 220.615 162.816C221.148 162.997 221.708 163.088 222.295 163.088C223.095 163.088 223.671 162.965 224.023 162.72C224.375 162.464 224.551 162.128 224.551 161.712C224.551 161.403 224.45 161.163 224.247 160.992C224.055 160.811 223.799 160.677 223.479 160.592C223.159 160.496 222.802 160.416 222.407 160.352C222.012 160.288 221.618 160.213 221.223 160.128C220.839 160.043 220.487 159.92 220.167 159.76C219.847 159.589 219.586 159.36 219.383 159.072C219.191 158.784 219.095 158.4 219.095 157.92C219.095 157.461 219.223 157.051 219.479 156.688C219.735 156.325 220.108 156.043 220.599 155.84C221.1 155.627 221.708 155.52 222.423 155.52C222.967 155.52 223.511 155.595 224.055 155.744C224.599 155.883 225.047 156.069 225.399 156.304L224.903 157.216C224.53 156.96 224.13 156.779 223.703 156.672C223.276 156.555 222.85 156.496 222.423 156.496C221.666 156.496 221.106 156.629 220.743 156.896C220.391 157.152 220.215 157.483 220.215 157.888C220.215 158.208 220.311 158.459 220.503 158.64C220.706 158.821 220.967 158.965 221.287 159.072C221.618 159.168 221.975 159.248 222.359 159.312C222.754 159.376 223.143 159.456 223.527 159.552C223.922 159.637 224.279 159.76 224.599 159.92C224.93 160.069 225.191 160.288 225.383 160.576C225.586 160.853 225.687 161.221 225.687 161.68C225.687 162.171 225.548 162.597 225.271 162.96C225.004 163.312 224.61 163.589 224.087 163.792C223.575 163.984 222.951 164.08 222.215 164.08ZM232.199 164V152.8H236.391C237.34 152.8 238.156 152.955 238.839 153.264C239.522 153.563 240.044 154 240.407 154.576C240.78 155.141 240.967 155.829 240.967 156.64C240.967 157.429 240.78 158.112 240.407 158.688C240.044 159.253 239.522 159.691 238.839 160C238.156 160.299 237.34 160.448 236.391 160.448H232.855L233.383 159.904V164H232.199ZM239.847 164L236.967 159.936H238.247L241.143 164H239.847ZM233.383 160L232.855 159.44H236.359C237.479 159.44 238.327 159.195 238.903 158.704C239.49 158.213 239.783 157.525 239.783 156.64C239.783 155.744 239.49 155.051 238.903 154.56C238.327 154.069 237.479 153.824 236.359 153.824H232.855L233.383 153.264V160ZM247.09 164.08C246.215 164.08 245.447 163.899 244.786 163.536C244.124 163.163 243.607 162.656 243.234 162.016C242.86 161.365 242.674 160.624 242.674 159.792C242.674 158.96 242.85 158.224 243.202 157.584C243.564 156.944 244.055 156.443 244.674 156.08C245.303 155.707 246.007 155.52 246.786 155.52C247.575 155.52 248.274 155.701 248.882 156.064C249.5 156.416 249.986 156.917 250.338 157.568C250.69 158.208 250.866 158.949 250.866 159.792C250.866 159.845 250.86 159.904 250.85 159.968C250.85 160.021 250.85 160.08 250.85 160.144H243.538V159.296H250.242L249.794 159.632C249.794 159.024 249.66 158.485 249.394 158.016C249.138 157.536 248.786 157.163 248.338 156.896C247.89 156.629 247.372 156.496 246.786 156.496C246.21 156.496 245.692 156.629 245.234 156.896C244.775 157.163 244.418 157.536 244.162 158.016C243.906 158.496 243.778 159.045 243.778 159.664V159.84C243.778 160.48 243.916 161.045 244.194 161.536C244.482 162.016 244.876 162.395 245.378 162.672C245.89 162.939 246.471 163.072 247.122 163.072C247.634 163.072 248.108 162.981 248.546 162.8C248.994 162.619 249.378 162.341 249.698 161.968L250.338 162.704C249.964 163.152 249.495 163.493 248.93 163.728C248.375 163.963 247.762 164.08 247.09 164.08ZM255.434 164.08C254.74 164.08 254.084 163.984 253.466 163.792C252.847 163.589 252.362 163.339 252.01 163.04L252.522 162.144C252.863 162.4 253.3 162.624 253.834 162.816C254.367 162.997 254.927 163.088 255.514 163.088C256.314 163.088 256.89 162.965 257.242 162.72C257.594 162.464 257.77 162.128 257.77 161.712C257.77 161.403 257.668 161.163 257.466 160.992C257.274 160.811 257.018 160.677 256.698 160.592C256.378 160.496 256.02 160.416 255.626 160.352C255.231 160.288 254.836 160.213 254.442 160.128C254.058 160.043 253.706 159.92 253.386 159.76C253.066 159.589 252.804 159.36 252.602 159.072C252.41 158.784 252.314 158.4 252.314 157.92C252.314 157.461 252.442 157.051 252.698 156.688C252.954 156.325 253.327 156.043 253.818 155.84C254.319 155.627 254.927 155.52 255.642 155.52C256.186 155.52 256.73 155.595 257.274 155.744C257.818 155.883 258.266 156.069 258.618 156.304L258.122 157.216C257.748 156.96 257.348 156.779 256.922 156.672C256.495 156.555 256.068 156.496 255.642 156.496C254.884 156.496 254.324 156.629 253.962 156.896C253.61 157.152 253.434 157.483 253.434 157.888C253.434 158.208 253.53 158.459 253.722 158.64C253.924 158.821 254.186 158.965 254.506 159.072C254.836 159.168 255.194 159.248 255.578 159.312C255.972 159.376 256.362 159.456 256.746 159.552C257.14 159.637 257.498 159.76 257.818 159.92C258.148 160.069 258.41 160.288 258.602 160.576C258.804 160.853 258.906 161.221 258.906 161.68C258.906 162.171 258.767 162.597 258.49 162.96C258.223 163.312 257.828 163.589 257.306 163.792C256.794 163.984 256.17 164.08 255.434 164.08ZM264.558 164.08C263.684 164.08 262.916 163.899 262.254 163.536C261.593 163.163 261.076 162.656 260.702 162.016C260.329 161.365 260.142 160.624 260.142 159.792C260.142 158.96 260.318 158.224 260.67 157.584C261.033 156.944 261.524 156.443 262.142 156.08C262.772 155.707 263.476 155.52 264.254 155.52C265.044 155.52 265.742 155.701 266.35 156.064C266.969 156.416 267.454 156.917 267.806 157.568C268.158 158.208 268.334 158.949 268.334 159.792C268.334 159.845 268.329 159.904 268.318 159.968C268.318 160.021 268.318 160.08 268.318 160.144H261.006V159.296H267.71L267.262 159.632C267.262 159.024 267.129 158.485 266.862 158.016C266.606 157.536 266.254 157.163 265.806 156.896C265.358 156.629 264.841 156.496 264.254 156.496C263.678 156.496 263.161 156.629 262.702 156.896C262.244 157.163 261.886 157.536 261.63 158.016C261.374 158.496 261.246 159.045 261.246 159.664V159.84C261.246 160.48 261.385 161.045 261.662 161.536C261.95 162.016 262.345 162.395 262.846 162.672C263.358 162.939 263.94 163.072 264.59 163.072C265.102 163.072 265.577 162.981 266.014 162.8C266.462 162.619 266.846 162.341 267.166 161.968L267.806 162.704C267.433 163.152 266.964 163.493 266.398 163.728C265.844 163.963 265.23 164.08 264.558 164.08ZM270.647 164V155.6H271.735V157.888L271.623 157.488C271.857 156.848 272.252 156.363 272.807 156.032C273.361 155.691 274.049 155.52 274.871 155.52V156.624C274.828 156.624 274.785 156.624 274.743 156.624C274.7 156.613 274.657 156.608 274.615 156.608C273.729 156.608 273.036 156.88 272.535 157.424C272.033 157.957 271.783 158.72 271.783 159.712V164H270.647ZM279.463 164L275.735 155.6H276.919L280.343 163.392H279.783L283.255 155.6H284.375L280.631 164H279.463ZM289.308 164.08C288.434 164.08 287.666 163.899 287.004 163.536C286.343 163.163 285.826 162.656 285.452 162.016C285.079 161.365 284.892 160.624 284.892 159.792C284.892 158.96 285.068 158.224 285.42 157.584C285.783 156.944 286.274 156.443 286.892 156.08C287.522 155.707 288.226 155.52 289.004 155.52C289.794 155.52 290.492 155.701 291.1 156.064C291.719 156.416 292.204 156.917 292.556 157.568C292.908 158.208 293.084 158.949 293.084 159.792C293.084 159.845 293.079 159.904 293.068 159.968C293.068 160.021 293.068 160.08 293.068 160.144H285.756V159.296H292.46L292.012 159.632C292.012 159.024 291.879 158.485 291.612 158.016C291.356 157.536 291.004 157.163 290.556 156.896C290.108 156.629 289.591 156.496 289.004 156.496C288.428 156.496 287.911 156.629 287.452 156.896C286.994 157.163 286.636 157.536 286.38 158.016C286.124 158.496 285.996 159.045 285.996 159.664V159.84C285.996 160.48 286.135 161.045 286.412 161.536C286.7 162.016 287.095 162.395 287.596 162.672C288.108 162.939 288.69 163.072 289.34 163.072C289.852 163.072 290.327 162.981 290.764 162.8C291.212 162.619 291.596 162.341 291.916 161.968L292.556 162.704C292.183 163.152 291.714 163.493 291.148 163.728C290.594 163.963 289.98 164.08 289.308 164.08ZM298.741 164.08C297.941 164.08 297.221 163.899 296.581 163.536C295.951 163.173 295.455 162.672 295.093 162.032C294.73 161.381 294.549 160.635 294.549 159.792C294.549 158.939 294.73 158.192 295.093 157.552C295.455 156.912 295.951 156.416 296.581 156.064C297.221 155.701 297.941 155.52 298.741 155.52C299.477 155.52 300.133 155.685 300.709 156.016C301.295 156.347 301.759 156.832 302.101 157.472C302.453 158.101 302.628 158.875 302.628 159.792C302.628 160.699 302.458 161.472 302.117 162.112C301.775 162.752 301.311 163.243 300.725 163.584C300.149 163.915 299.487 164.08 298.741 164.08ZM298.821 163.072C299.418 163.072 299.951 162.939 300.421 162.672C300.901 162.395 301.274 162.011 301.541 161.52C301.818 161.019 301.957 160.443 301.957 159.792C301.957 159.131 301.818 158.555 301.541 158.064C301.274 157.573 300.901 157.195 300.421 156.928C299.951 156.651 299.418 156.512 298.821 156.512C298.234 156.512 297.706 156.651 297.237 156.928C296.767 157.195 296.394 157.573 296.117 158.064C295.839 158.555 295.701 159.131 295.701 159.792C295.701 160.443 295.839 161.019 296.117 161.52C296.394 162.011 296.767 162.395 297.237 162.672C297.706 162.939 298.234 163.072 298.821 163.072ZM301.989 164V161.472L302.101 159.776L301.941 158.08V152.128H303.077V164H301.989ZM306.352 164.08C306.118 164.08 305.915 163.995 305.744 163.824C305.584 163.653 305.504 163.445 305.504 163.2C305.504 162.944 305.584 162.736 305.744 162.576C305.915 162.416 306.118 162.336 306.352 162.336C306.587 162.336 306.784 162.416 306.944 162.576C307.115 162.736 307.2 162.944 307.2 163.2C307.2 163.445 307.115 163.653 306.944 163.824C306.784 163.995 306.587 164.08 306.352 164.08Z" fill="#FFCACA"/>
<path d="M220.788 71.5977C220.788 73.0546 221.94 74.2064 223.407 74.2064C224.873 74.2064 226.015 73.0546 226.015 71.5977V64.7364L233.684 54.3806C234.028 53.9081 234.363 53.2682 234.363 52.5398C234.363 51.1124 233.408 50 231.813 50C230.73 50 229.943 50.6103 229.303 51.5554L223.436 59.9424L217.658 51.6243C217.008 50.6694 216.27 50.0295 215.079 50.0295C213.622 50.0295 212.47 51.1517 212.47 52.5398C212.47 53.2879 212.736 53.9081 213.12 54.4101L220.788 64.8349V71.5977ZM185.094 71.6666C185.094 73.094 186.216 74.2064 187.643 74.2064C189.071 74.2064 190.222 73.094 190.222 71.6666V59.844L194.741 66.8037C195.292 67.6207 195.962 68.1326 196.916 68.1326C197.871 68.1326 198.541 67.6207 199.092 66.8037L203.679 59.7357V71.5977C203.679 73.0251 204.831 74.2064 206.258 74.2064C207.686 74.2064 208.877 73.0546 208.877 71.5977V52.7071C208.877 51.2403 207.725 50.0886 206.258 50.0886H205.678C204.624 50.0886 203.876 50.5316 203.335 51.4175L196.985 61.734L190.675 51.4569C190.203 50.6694 189.415 50.0886 188.293 50.0886H187.712C186.245 50.0886 185.094 51.2403 185.094 52.7071V71.6568V71.6666Z" fill="white"/>
<path d="M304.905 102.931C310.024 102.931 313.627 100.283 313.627 95.5677V95.4988C313.627 91.3545 310.91 89.622 306.086 88.3619C301.971 87.2988 300.967 86.8066 300.967 85.2316V85.1626C300.967 84.0109 302.021 83.0954 304.019 83.0954C305.643 83.0954 307.287 83.6762 309.02 84.6901C309.423 84.9264 309.827 85.0642 310.339 85.0642C311.697 85.0642 312.78 84.001 312.78 82.6524C312.78 81.6286 312.199 80.9199 311.628 80.5852C309.492 79.2267 306.982 78.4786 304.088 78.4786C299.235 78.4786 295.77 81.3333 295.77 85.6548V85.7237C295.77 90.439 298.861 91.768 303.645 92.9886C307.622 94.0025 308.439 94.6818 308.439 96.0107V96.0796C308.439 97.4676 307.149 98.3142 305.003 98.3142C302.69 98.3142 300.731 97.507 298.93 96.1781C298.595 95.9516 298.113 95.7055 297.433 95.7055C296.075 95.7055 294.992 96.7589 294.992 98.1075C294.992 98.9245 295.396 99.6727 295.976 100.076C298.624 101.976 301.784 102.921 304.915 102.921M276.318 102.586H289.657C290.946 102.586 292.009 101.563 292.009 100.273C292.009 98.9836 290.946 97.9303 289.657 97.9303H278.897V92.9295H287.963C289.253 92.9295 290.306 91.9058 290.306 90.6162C290.306 89.3266 289.253 88.2733 287.963 88.2733H278.897V83.4498H289.499C290.789 83.4498 291.842 82.426 291.842 81.1364C291.842 79.8469 290.789 78.7936 289.499 78.7936H276.318C274.851 78.7936 273.7 79.9355 273.7 81.4022V99.9385C273.7 101.405 274.851 102.557 276.318 102.557V102.586ZM262.536 100.185C262.536 101.641 263.688 102.793 265.155 102.793C266.622 102.793 267.764 101.641 267.764 100.185V81.2349C267.764 79.7681 266.612 78.6164 265.155 78.6164C263.698 78.6164 262.536 79.7681 262.536 81.2349V100.185ZM232.817 100.253C232.817 101.681 233.94 102.793 235.367 102.793C236.794 102.793 237.946 101.681 237.946 100.253V88.4308L242.465 95.3905C243.016 96.2076 243.685 96.7195 244.64 96.7195C245.595 96.7195 246.264 96.2076 246.816 95.3905L251.403 88.3226V100.185C251.403 101.612 252.555 102.793 253.982 102.793C255.409 102.793 256.601 101.641 256.601 100.185V81.294C256.601 79.8272 255.449 78.6755 253.982 78.6755H253.401C252.348 78.6755 251.6 79.1184 251.058 80.0044L244.709 90.3209L238.399 80.0438C237.926 79.2562 237.139 78.6755 236.017 78.6755H235.436C233.969 78.6755 232.817 79.8272 232.817 81.294V100.244V100.253ZM203.345 100.253C203.345 101.681 204.467 102.793 205.894 102.793C207.322 102.793 208.473 101.681 208.473 100.253V88.4308L212.992 95.3905C213.543 96.2076 214.212 96.7195 215.167 96.7195C216.122 96.7195 216.791 96.2076 217.343 95.3905L221.93 88.3226V100.185C221.93 101.612 223.082 102.793 224.509 102.793C225.937 102.793 227.128 101.641 227.128 100.185V81.294C227.128 79.8272 225.976 78.6755 224.509 78.6755H223.928C222.875 78.6755 222.127 79.1184 221.585 80.0044L215.236 90.3209L208.926 80.0438C208.454 79.2562 207.666 78.6755 206.544 78.6755H205.963C204.496 78.6755 203.345 79.8272 203.345 81.294V100.244V100.253ZM187.584 102.97C193.973 102.97 198.009 99.4364 198.009 92.2405V81.2349C198.009 79.7681 196.867 78.6164 195.4 78.6164C193.934 78.6164 192.782 79.7681 192.782 81.2349V92.4373C192.782 96.2076 190.843 98.1469 187.663 98.1469C184.483 98.1469 182.534 96.1485 182.534 92.27V81.225C182.534 79.7583 181.383 78.6065 179.916 78.6065C178.449 78.6065 177.307 79.7583 177.307 81.225V92.398C177.307 99.3872 181.205 102.961 187.584 102.961V102.97ZM162.492 103C166.065 103 168.871 101.819 170.82 100.618C172.07 99.8794 172.651 98.8162 172.651 97.3003V91.5219C172.651 90.0551 171.499 88.9034 170.033 88.9034H164.057C162.807 88.9034 161.783 89.9271 161.783 91.1872C161.783 92.4472 162.807 93.4217 164.057 93.4217H167.591V96.8179C166.272 97.7728 164.569 98.2453 162.669 98.2453C158.456 98.2453 155.473 95.0558 155.473 90.7048V90.6359C155.473 86.59 158.495 83.2332 162.295 83.2332C164.54 83.2332 166.065 83.8534 167.493 84.8575C167.867 85.1331 168.339 85.4087 169.087 85.4087C170.515 85.4087 171.667 84.257 171.667 82.8296C171.667 81.8058 171.086 81.0971 170.574 80.723C168.438 79.2267 166.056 78.4097 162.462 78.4097C155.267 78.4097 150 83.942 150 90.7048V90.7737C150 97.8122 155.089 103 162.492 103Z" fill="white"/>
<path d="M1652.6 91.3703L1644.5 89.9668V90.0229L1645.28 90.3668L1646.38 90.8651C1646.76 91.0405 1647.08 91.2089 1647.42 91.3633L1651.57 93.4687L1650.71 95.16L1641.78 90.6054L1643.09 88.0298L1650.99 89.4334V89.3983L1645.31 83.6717L1646.63 81.0962L1655.55 85.6508L1654.65 87.4193L1650.44 85.2578C1650.16 85.1174 1649.84 84.949 1649.48 84.7525C1649.12 84.556 1648.78 84.3595 1648.45 84.177L1647.75 83.756V83.8121L1653.56 89.679L1652.6 91.3703Z" fill="white"/>
<path d="M1660.5 80.0012L1658.22 78.9837L1655.82 81.7347L1657.14 83.84L1655.64 85.5594L1650.38 76.2818L1652.08 74.3308L1662 78.2608L1660.5 80.0012ZM1656.57 78.1977L1654.34 77.2081L1653.77 76.9555L1653.06 76.6327C1652.83 76.5204 1652.62 76.4292 1652.45 76.3379C1652.56 76.4923 1652.69 76.6958 1652.85 76.9344L1653.29 77.6362L1653.58 78.1064L1654.87 80.1767L1656.57 78.1977Z" fill="white"/>
<path d="M1665.85 69.1377C1666.46 69.9048 1666.87 70.8195 1667.02 71.7905C1667.12 72.6512 1666.95 73.5234 1666.53 74.2818C1666.03 75.159 1665.34 75.9158 1664.51 76.4995L1662.23 78.1978L1656.24 70.1623L1658.77 68.2815C1659.51 67.7009 1660.38 67.2955 1661.3 67.0955C1662.11 66.9316 1662.96 67.0197 1663.72 67.3482C1664.58 67.746 1665.31 68.3635 1665.85 69.1377ZM1664.11 70.4992C1663.76 69.9853 1663.3 69.5523 1662.76 69.229C1662.34 68.9832 1661.84 68.8868 1661.36 68.9553C1660.82 69.0466 1660.32 69.2738 1659.9 69.6149L1658.99 70.3167L1662.89 75.524L1663.59 74.9766C1663.96 74.7552 1664.27 74.4577 1664.51 74.1042C1664.76 73.7507 1664.92 73.3494 1664.99 72.9274C1665.01 72.036 1664.7 71.1699 1664.11 70.4992Z" fill="white"/>
<path d="M1675.16 70.2888L1669.96 72.7872L1665.62 63.7552L1670.83 61.2568L1671.58 62.8288L1668.29 64.4008L1669.24 66.3869L1672.3 64.9202L1673.05 66.4922L1669.99 67.9589L1671.11 70.2888L1674.4 68.7168L1675.16 70.2888Z" fill="white"/>
<path d="M1679.64 68.9205L1677.28 59.1797L1679.35 58.6814L1681.71 68.4152L1679.64 68.9205Z" fill="white"/>
<path d="M1692.19 67.3134L1689.49 67.4889L1684.64 60.1903H1684.58C1684.58 60.4991 1684.66 60.8149 1684.69 61.1377L1684.8 62.0851L1684.9 63.0396L1685.21 67.7415L1683.32 67.8678L1682.65 57.8744L1685.33 57.6919L1690.17 64.8923H1690.22C1690.22 64.5835 1690.15 64.2747 1690.12 63.9729C1690.08 63.6712 1690.06 63.3624 1690.02 63.0606C1689.99 62.7588 1689.96 62.4501 1689.93 62.1483L1689.61 57.4112L1691.52 57.2849L1692.19 67.3134Z" fill="white"/>
<path d="M1700.69 68.7168L1698.62 68.2536L1700.42 60.1971L1697.77 59.5936L1698.15 57.8672L1705.54 59.5164L1705.15 61.2428L1702.5 60.6463L1700.69 68.7168Z" fill="white"/>
<path d="M1711.4 72.8085L1709.47 71.9453L1711.23 67.9942L1707.6 66.3801L1705.85 70.3382L1703.9 69.475L1707.97 60.3167L1709.92 61.1798L1708.32 64.766L1711.94 66.3801L1713.54 62.7869L1715.47 63.6501L1711.4 72.8085Z" fill="white"/>
<path d="M1717.41 77.0398L1712.72 73.7063L1718.51 65.5305L1723.22 68.871L1722.21 70.2746L1719.24 68.1692L1717.97 69.9588L1720.73 71.9238L1719.73 73.3274L1716.92 71.3694L1715.43 73.4747L1718.4 75.5801L1717.41 77.0398Z" fill="white"/>
<path d="M1733.62 80.008L1728.57 84.0783C1728.07 84.4959 1727.47 84.7785 1726.83 84.8994C1726.19 85.0084 1725.53 84.9229 1724.93 84.6538C1724.21 84.3118 1723.58 83.7959 1723.1 83.152C1722.73 82.7522 1722.44 82.2821 1722.25 81.769C1722.05 81.2558 1721.97 80.7097 1721.99 80.1623C1722.04 79.6688 1722.2 79.1917 1722.44 78.7616C1722.69 78.3314 1723.03 77.9576 1723.43 77.664L1728.45 73.6077L1729.78 75.2569L1725 79.1097C1724.48 79.4517 1724.11 79.9853 1723.97 80.5975C1723.95 81.1443 1724.15 81.6754 1724.52 82.0782C1724.76 82.3838 1725.07 82.6251 1725.42 82.78C1725.74 82.8984 1726.08 82.8984 1726.4 82.78C1726.81 82.6422 1727.19 82.4252 1727.52 82.1414L1732.28 78.2956L1733.62 80.008Z" fill="white"/>
<path d="M1730.15 94.7179L1729.06 92.5775L1731.64 88.3668L1730.67 87.8545L1727.45 89.4195L1726.49 87.5246L1735.43 83.0051L1736.4 84.8999L1732.33 86.9632L1733.03 87.0685L1733.73 87.1737L1738 88.058L1739.06 90.1633L1733.55 89.0686L1730.15 94.7179Z" fill="white"/>
<path d="M1643.81 132.537L1649.68 126.783V126.727L1648.98 127.155L1647.93 127.758C1647.57 127.969 1647.23 128.158 1646.92 128.313L1642.73 130.474L1641.86 128.79L1650.76 124.158L1652.09 126.727L1646.37 132.341V132.376L1654.33 131.085L1655.66 133.653L1646.76 138.257L1645.85 136.502L1650.06 134.32L1651.04 133.836L1652.1 133.337L1652.87 132.986V132.93L1644.71 134.243L1643.81 132.537Z" fill="white"/>
<path d="M1653.15 145.913L1654.45 143.808L1652.04 141.071L1649.77 142.103L1648.26 140.299L1658.15 136.299L1659.87 138.25L1654.67 147.563L1653.15 145.913ZM1655.46 142.229L1656.73 140.124L1657.06 139.59L1657.47 138.931C1657.61 138.706 1657.73 138.509 1657.84 138.355C1657.67 138.446 1657.46 138.552 1657.2 138.671L1656.45 139.022L1655.96 139.253L1653.77 140.236L1655.46 142.229Z" fill="white"/>
<path d="M1666.2 149.935C1665.65 150.749 1664.89 151.402 1664 151.83C1663.21 152.182 1662.33 152.275 1661.48 152.096C1660.49 151.867 1659.56 151.427 1658.76 150.805L1656.47 149.121L1662.41 141.05L1664.95 142.917C1665.73 143.468 1666.36 144.188 1666.82 145.022C1667.22 145.754 1667.38 146.589 1667.29 147.416C1667.15 148.336 1666.78 149.205 1666.2 149.935ZM1664.39 148.672C1664.78 148.179 1665.05 147.613 1665.21 147.008C1665.32 146.537 1665.27 146.044 1665.06 145.605C1664.82 145.12 1664.45 144.705 1664 144.398L1663.09 143.696L1659.23 148.952L1659.96 149.493C1660.28 149.771 1660.66 149.978 1661.06 150.099C1661.47 150.22 1661.89 150.252 1662.31 150.195C1663.17 149.969 1663.92 149.424 1664.39 148.672Z" fill="white"/>
<path d="M1671.11 157.942L1665.89 155.471L1670.17 146.418L1675.38 148.881L1674.64 150.453L1671.35 148.896L1670.41 150.889L1673.47 152.334L1672.71 153.906L1669.65 152.461L1668.55 154.798L1671.84 156.356L1671.11 157.942Z" fill="white"/>
<path d="M1677.58 159.985L1679.88 150.23L1681.99 150.721L1679.68 160.469L1677.58 159.985Z" fill="white"/>
<path d="M1691.82 161.787L1689.12 161.626L1685.23 153.794H1685.17C1685.17 154.11 1685.17 154.426 1685.17 154.748V155.703C1685.17 156.019 1685.17 156.342 1685.17 156.657L1684.88 161.366L1682.99 161.247L1683.6 151.247L1686.27 151.415L1690.16 159.17H1690.21V158.243V157.324V156.405L1690.5 151.675L1692.41 151.787L1691.82 161.787Z" fill="white"/>
<path d="M1703.18 160.055L1701.07 160.532L1699.23 152.489L1696.57 153.1L1696.18 151.38L1703.55 149.682L1703.95 151.409L1701.3 152.019L1703.18 160.055Z" fill="white"/>
<path d="M1715.75 155.289L1713.82 156.16L1712.01 152.23L1708.39 153.865L1710.18 157.802L1708.24 158.679L1704.11 149.556L1706.05 148.678L1707.66 152.258L1711.28 150.622L1709.67 147.043L1711.6 146.173L1715.75 155.289Z" fill="white"/>
<path d="M1723.43 150.033L1718.74 153.401L1712.9 145.26L1717.59 141.892L1718.6 143.295L1715.64 145.401L1716.92 147.183L1719.68 145.211L1720.7 146.615L1717.94 148.594L1719.44 150.699L1722.4 148.594L1723.43 150.033Z" fill="white"/>
<path d="M1725.94 132.58L1731.01 136.622C1731.53 137.021 1731.93 137.546 1732.18 138.145C1732.43 138.745 1732.49 139.405 1732.36 140.04C1732.18 140.817 1731.81 141.539 1731.29 142.145C1730.98 142.597 1730.58 142.982 1730.12 143.28C1729.66 143.577 1729.15 143.781 1728.61 143.878C1728.12 143.935 1727.62 143.889 1727.14 143.741C1726.67 143.594 1726.23 143.349 1725.86 143.022L1720.81 138.994L1722.13 137.338L1726.93 141.162C1727.37 141.609 1727.97 141.861 1728.6 141.864C1729.14 141.762 1729.62 141.455 1729.93 141.008C1730.19 140.712 1730.37 140.354 1730.45 139.969C1730.51 139.638 1730.45 139.297 1730.27 139.008C1730.05 138.636 1729.75 138.312 1729.4 138.054L1724.65 134.243L1725.94 132.58Z" fill="white"/>
<path d="M1739.22 128.586L1738.13 130.748L1733.19 131.218L1733.36 132.306L1736.57 133.899L1735.62 135.801L1726.65 131.337L1727.6 129.435L1731.7 131.478L1731.36 130.839C1731.24 130.628 1731.13 130.418 1731.02 130.2L1729.18 126.263L1730.23 124.158L1732.64 129.267L1739.22 128.586Z" fill="white"/>
<path d="M1690.54 145.948C1710.65 145.948 1726.95 129.648 1726.95 109.54C1726.95 89.4318 1710.65 73.1311 1690.54 73.1311C1670.43 73.1311 1654.13 89.4318 1654.13 109.54C1654.13 129.648 1670.43 145.948 1690.54 145.948Z" stroke="white" stroke-width="0.274194" stroke-miterlimit="10"/>
<path d="M1690.54 167.205C1722.39 167.205 1748.21 141.387 1748.21 109.539C1748.21 77.6914 1722.39 51.8735 1690.54 51.8735C1658.69 51.8735 1632.87 77.6914 1632.87 109.539C1632.87 141.387 1658.69 167.205 1690.54 167.205Z" stroke="white" stroke-width="0.274194" stroke-miterlimit="10"/>
<g clip-path="url(#clip0_971_74)">
<rect x="1655.36" y="74.3623" width="70.2756" height="70.2756" rx="35.1378" fill="white"/>
<g clip-path="url(#clip1_971_74)">
<path d="M1620.31 74.4033V144.597H1760.69V74.4033H1620.31Z" fill="#495AF1"/>
<path d="M1620.31 74.4033L1760.69 144.597L1620.31 74.4033ZM1760.69 74.4033L1620.31 144.597L1760.69 74.4033Z" fill="white"/>
<path fill-rule="evenodd" clip-rule="evenodd" d="M1674.8 109.5L1617.17 80.6816L1623.45 68.125L1690.5 101.652L1757.55 68.125L1763.83 80.6816L1706.2 109.5L1763.83 138.319L1757.55 150.875L1690.5 117.348L1623.45 150.875L1617.17 138.319L1674.8 109.5Z" fill="white"/>
<path d="M1620.31 74.4033L1760.69 144.597L1620.31 74.4033ZM1760.69 74.4033L1620.31 144.597L1760.69 74.4033Z" fill="white"/>
<path fill-rule="evenodd" clip-rule="evenodd" d="M1685.27 109.5L1619.26 76.4963L1621.35 72.3108L1690.5 106.884L1759.65 72.3108L1761.74 76.4963L1695.73 109.5L1761.74 142.504L1759.65 146.69L1690.5 112.116L1621.35 146.69L1619.26 142.504L1685.27 109.5Z" fill="#F15249"/>
<path d="M1690.5 74.4033V144.597V74.4033ZM1620.31 109.5H1760.69H1620.31Z" fill="white"/>
<path fill-rule="evenodd" clip-rule="evenodd" d="M1678.8 97.8012V74.4033H1702.2V97.8012H1760.69V121.199H1702.2V144.597H1678.8V121.199H1620.31V97.8012H1678.8Z" fill="white"/>
<path d="M1690.5 74.4033V144.597V74.4033ZM1620.31 109.5H1760.69H1620.31Z" fill="white"/>
<path fill-rule="evenodd" clip-rule="evenodd" d="M1683.48 102.481V74.4033H1697.52V102.481H1760.69V116.519H1697.52V144.597H1683.48V116.519H1620.31V102.481H1683.48Z" fill="#F15249"/>
</g>
</g>
<rect x="1654.13" y="73.1284" width="72.7433" height="72.7433" rx="36.3717" stroke="white" stroke-width="2.46774"/>
<circle cx="1690.5" cy="109.5" r="58.2661" stroke="white" stroke-width="2.46774"/>
<path d="M1738.21 103.194L1739.76 108.011H1744.79L1740.72 110.989L1742.28 115.807L1738.21 112.829L1734.14 115.807L1735.7 110.989L1731.63 108.011H1736.66L1738.21 103.194Z" fill="white"/>
<path d="M1643.89 103.194L1645.44 108.011H1650.47L1646.4 110.989L1647.95 115.807L1643.89 112.829L1639.82 115.807L1641.37 110.989L1637.31 108.011H1642.33L1643.89 103.194Z" fill="white"/>
<defs>
<clipPath id="clip0_971_74">
<rect x="1655.36" y="74.3623" width="70.2756" height="70.2756" rx="35.1378" fill="white"/>
</clipPath>
<clipPath id="clip1_971_74">
<rect width="140.387" height="70.1936" fill="white" transform="translate(1620.31 74.4033)"/>
</clipPath>
</defs>
</svg>
