<svg width="90" height="90" viewBox="0 0 90 90" fill="none" xmlns="http://www.w3.org/2000/svg">
<path d="M48.7043 15.9459H41.2969L42.7083 21.001H47.2929L48.7043 15.9459Z" fill="white"/>
<path d="M64.408 66.3864C60.2242 73.1732 52.9678 77.2272 45.0006 77.2272C32.4494 77.2272 22.2303 67.007 22.2303 54.4544C22.2303 46.4765 26.2839 39.2292 33.08 35.055C33.1301 35.025 33.1801 34.995 33.2301 34.965L12.3315 14.0641C4.69468 22.1321 0.000488281 33.013 0.000488281 44.995C0.000488281 69.8498 20.1485 90 45.0006 90C56.9813 90 67.861 85.3053 75.9282 77.6677L64.488 66.2262C64.488 66.2262 64.438 66.3263 64.408 66.3764V66.3864Z" fill="white"/>
<path d="M44.9996 0C34.0398 0 24.0008 3.92392 16.1938 10.4404L36.7822 31.031V26.6567C36.7822 26.5365 36.8022 26.4264 36.8122 26.3163H35.8614C34.4001 26.3163 33.209 25.1251 33.209 23.6637C33.209 22.2022 34.4001 21.011 35.8614 21.011H37.2026L35.7213 15.6056C35.5711 14.2342 35.9715 12.8929 36.8423 11.9319C37.5829 11.1011 38.5838 10.6507 39.6448 10.6507H50.3443C51.4153 10.6507 52.4062 11.1111 53.1468 11.9319C54.0076 12.8929 54.418 14.2342 54.2678 15.6056L54.1878 16.026L52.7965 21.011H54.1277C55.589 21.011 56.7801 22.2022 56.7801 23.6637C56.7801 25.1251 55.589 26.3163 54.1277 26.3163H53.2169V33.2432C61.8846 36.5966 67.7699 45.035 67.7699 54.4645C67.7699 56.6366 67.4696 58.7688 66.8591 60.8208C66.839 60.9009 66.809 60.971 66.789 61.051L79.5604 73.8238C86.0762 66.016 89.9997 55.976 89.9997 45.015C89.9997 20.1602 69.8517 0.0100102 44.9996 0.0100102V0Z" fill="white"/>
<path d="M42.0877 35.1251C42.0877 36.3363 41.2669 37.3473 40.1659 37.6677L40.1159 37.6877C38.6246 38.1181 37.1933 38.7487 35.8621 39.5796C30.6474 42.7828 27.5347 48.3383 27.5347 54.4545C27.5347 64.0841 35.3717 71.9219 45.0003 71.9219C51.1157 71.9219 56.6807 68.8188 59.8835 63.6036C60.7043 62.2623 61.3348 60.8208 61.7652 59.3293C62.2256 57.7577 62.4558 56.1161 62.4558 54.4545C62.4558 46.6567 57.2212 39.7497 49.7345 37.6476C48.6735 37.2873 47.9028 36.2963 47.9028 35.1251V26.3063H42.0476C42.0576 26.4164 42.0776 26.5265 42.0776 26.6466V35.1251H42.0877ZM47.4624 48.5385C48.5034 47.5075 50.1749 47.5075 51.2158 48.5385C52.2567 49.5796 52.2567 51.2512 51.2158 52.2923L48.7536 54.7547L51.2158 57.2072C52.2567 58.2382 52.2567 59.9199 51.2158 60.961C50.6953 61.4815 50.0147 61.7417 49.3341 61.7417C48.6535 61.7417 47.9829 61.4815 47.4624 60.971L45.0003 58.5085L42.5381 60.971C42.0176 61.4915 41.337 61.7518 40.6664 61.7518C39.9958 61.7518 39.3052 61.4915 38.7947 60.971C37.7538 59.9299 37.7538 58.2583 38.7947 57.2172L41.2569 54.7547L38.7947 52.3023C37.7538 51.2713 37.7538 49.5896 38.7947 48.5485C39.8256 47.5075 41.5071 47.5075 42.5481 48.5485L45.0103 51.011L47.4725 48.5485L47.4624 48.5385Z" fill="white"/>
</svg>
