<svg width="90" height="90" viewBox="0 0 90 90" fill="none" xmlns="http://www.w3.org/2000/svg">
<circle cx="45" cy="45" r="45" fill="white"/>
<g clip-path="url(#clip0_462_4192)">
<path d="M34.584 43.6305L52.6014 61.9879C52.6845 60.359 52.7562 56.7641 52.15 52.4567C51.0575 44.6938 48.2476 38.3156 44.0239 34.0125C39.8003 29.7092 33.5404 26.8462 25.9212 25.7331C20.2519 24.9047 15.8374 25.3185 15.6523 25.3368C14.7454 25.4251 14.0275 26.1566 13.9408 27.0806C13.923 27.2692 13.5169 31.7669 14.3298 37.5432C15.4223 45.3062 18.2322 51.6843 22.4559 55.9875C26.6794 60.2907 32.9393 63.1538 40.5585 64.2669C43.3647 64.6769 45.8626 64.7824 47.693 64.7824C48.62 64.7824 49.3754 64.7553 49.9129 64.7267L31.8956 46.3696C31.1532 45.6133 31.1532 44.3869 31.8956 43.6304C32.6379 42.8742 33.8416 42.8742 34.584 43.6305Z" fill="#D12A32"/>
<path d="M76.0921 38.7718C76.0054 37.8478 75.2875 37.1163 74.3806 37.028C73.8725 36.9786 61.8554 35.8983 54.8577 43.0283C54.5852 43.3058 54.3253 43.5916 54.0767 43.8838C54.8959 46.3798 55.5132 49.0627 55.9134 51.907C56.0415 52.8177 56.1412 53.6968 56.2188 54.5369L61.186 49.476C61.9283 48.7197 63.132 48.7197 63.8745 49.476C64.617 50.2323 64.6169 51.4587 63.8745 52.2152L56.46 59.7696C56.4581 61.744 56.3478 63.0312 56.3237 63.2882C56.2811 63.7427 56.1862 64.1814 56.0469 64.5995C60.2697 64.2017 66.0991 62.8445 70.2029 58.6631C77.2007 51.5334 76.1407 39.2897 76.0921 38.7718Z" fill="#D12A32"/>
</g>
<defs>
<clipPath id="clip0_462_4192">
<rect width="62.3529" height="63.5294" fill="white" transform="translate(13.8237 13.2353)"/>
</clipPath>
</defs>
</svg>
