<svg width="66" height="46" viewBox="0 0 66 46" fill="none" xmlns="http://www.w3.org/2000/svg">
<path fill-rule="evenodd" clip-rule="evenodd" d="M28.5178 44.0708C31.2533 43.0287 33.8802 41.8781 36.0729 39.9893C39.3728 37.1453 42.0431 33.8454 42.8681 29.3949C43.6931 25.0746 42.6727 21.1234 40.5668 17.3676C37.6794 12.2223 33.2506 8.77045 28.127 6.07842C27.8882 5.94816 27.6711 5.83962 27.3672 5.66594C30.4717 4.03769 33.6414 2.86535 36.9847 2.12721C41.9346 1.04172 46.9278 0.737777 51.8343 2.23576C54.3526 3.01732 56.7624 4.16795 59.2157 5.14489C60.5617 5.68764 61.886 6.20868 63.232 6.75143C63.4708 6.83827 63.7313 6.92511 63.9701 7.05537C65.2727 7.66325 65.7286 8.879 64.9688 10.1165C64.1221 11.4842 64.0787 12.917 64.2741 14.4584C64.6866 17.7366 64.7951 21.0149 64.1221 24.2931C63.3623 27.9403 61.582 31.0014 59.1722 33.802C55.8723 37.6447 52.2034 41.0097 47.4923 43.0287C43.5194 44.7221 39.3728 45.3083 35.0742 44.8958C33.0552 44.7004 31.0362 44.4399 29.0171 44.2228C28.8435 44.2228 28.6698 44.1576 28.4961 44.1142L28.5178 44.0708Z" fill="url(#paint0_linear_462_4453)"/>
<path fill-rule="evenodd" clip-rule="evenodd" d="M17.0332 6.27405C15.9043 6.36089 14.7971 6.40432 13.6899 6.55629C12.7781 6.68654 11.8663 6.92535 10.9761 7.20758C5.33156 8.92267 2.55268 13.1778 3.61647 18.6053C4.57171 23.5335 6.93809 27.7018 10.6071 31.1102C14.4063 34.6272 18.8786 36.6897 24.0238 37.1022C27.5191 37.3844 30.8841 36.6897 34.0972 35.3002C39.1556 33.1075 41.0661 29.2432 39.8069 23.9025C38.8517 19.8211 36.6156 16.5429 33.663 13.6771C29.0388 9.18319 23.6982 6.27405 17.0332 6.27405ZM0.577084 22.0789C0.468534 17.5198 2.03165 13.5252 4.68026 9.92132C6.2868 7.75033 8.6966 6.79509 11.1932 6.07866C17.7062 4.21161 23.6764 5.55763 29.321 9.07464C33.7933 11.8535 37.5708 15.2837 39.8286 20.1467C41.7391 24.2933 42.1082 28.505 39.8938 32.6082C37.7445 36.6028 34.5097 39.5554 30.2329 41.2705C26.8895 42.5948 23.4159 43.4849 19.8121 43.4632C17.7062 43.4632 15.6004 43.2026 13.5379 42.8553C12.257 42.6382 11.063 42.5731 9.82551 42.9204C7.89333 43.4632 7.1552 42.6165 6.82955 41.0317C6.63416 40.0547 6.22166 39.2514 5.63549 38.4699C2.96517 34.9312 1.40206 30.98 0.967864 26.5728C0.815894 25.0749 0.707344 23.5986 0.577084 22.1006V22.0789Z" fill="url(#paint1_linear_462_4453)"/>
<path fill-rule="evenodd" clip-rule="evenodd" d="M29.6464 21.3842C27.6708 21.3842 25.6735 21.3842 23.6979 21.3842C23.4374 21.3842 23.1551 21.2323 22.8946 21.1454C23.0249 20.8849 23.09 20.5376 23.2637 20.3422C24.7617 18.7791 26.2814 17.2376 27.8228 15.7179C28.4741 15.0884 29.1688 14.4805 29.8852 13.9377C31.0793 13.0476 31.9477 13.0693 32.9029 14.1548C34.1621 15.5877 35.443 17.064 36.485 18.6705C37.6574 20.4941 37.2666 21.1671 35.1607 21.254C33.3154 21.3191 31.47 21.254 29.6247 21.254V21.406L29.6464 21.3842ZM23.0249 22.1007C23.5676 22.0355 23.8716 21.9487 24.1755 21.9487C27.9313 21.8619 31.6654 21.7533 35.4212 21.7533C37.2232 21.7533 38.1133 22.2309 38.4172 24.25C38.6343 25.6828 38.656 27.0722 38.2218 28.44C37.7225 29.938 36.8975 30.307 35.5298 29.5255C32.2082 27.6367 28.9083 25.7045 25.6084 23.794C25.0005 23.4467 24.3926 23.0993 23.8064 22.7303C23.5893 22.6 23.4157 22.4046 23.0466 22.1007H23.0249ZM30.1892 35.3003C32.2516 35.0398 33.793 34.1714 35.1607 32.9556C36.6587 31.5879 36.637 31.0017 34.9219 29.9162C31.2529 27.615 27.5405 25.3789 23.8281 23.1427C23.5676 22.9908 23.2203 22.9908 22.8946 22.9256C22.9163 23.273 22.8512 23.6421 23.0032 23.9243C24.6314 27.0288 26.3031 30.1116 27.9747 33.1945C28.257 33.7155 28.5826 34.2148 28.9951 34.6056C29.3642 34.953 29.8852 35.1266 30.1892 35.3003ZM24.6314 36.1036C27.9313 36.147 28.4741 35.3003 27.3886 33.1293C27.3017 32.9556 27.2149 32.8037 27.1281 32.63C26.086 30.6978 25.0439 28.7656 24.0018 26.8334C23.4374 25.7697 22.8729 24.7059 22.265 23.6638C22.1348 23.425 21.8742 23.2947 21.6571 23.0993C21.4618 23.3381 21.2447 23.5335 21.1144 23.794C20.9624 24.0763 20.919 24.4019 20.8322 24.7059C20.094 27.3328 19.2908 29.938 18.6178 32.5649C18.2921 33.7806 18.748 34.6056 19.9421 34.9529C21.7657 35.474 23.611 35.8648 24.6314 36.1036ZM16.881 33.5635C15.9909 33.2162 15.2093 33.0642 14.6231 32.6517C12.9949 31.5228 11.3884 30.3722 9.89037 29.0696C8.52264 27.8755 8.67461 26.8117 10.3463 26.0302C12.0396 25.2486 13.8199 24.6842 15.5784 24.0329C16.9895 23.5118 18.4007 23.0125 19.8118 22.5349C20.5282 22.2961 20.919 22.6217 20.7019 23.3164C19.725 26.3992 18.7263 29.4603 17.7059 32.5214C17.5757 32.9122 17.1632 33.1944 16.881 33.5418V33.5635ZM20.094 21.9487C19.8552 22.0573 19.6381 22.1875 19.3993 22.2744C16.0994 23.3816 12.8212 24.4888 9.52129 25.5743C7.89305 26.117 7.15491 25.7697 6.46019 24.2065C5.78719 22.6434 5.33128 21.0369 5.30957 19.3218C5.30957 17.9975 5.67864 17.6284 6.95952 17.9324C8.91342 18.41 10.8239 18.9744 12.7561 19.5172C14.9054 20.1251 17.0764 20.7546 19.2256 21.3625C19.5296 21.4494 19.7901 21.6013 20.0723 21.7099C20.0723 21.7967 20.0723 21.8619 20.0723 21.9487H20.094ZM19.9204 20.8632L20.0506 20.6895C19.8986 20.4507 19.7467 20.1685 19.5513 19.9731C18.3355 18.7356 17.0981 17.4982 15.8606 16.2607C14.1889 14.589 12.539 12.9174 10.8456 11.2674C9.54301 9.98654 8.26212 10.0951 7.22004 11.5931C6.74242 12.2878 6.30823 13.0476 5.96087 13.8292C5.09247 15.7614 5.59179 16.8252 7.61082 17.4113C11.4752 18.5402 15.3613 19.6257 19.2473 20.733C19.4644 20.7981 19.7033 20.8198 19.9204 20.8632ZM17.554 7.18595C17.1415 7.25108 16.7073 7.27279 16.2948 7.38134C14.7751 7.7504 13.212 8.05435 11.714 8.53197C10.4114 8.94446 10.2811 9.72602 11.1278 10.7898C11.2147 10.8984 11.3015 10.9852 11.3884 11.0937C14.2541 14.0246 17.0981 16.9554 19.9855 19.8646C20.2026 20.0817 20.5499 20.1685 20.8322 20.3205C20.8973 19.9731 21.071 19.6257 21.0276 19.3001C20.7019 16.7817 20.3545 14.2634 19.9421 11.7667C19.7467 10.5944 19.4862 9.42207 19.1605 8.27144C18.9434 7.5333 18.3789 7.14253 17.554 7.18595ZM20.1592 10.6812C20.5717 13.3081 21.071 16.5429 21.5703 19.756C21.6137 19.9948 21.7657 20.2119 21.8742 20.4507C22.1348 20.3205 22.4387 20.2553 22.6124 20.0816C24.7617 18.0192 26.9109 15.9568 29.0168 13.8726C30.2326 12.6786 30.2326 11.745 28.7563 10.8984C26.8892 9.83456 24.8919 9.00958 22.938 8.09777C22.6775 7.98922 22.3736 7.9675 22.0696 7.9675C20.8322 7.9675 20.0289 8.83591 20.1592 10.6595V10.6812Z" fill="url(#paint2_linear_462_4453)"/>
<defs>
<linearGradient id="paint0_linear_462_4453" x1="46.3851" y1="44.9826" x2="46.3851" y2="1.19369" gradientUnits="userSpaceOnUse">
<stop stop-color="#F39600"/>
<stop offset="1" stop-color="#FFCF00"/>
</linearGradient>
<linearGradient id="paint1_linear_462_4453" x1="21.0061" y1="43.4632" x2="21.0061" y2="5.23198" gradientUnits="userSpaceOnUse">
<stop stop-color="#F39600"/>
<stop offset="1" stop-color="#FFCF00"/>
</linearGradient>
<linearGradient id="paint2_linear_462_4453" x1="21.9394" y1="36.1036" x2="21.9394" y2="7.16424" gradientUnits="userSpaceOnUse">
<stop stop-color="#F39600"/>
<stop offset="1" stop-color="#FFCF00"/>
</linearGradient>
</defs>
</svg>
