<svg width="11" height="20" viewBox="0 0 11 20" fill="none" xmlns="http://www.w3.org/2000/svg">
<path fill-rule="evenodd" clip-rule="evenodd" d="M9.97527 5.85193C10.3041 6.25886 10.2409 6.85535 9.83394 7.18423C9.55359 7.41081 9.32207 7.596 9.12305 7.75519C8.12919 8.55014 7.94588 8.69677 6.53907 10.1124C6.08811 10.5662 5.53295 11.136 5.02918 11.763C4.51869 12.3984 4.10473 13.0395 3.89537 13.626C3.89534 13.6261 3.89484 13.6276 3.89396 13.6302C3.88585 13.6537 3.84533 13.7716 3.83427 13.8011C3.8216 13.8348 3.79555 13.902 3.75508 13.9754C3.72038 14.0383 3.62883 14.1935 3.44874 14.3205C3.22432 14.4788 2.94615 14.5352 2.67889 14.4784C2.46368 14.4327 2.31763 14.3265 2.25661 14.2787C2.13937 14.1869 2.04572 14.0729 2.00462 14.0229L2.00171 14.0193C1.54029 13.458 1.21716 12.7898 0.964021 12.1712C0.835824 11.8579 0.719776 11.5423 0.612423 11.2465C0.596083 11.2015 0.579989 11.1571 0.564097 11.1132C0.473517 10.8632 0.389451 10.6311 0.303307 10.4103C0.113166 9.92284 0.354176 9.37355 0.841616 9.18341C1.32906 8.99327 1.87834 9.23428 2.06848 9.72172C2.16377 9.96599 2.25685 10.223 2.34703 10.472C2.36258 10.5149 2.37805 10.5576 2.39343 10.6C2.5001 10.8939 2.60502 11.1784 2.71761 11.4536C2.74217 11.5136 2.76684 11.5725 2.79166 11.6303C3.02845 11.2564 3.29034 10.9021 3.55218 10.5762C4.12284 9.86602 4.73842 9.23635 5.19513 8.77679C6.67514 7.28752 6.9084 7.10086 7.94301 6.27292C8.14187 6.11378 8.37035 5.93094 8.64298 5.7106C9.04991 5.38173 9.64639 5.445 9.97527 5.85193ZM3.49122 12.8466C3.49288 12.8484 3.49376 12.8494 3.49378 12.8494C3.4938 12.8495 3.49297 12.8486 3.49122 12.8466Z" fill="white"/>
</svg>
