<svg width="264" height="100" viewBox="0 0 264 100" fill="none" xmlns="http://www.w3.org/2000/svg">
<path d="M120.788 45.0977C120.788 46.5546 121.94 47.7064 123.407 47.7064C124.873 47.7064 126.015 46.5546 126.015 45.0977V38.2364L133.684 27.8806C134.028 27.4081 134.363 26.7682 134.363 26.0398C134.363 24.6124 133.408 23.5 131.813 23.5C130.73 23.5 129.943 24.1103 129.303 25.0554L123.436 33.4424L117.658 25.1243C117.008 24.1694 116.27 23.5295 115.079 23.5295C113.622 23.5295 112.47 24.6517 112.47 26.0398C112.47 26.7879 112.736 27.4081 113.12 27.9101L120.788 38.3349V45.0977ZM85.0938 45.1666C85.0938 46.594 86.216 47.7064 87.6433 47.7064C89.0707 47.7064 90.2225 46.594 90.2225 45.1666V33.344L94.7409 40.3037C95.2921 41.1207 95.9615 41.6326 96.9164 41.6326C97.8712 41.6326 98.5406 41.1207 99.0919 40.3037L103.679 33.2357V45.0977C103.679 46.5251 104.831 47.7064 106.258 47.7064C107.686 47.7064 108.877 46.5546 108.877 45.0977V26.2071C108.877 24.7403 107.725 23.5886 106.258 23.5886H105.678C104.624 23.5886 103.876 24.0316 103.335 24.9175L96.9853 35.234L90.6753 24.9569C90.2028 24.1694 89.4153 23.5886 88.293 23.5886H87.7122C86.2455 23.5886 85.0938 24.7403 85.0938 26.2071V45.1568V45.1666Z" fill="#D12A32"/>
<path d="M204.905 76.431C210.024 76.431 213.627 73.783 213.627 69.0677V68.9988C213.627 64.8545 210.91 63.122 206.086 61.8619C201.971 60.7988 200.967 60.3066 200.967 58.7316V58.6626C200.967 57.5109 202.021 56.5954 204.019 56.5954C205.643 56.5954 207.287 57.1762 209.02 58.1901C209.423 58.4264 209.827 58.5642 210.339 58.5642C211.697 58.5642 212.78 57.501 212.78 56.1524C212.78 55.1286 212.199 54.4199 211.628 54.0852C209.492 52.7267 206.982 51.9786 204.088 51.9786C199.235 51.9786 195.77 54.8333 195.77 59.1548V59.2237C195.77 63.939 198.861 65.268 203.645 66.4886C207.622 67.5025 208.439 68.1818 208.439 69.5107V69.5796C208.439 70.9676 207.149 71.8142 205.003 71.8142C202.69 71.8142 200.731 71.007 198.93 69.6781C198.595 69.4516 198.113 69.2055 197.433 69.2055C196.075 69.2055 194.992 70.2589 194.992 71.6075C194.992 72.4245 195.396 73.1727 195.976 73.5763C198.624 75.4762 201.784 76.4212 204.915 76.4212M176.318 76.0865H189.657C190.946 76.0865 192.009 75.0627 192.009 73.7732C192.009 72.4836 190.946 71.4303 189.657 71.4303H178.897V66.4295H187.963C189.253 66.4295 190.306 65.4058 190.306 64.1162C190.306 62.8266 189.253 61.7733 187.963 61.7733H178.897V56.9498H189.499C190.789 56.9498 191.842 55.926 191.842 54.6364C191.842 53.3469 190.789 52.2936 189.499 52.2936H176.318C174.851 52.2936 173.7 53.4355 173.7 54.9022V73.4385C173.7 74.9052 174.851 76.057 176.318 76.057V76.0865ZM162.536 73.6846C162.536 75.1415 163.688 76.2932 165.155 76.2932C166.622 76.2932 167.764 75.1415 167.764 73.6846V54.7349C167.764 53.2681 166.612 52.1164 165.155 52.1164C163.698 52.1164 162.536 53.2681 162.536 54.7349V73.6846ZM132.817 73.7535C132.817 75.1808 133.94 76.2932 135.367 76.2932C136.794 76.2932 137.946 75.1808 137.946 73.7535V61.9308L142.465 68.8905C143.016 69.7076 143.685 70.2195 144.64 70.2195C145.595 70.2195 146.264 69.7076 146.816 68.8905L151.403 61.8226V73.6846C151.403 75.1119 152.555 76.2932 153.982 76.2932C155.409 76.2932 156.601 75.1415 156.601 73.6846V54.794C156.601 53.3272 155.449 52.1755 153.982 52.1755H153.401C152.348 52.1755 151.6 52.6184 151.058 53.5044L144.709 63.8209L138.399 53.5438C137.926 52.7562 137.139 52.1755 136.017 52.1755H135.436C133.969 52.1755 132.817 53.3272 132.817 54.794V73.7436V73.7535ZM103.345 73.7535C103.345 75.1808 104.467 76.2932 105.894 76.2932C107.322 76.2932 108.473 75.1808 108.473 73.7535V61.9308L112.992 68.8905C113.543 69.7076 114.212 70.2195 115.167 70.2195C116.122 70.2195 116.791 69.7076 117.343 68.8905L121.93 61.8226V73.6846C121.93 75.1119 123.082 76.2932 124.509 76.2932C125.937 76.2932 127.128 75.1415 127.128 73.6846V54.794C127.128 53.3272 125.976 52.1755 124.509 52.1755H123.928C122.875 52.1755 122.127 52.6184 121.585 53.5044L115.236 63.8209L108.926 53.5438C108.454 52.7562 107.666 52.1755 106.544 52.1755H105.963C104.496 52.1755 103.345 53.3272 103.345 54.794V73.7436V73.7535ZM87.5843 76.4704C93.9731 76.4704 98.0091 72.9364 98.0091 65.7405V54.7349C98.0091 53.2681 96.8672 52.1164 95.4005 52.1164C93.9337 52.1164 92.782 53.2681 92.782 54.7349V65.9373C92.782 69.7076 90.8427 71.6469 87.6631 71.6469C84.4835 71.6469 82.5344 69.6485 82.5344 65.77V54.725C82.5344 53.2583 81.3826 52.1065 79.9159 52.1065C78.4491 52.1065 77.3072 53.2583 77.3072 54.725V65.898C77.3072 72.8872 81.2054 76.4606 87.5843 76.4606V76.4704ZM62.492 76.4999C66.0654 76.4999 68.8709 75.3187 70.82 74.1177C72.0702 73.3794 72.651 72.3162 72.651 70.8003V65.0219C72.651 63.5551 71.4993 62.4034 70.0325 62.4034H64.0572C62.807 62.4034 61.7833 63.4271 61.7833 64.6872C61.7833 65.9472 62.807 66.9217 64.0572 66.9217H67.5912V70.3179C66.2721 71.2728 64.5691 71.7453 62.6692 71.7453C58.456 71.7453 55.4733 68.5558 55.4733 64.2048V64.1359C55.4733 60.09 58.4954 56.7332 62.2951 56.7332C64.5396 56.7332 66.0654 57.3534 67.4928 58.3575C67.8668 58.6331 68.3393 58.9087 69.0875 58.9087C70.5149 58.9087 71.6666 57.757 71.6666 56.3296C71.6666 55.3058 71.0858 54.5971 70.5739 54.223C68.4378 52.7267 66.0555 51.9097 62.4625 51.9097C55.2665 51.9097 50 57.442 50 64.2048V64.2737C50 71.3122 55.0893 76.4999 62.492 76.4999Z" fill="#D12A32"/>
</svg>
