<svg width="119" height="119" viewBox="0 0 119 119" fill="none" xmlns="http://www.w3.org/2000/svg">
<path d="M21.6013 41.3703L13.5027 39.9668V40.0229L14.2817 40.3668L15.3765 40.8651C15.7625 41.0405 16.0783 41.2089 16.4151 41.3633L20.5697 43.4687L19.7065 45.16L10.7798 40.6054L12.0921 38.0298L19.9942 39.4334V39.3983L14.3098 33.6717L15.6291 31.0962L24.5488 35.6508L23.6505 37.4193L19.4398 35.2578C19.1591 35.1174 18.8363 34.949 18.4784 34.7525C18.1205 34.556 17.7766 34.3595 17.4538 34.177L16.752 33.756V33.8121L22.5628 39.679L21.6013 41.3703Z" fill="white"/>
<path d="M29.4967 30.0012L27.2229 28.9837L24.8228 31.7347L26.1422 33.84L24.6404 35.5594L19.377 26.2818L21.0823 24.3308L30.9985 28.2608L29.4967 30.0012ZM25.5737 28.1977L23.3421 27.2081L22.7666 26.9555L22.0648 26.6327C21.8262 26.5204 21.6157 26.4292 21.4472 26.3379C21.5595 26.4923 21.6929 26.6958 21.8472 26.9344L22.2894 27.6362L22.5841 28.1064L23.8684 30.1767L25.5737 28.1977Z" fill="white"/>
<path d="M34.8506 19.1377C35.4643 19.9048 35.866 20.8195 36.0156 21.7905C36.1214 22.6512 35.9518 23.5234 35.5314 24.2818C35.0267 25.159 34.337 25.9158 33.5102 26.4995L31.2294 28.1978L25.2432 20.1623L27.7696 18.2815C28.5116 17.7009 29.3753 17.2955 30.296 17.0955C31.1123 16.9316 31.9592 17.0197 32.7242 17.3482C33.5789 17.746 34.3127 18.3635 34.8506 19.1377ZM33.1102 20.4992C32.7559 19.9853 32.2967 19.5523 31.7628 19.229C31.3387 18.9832 30.8445 18.8868 30.3592 18.9553C29.8242 19.0466 29.3216 19.2738 28.8995 19.6149L27.9872 20.3167L31.8891 25.524L32.5909 24.9766C32.9577 24.7552 33.2728 24.4577 33.515 24.1042C33.7571 23.7507 33.9206 23.3494 33.9944 22.9274C34.0131 22.036 33.6976 21.1699 33.1102 20.4992Z" fill="white"/>
<path d="M44.1569 20.2888L38.9567 22.7872L34.6196 13.7552L39.8269 11.2568L40.5778 12.8288L37.2934 14.4008L38.2409 16.3869L41.3006 14.9202L42.0515 16.4922L38.9918 17.9589L40.1146 20.2888L43.399 18.7168L44.1569 20.2888Z" fill="white"/>
<path d="M48.6407 18.9205L46.2827 9.17967L48.346 8.6814L50.711 18.4152L48.6407 18.9205Z" fill="white"/>
<path d="M61.1886 17.3134L58.4938 17.4889L53.6444 10.1903H53.5813C53.5813 10.4991 53.6585 10.8149 53.6936 11.1377L53.7988 12.0851L53.9041 13.0396L54.2129 17.7415L52.3181 17.8678L51.6514 7.87441L54.3252 7.69194L59.1675 14.8923H59.2166C59.2166 14.5835 59.1535 14.2747 59.1184 13.9729C59.0833 13.6712 59.0552 13.3624 59.0201 13.0606C58.985 12.7588 58.957 12.4501 58.9289 12.1483L58.6131 7.41123L60.5219 7.28491L61.1886 17.3134Z" fill="white"/>
<path d="M69.6935 18.7168L67.6233 18.2536L69.4198 10.1971L66.7671 9.59359L67.1531 7.86719L74.5359 9.51639L74.1499 11.2428L71.4971 10.6463L69.6935 18.7168Z" fill="white"/>
<path d="M80.4035 22.8085L78.4736 21.9453L80.228 17.9942L76.5998 16.3801L74.8453 20.3382L72.9014 19.475L76.9717 10.3167L78.9157 11.1798L77.3156 14.766L80.9438 16.3801L82.5369 12.7869L84.4738 13.6501L80.4035 22.8085Z" fill="white"/>
<path d="M86.4113 27.0398L81.7163 23.7063L87.5131 15.5305L92.2221 18.871L91.2115 20.2746L88.2359 18.1692L86.9657 19.9588L89.7307 21.9238L88.7271 23.3274L85.92 21.3694L84.4322 23.4747L87.4008 25.5801L86.4113 27.0398Z" fill="white"/>
<path d="M102.616 30.008L97.5697 34.0783C97.069 34.4959 96.4699 34.7785 95.8293 34.8994C95.1873 35.0084 94.5274 34.9229 93.9344 34.6538C93.2095 34.3118 92.5802 33.7959 92.1028 33.152C91.7283 32.7522 91.4368 32.2821 91.2453 31.769C91.0537 31.2558 90.9659 30.7097 90.9869 30.1623C91.04 29.6688 91.1953 29.1917 91.443 28.7616C91.6907 28.3314 92.0254 27.9576 92.4256 27.664L97.4504 23.6077L98.7768 25.2569L94.0046 29.1097C93.4781 29.4517 93.1056 29.9853 92.966 30.5975C92.9514 31.1443 93.1502 31.6754 93.5204 32.0782C93.7562 32.3838 94.0651 32.6251 94.4187 32.78C94.7355 32.8984 95.0844 32.8984 95.4012 32.78C95.8113 32.6422 96.1905 32.4252 96.517 32.1414L101.282 28.2956L102.616 30.008Z" fill="white"/>
<path d="M99.1495 44.7179L98.0617 42.5775L100.644 38.3668L99.6688 37.8545L96.4546 39.4195L95.4932 37.5246L104.434 33.0051L105.395 34.8999L101.325 36.9632L102.027 37.0685L102.729 37.1737L106.995 38.058L108.062 40.1633L102.546 39.0686L99.1495 44.7179Z" fill="white"/>
<path d="M12.8074 82.5373L18.6814 76.7826V76.7265L17.9796 77.1546L16.9339 77.7581C16.569 77.9687 16.2321 78.1581 15.9233 78.3125L11.7337 80.474L10.8564 78.7898L19.7551 74.158L21.0885 76.7265L15.3689 82.3408V82.3759L23.3272 81.0846L24.6606 83.6531L15.7619 88.2569L14.8496 86.5024L19.0603 84.3198L20.0358 83.8356L21.1025 83.3373L21.8675 82.9864V82.9303L13.7127 84.2426L12.8074 82.5373Z" fill="white"/>
<path d="M22.1493 95.9133L23.4546 93.8079L21.0404 91.071L18.7737 92.1026L17.2578 90.299L27.146 86.2988L28.8654 88.2498L23.6651 97.5625L22.1493 95.9133ZM24.4582 92.2289L25.7284 90.1236L26.0582 89.5902L26.4653 88.9305C26.6056 88.706 26.7319 88.5095 26.8442 88.3551C26.6688 88.4463 26.4582 88.5516 26.1986 88.6709L25.4547 89.0218L24.9564 89.2533L22.7668 90.2359L24.4582 92.2289Z" fill="white"/>
<path d="M35.2014 99.9349C34.6459 100.749 33.8859 101.402 32.9978 101.83C32.2069 102.182 31.3253 102.275 30.4784 102.096C29.4904 101.867 28.5638 101.427 27.7624 100.805L25.4746 99.1208L31.4117 91.0503L33.9522 92.917C34.7261 93.4681 35.3645 94.188 35.8189 95.0224C36.2157 95.7536 36.3798 96.5885 36.2891 97.4155C36.1528 98.3359 35.7778 99.2045 35.2014 99.9349ZM33.3908 98.6717C33.7755 98.1794 34.0549 97.6132 34.2118 97.0085C34.3179 96.5371 34.2661 96.0439 34.0645 95.6049C33.8178 95.1202 33.4535 94.7051 33.0048 94.3978L32.0925 93.696L28.2256 98.9524L28.9625 99.4928C29.2815 99.771 29.6563 99.9775 30.0619 100.099C30.4674 100.22 30.8942 100.252 31.3135 100.195C32.1739 99.9686 32.9164 99.4243 33.3908 98.6717Z" fill="white"/>
<path d="M40.107 107.942L34.8857 105.471L39.1666 96.4182L44.3809 98.8815L43.644 100.453L40.3456 98.8955L39.4053 100.889L42.472 102.334L41.7141 103.906L38.6473 102.461L37.5455 104.798L40.8369 106.356L40.107 107.942Z" fill="white"/>
<path d="M46.5781 109.985L48.88 100.23L50.9853 100.721L48.6835 110.469L46.5781 109.985Z" fill="white"/>
<path d="M60.8172 111.787L58.1224 111.626L54.2345 103.794H54.1713C54.1713 104.11 54.1713 104.426 54.1713 104.748V105.703C54.1713 106.019 54.1713 106.342 54.1713 106.657L53.8836 111.366L51.9888 111.247L52.5993 101.247L55.2731 101.415L59.161 109.17H59.2101V108.243V107.324V106.405L59.4979 101.675L61.4067 101.787L60.8172 111.787Z" fill="white"/>
<path d="M72.1785 110.055L70.0731 110.532L68.2274 102.489L65.5746 103.1L65.1816 101.38L72.5504 99.6821L72.9504 101.409L70.2977 102.019L72.1785 110.055Z" fill="white"/>
<path d="M84.7479 105.289L82.818 106.16L81.0144 102.23L77.3932 103.865L79.1758 107.802L77.2388 108.679L73.1123 99.5557L75.0492 98.6785L76.6633 102.258L80.2846 100.622L78.6705 97.0433L80.6004 96.1731L84.7479 105.289Z" fill="white"/>
<path d="M92.4252 100.033L87.7373 103.401L81.8984 95.2604L86.5864 91.8918L87.5969 93.2954L84.6354 95.4008L85.9197 97.1833L88.6777 95.2113L89.6953 96.6149L86.9373 98.5939L88.4391 100.699L91.4006 98.5939L92.4252 100.033Z" fill="white"/>
<path d="M94.944 82.5796L100.011 86.6219C100.525 87.0213 100.928 87.5455 101.183 88.1448C101.429 88.7447 101.49 89.4046 101.358 90.0396C101.178 90.8171 100.812 91.5393 100.292 92.1449C99.9814 92.5966 99.5848 92.9824 99.1247 93.2799C98.6645 93.5774 98.15 93.7808 97.6108 93.8784C97.1179 93.9354 96.6185 93.8886 96.1448 93.7412C95.671 93.5937 95.2333 93.3488 94.8598 93.0222L89.814 88.9939L91.1333 87.3377L95.9265 91.1624C96.3711 91.6086 96.974 91.8608 97.6038 91.8642C98.1402 91.7617 98.6158 91.4547 98.9302 91.008C99.1895 90.7121 99.3683 90.3544 99.4495 89.9694C99.5081 89.6383 99.4458 89.2971 99.274 89.008C99.0487 88.6363 98.7531 88.3122 98.4038 88.0535L93.6457 84.2428L94.944 82.5796Z" fill="white"/>
<path d="M108.215 78.5862L107.135 80.7477L102.187 81.2179L102.362 82.3057L105.57 83.8988L104.615 85.8006L95.6533 81.3372L96.6007 79.4354L100.699 81.4776L100.362 80.839C100.243 80.6284 100.131 80.4179 100.018 80.2003L98.1798 76.2633L99.2324 74.158L101.64 79.267L108.215 78.5862Z" fill="white"/>
<path d="M59.54 95.9485C79.648 95.9485 95.9487 79.6478 95.9487 59.5398C95.9487 39.4318 79.648 23.1311 59.54 23.1311C39.4321 23.1311 23.1313 39.4318 23.1313 59.5398C23.1313 79.6478 39.4321 95.9485 59.54 95.9485Z" stroke="white" stroke-width="0.274194" stroke-miterlimit="10"/>
<path d="M59.5403 117.205C91.3883 117.205 117.206 91.3873 117.206 59.5393C117.206 27.6914 91.3883 1.87354 59.5403 1.87354C27.6924 1.87354 1.87451 27.6914 1.87451 59.5393C1.87451 91.3873 27.6924 117.205 59.5403 117.205Z" stroke="white" stroke-width="0.274194" stroke-miterlimit="10"/>
<g clip-path="url(#clip0_623_87)">
<rect x="24.3628" y="24.3623" width="70.2756" height="70.2756" rx="35.1378" fill="white"/>
<g clip-path="url(#clip1_623_87)">
<path d="M-10.6934 24.4033V94.5969H129.694V24.4033H-10.6934Z" fill="#495AF1"/>
<path d="M-10.6934 24.4033L129.694 94.5969L-10.6934 24.4033ZM129.694 24.4033L-10.6934 94.5969L129.694 24.4033Z" fill="white"/>
<path fill-rule="evenodd" clip-rule="evenodd" d="M43.8044 59.5001L-13.8325 30.6816L-7.55422 18.125L59.5002 51.6522L126.555 18.125L132.833 30.6816L75.1959 59.5001L132.833 88.3185L126.555 100.875L59.5002 67.3479L-7.55422 100.875L-13.8325 88.3185L43.8044 59.5001Z" fill="white"/>
<path d="M-10.6934 24.4033L129.694 94.5969L-10.6934 24.4033ZM129.694 24.4033L-10.6934 94.5969L129.694 24.4033Z" fill="white"/>
<path fill-rule="evenodd" clip-rule="evenodd" d="M54.2683 59.5003L-11.7397 26.4963L-9.64698 22.3108L59.5002 56.8844L128.647 22.3108L130.74 26.4963L64.7321 59.5003L130.74 92.5043L128.647 96.6899L59.5002 62.1163L-9.64698 96.6899L-11.7397 92.5043L54.2683 59.5003Z" fill="#F15249"/>
<path d="M59.5002 24.4033V94.5969V24.4033ZM-10.6934 59.5001H129.694H-10.6934Z" fill="white"/>
<path fill-rule="evenodd" clip-rule="evenodd" d="M47.8013 47.8012V24.4033H71.1991V47.8012H129.694V71.199H71.1991V94.5969H47.8013V71.199H-10.6934V47.8012H47.8013Z" fill="white"/>
<path d="M59.5002 24.4033V94.5969V24.4033ZM-10.6934 59.5001H129.694H-10.6934Z" fill="white"/>
<path fill-rule="evenodd" clip-rule="evenodd" d="M52.4808 52.4807V24.4033H66.5195V52.4807H129.694V66.5195H66.5195V94.5969H52.4808V66.5195H-10.6934V52.4807H52.4808Z" fill="#F15249"/>
</g>
</g>
<rect x="23.1289" y="23.1284" width="72.7433" height="72.7433" rx="36.3717" stroke="white" stroke-width="2.46774"/>
<circle cx="59.5" cy="59.5" r="58.2661" stroke="white" stroke-width="2.46774"/>
<path d="M107.21 53.1936L108.763 58.0113H113.79L109.723 60.9888L111.277 65.8065L107.21 62.829L103.142 65.8065L104.696 60.9888L100.629 58.0113H105.656L107.21 53.1936Z" fill="white"/>
<path d="M12.8873 53.1936L14.4408 58.0113H19.4679L15.4009 60.9888L16.9543 65.8065L12.8873 62.829L8.82022 65.8065L10.3737 60.9888L6.30664 58.0113H11.3338L12.8873 53.1936Z" fill="white"/>
<defs>
<clipPath id="clip0_623_87">
<rect x="24.3628" y="24.3623" width="70.2756" height="70.2756" rx="35.1378" fill="white"/>
</clipPath>
<clipPath id="clip1_623_87">
<rect width="140.387" height="70.1936" fill="white" transform="translate(-10.6934 24.4033)"/>
</clipPath>
</defs>
</svg>
