<svg width="140" height="46" viewBox="0 0 140 46" fill="none" xmlns="http://www.w3.org/2000/svg">
<path d="M60.1702 18.358C60.1702 19.5964 61.1492 20.5754 62.396 20.5754C63.6427 20.5754 64.6133 19.5964 64.6133 18.358V12.526L71.1315 3.72349C71.4244 3.32185 71.7089 2.77797 71.7089 2.15879C71.7089 0.945516 70.8972 0 69.5417 0C68.6213 0 67.9519 0.51878 67.408 1.32205L62.4211 8.45106L57.5094 1.38062C56.9571 0.568984 56.3296 0.0251011 55.3171 0.0251011C54.0788 0.0251011 53.0998 0.978986 53.0998 2.15879C53.0998 2.79471 53.3257 3.32185 53.652 3.74859L60.1702 12.6097V18.358ZM29.8301 18.4166C29.8301 19.6299 30.784 20.5754 31.9972 20.5754C33.2105 20.5754 34.1895 19.6299 34.1895 18.4166V8.36739L38.0301 14.2831C38.4987 14.9776 39.0677 15.4127 39.8793 15.4127C40.6909 15.4127 41.2599 14.9776 41.7285 14.2831L45.6277 8.27535V18.358C45.6277 19.5713 46.6067 20.5754 47.82 20.5754C49.0332 20.5754 50.0457 19.5964 50.0457 18.358V2.30103C50.0457 1.05429 49.0667 0.0753034 47.82 0.0753034H47.3263C46.431 0.0753034 45.7951 0.451835 45.3348 1.2049L39.9379 9.97393L34.5744 1.23837C34.1728 0.568979 33.5034 0.0753034 32.5495 0.0753034H32.0558C30.8091 0.0753034 29.8301 1.05429 29.8301 2.30103V18.4083V18.4166Z" fill="#D12A32"/>
<path d="M131.669 44.9914C136.02 44.9914 139.083 42.7405 139.083 38.7325V38.674C139.083 35.1513 136.773 33.6786 132.673 32.6076C129.176 31.7039 128.322 31.2856 128.322 29.9468V29.8882C128.322 28.9092 129.218 28.1311 130.916 28.1311C132.297 28.1311 133.694 28.6247 135.167 29.4866C135.51 29.6874 135.853 29.8045 136.288 29.8045C137.443 29.8045 138.363 28.9009 138.363 27.7545C138.363 26.8843 137.869 26.2819 137.384 25.9974C135.568 24.8427 133.435 24.2068 130.975 24.2068C126.85 24.2068 123.904 26.6333 123.904 30.3066V30.3652C123.904 34.3731 126.532 35.5027 130.598 36.5403C133.979 37.4021 134.673 37.9795 134.673 39.1091V39.1677C134.673 40.3475 133.577 41.0671 131.753 41.0671C129.787 41.0671 128.121 40.3809 126.59 39.2513C126.306 39.0589 125.896 38.8497 125.318 38.8497C124.164 38.8497 123.243 39.745 123.243 40.8913C123.243 41.5858 123.586 42.2217 124.08 42.5648C126.331 44.1797 129.017 44.983 131.678 44.983M107.37 44.6985H118.708C119.804 44.6985 120.708 43.8283 120.708 42.7322C120.708 41.636 119.804 40.7407 118.708 40.7407H109.563V36.4901H117.269C118.365 36.4901 119.26 35.6199 119.26 34.5238C119.26 33.4276 118.365 32.5323 117.269 32.5323H109.563V28.4323H118.574C119.67 28.4323 120.566 27.5621 120.566 26.466C120.566 25.3698 119.67 24.4745 118.574 24.4745H107.37C106.124 24.4745 105.145 25.4451 105.145 26.6919V42.4477C105.145 43.6944 106.124 44.6734 107.37 44.6734V44.6985ZM95.656 42.6568C95.656 43.8952 96.635 44.8742 97.8817 44.8742C99.1284 44.8742 100.099 43.8952 100.099 42.6568V26.5496C100.099 25.3029 99.1201 24.3239 97.8817 24.3239C96.6433 24.3239 95.656 25.3029 95.656 26.5496V42.6568ZM70.3948 42.7154C70.3948 43.9287 71.3487 44.8742 72.562 44.8742C73.7753 44.8742 74.7542 43.9287 74.7542 42.7154V32.6662L78.5949 38.5819C79.0634 39.2764 79.6324 39.7115 80.4441 39.7115C81.2557 39.7115 81.8247 39.2764 82.2933 38.5819L86.1925 32.5742V42.6568C86.1925 43.8701 87.1714 44.8742 88.3847 44.8742C89.598 44.8742 90.6104 43.8952 90.6104 42.6568V26.5998C90.6104 25.3531 89.6315 24.3741 88.3847 24.3741H87.891C86.9957 24.3741 86.3598 24.7506 85.8996 25.5037L80.5026 34.2727L75.1391 25.5372C74.7375 24.8678 74.0681 24.3741 73.1142 24.3741H72.6206C71.3738 24.3741 70.3948 25.3531 70.3948 26.5998V42.7071V42.7154ZM45.3429 42.7154C45.3429 43.9287 46.2968 44.8742 47.51 44.8742C48.7233 44.8742 49.7023 43.9287 49.7023 42.7154V32.6662L53.5429 38.5819C54.0115 39.2764 54.5805 39.7115 55.3921 39.7115C56.2037 39.7115 56.7727 39.2764 57.2413 38.5819L61.1405 32.5742V42.6568C61.1405 43.8701 62.1195 44.8742 63.3328 44.8742C64.546 44.8742 65.5585 43.8952 65.5585 42.6568V26.5998C65.5585 25.3531 64.5795 24.3741 63.3328 24.3741H62.8391C61.9438 24.3741 61.3078 24.7506 60.8476 25.5037L55.4507 34.2727L50.0872 25.5372C49.6855 24.8678 49.0162 24.3741 48.0623 24.3741H47.5686C46.3219 24.3741 45.3429 25.3531 45.3429 26.5998V42.7071V42.7154ZM31.9467 45.0248C37.3771 45.0248 40.8078 42.0209 40.8078 35.9044V26.5496C40.8078 25.3029 39.8371 24.3239 38.5904 24.3239C37.3437 24.3239 36.3647 25.3029 36.3647 26.5496V36.0717C36.3647 39.2764 34.7163 40.9248 32.0136 40.9248C29.311 40.9248 27.6542 39.2262 27.6542 35.9295V26.5413C27.6542 25.2945 26.6752 24.3155 25.4285 24.3155C24.1817 24.3155 23.2111 25.2945 23.2111 26.5413V36.0382C23.2111 41.9791 26.5246 45.0165 31.9467 45.0165V45.0248ZM10.6182 45.0499C13.6556 45.0499 16.0403 44.0458 17.697 43.025C18.7597 42.3975 19.2534 41.4938 19.2534 40.2052V35.2936C19.2534 34.0468 18.2744 33.0678 17.0276 33.0678H11.9486C10.886 33.0678 10.0158 33.938 10.0158 35.0091C10.0158 36.0801 10.886 36.9085 11.9486 36.9085H14.9525V39.7952C13.8313 40.6068 12.3837 41.0085 10.7688 41.0085C7.18759 41.0085 4.65227 38.2974 4.65227 34.5991V34.5405C4.65227 31.1015 7.22105 28.2482 10.4509 28.2482C12.3586 28.2482 13.6556 28.7754 14.8688 29.6288C15.1868 29.8631 15.5884 30.0974 16.2244 30.0974C17.4376 30.0974 18.4166 29.1184 18.4166 27.9051C18.4166 27.0349 17.9229 26.4325 17.4878 26.1145C15.6721 24.8427 13.6472 24.1482 10.5931 24.1482C4.47655 24.1482 0 28.8507 0 34.5991V34.6576C0 40.6403 4.32594 45.0499 10.6182 45.0499Z" fill="#D12A32"/>
</svg>
