<svg width="143" height="23" viewBox="0 0 143 23" fill="none" xmlns="http://www.w3.org/2000/svg">
<path d="M10.132 1.19989C10.6576 0.0137724 12.3424 0.0137763 12.868 1.19989L15.0583 6.14267C15.2755 6.633 15.7391 6.96947 16.273 7.0244L21.6553 7.57805C22.9468 7.71092 23.4674 9.31171 22.5007 10.1776L18.4721 13.7861C18.0725 14.1441 17.8954 14.6885 18.0081 15.2128L19.1443 20.4977C19.4169 21.7659 18.0539 22.7553 16.9308 22.1043L12.2508 19.3917C11.7865 19.1226 11.2135 19.1226 10.7492 19.3917L6.06918 22.1043C4.94611 22.7553 3.58308 21.7659 3.85572 20.4977L4.99185 15.2128C5.10456 14.6885 4.9275 14.1441 4.52786 13.7861L0.499286 10.1776C-0.467445 9.3117 0.0531885 7.71092 1.34475 7.57805L6.72698 7.0244C7.26091 6.96947 7.72446 6.633 7.94174 6.14267L10.132 1.19989Z" fill="#DF4F56"/>
<path d="M40.132 1.19989C40.6576 0.0137724 42.3424 0.0137763 42.868 1.19989L45.0583 6.14267C45.2755 6.633 45.7391 6.96947 46.273 7.0244L51.6553 7.57805C52.9468 7.71092 53.4674 9.31171 52.5007 10.1776L48.4721 13.7861C48.0725 14.1441 47.8954 14.6885 48.0081 15.2128L49.1443 20.4977C49.4169 21.7659 48.0539 22.7553 46.9308 22.1043L42.2508 19.3917C41.7865 19.1226 41.2135 19.1226 40.7492 19.3917L36.0692 22.1043C34.9461 22.7553 33.5831 21.7659 33.8557 20.4977L34.9919 15.2128C35.1046 14.6885 34.9275 14.1441 34.5279 13.7861L30.4993 10.1776C29.5326 9.3117 30.0532 7.71092 31.3448 7.57805L36.727 7.0244C37.2609 6.96947 37.7245 6.633 37.9417 6.14267L40.132 1.19989Z" fill="#DF4F56"/>
<path d="M70.132 1.19989C70.6576 0.0137724 72.3424 0.0137763 72.868 1.19989L75.0583 6.14267C75.2755 6.633 75.7391 6.96947 76.273 7.0244L81.6553 7.57805C82.9468 7.71092 83.4674 9.31171 82.5007 10.1776L78.4721 13.7861C78.0725 14.1441 77.8954 14.6885 78.0081 15.2128L79.1443 20.4977C79.4169 21.7659 78.0539 22.7553 76.9308 22.1043L72.2508 19.3917C71.7865 19.1226 71.2135 19.1226 70.7492 19.3917L66.0692 22.1043C64.9461 22.7553 63.5831 21.7659 63.8557 20.4977L64.9919 15.2128C65.1046 14.6885 64.9275 14.1441 64.5279 13.7861L60.4993 10.1776C59.5326 9.3117 60.0532 7.71092 61.3448 7.57805L66.727 7.0244C67.2609 6.96947 67.7245 6.633 67.9417 6.14267L70.132 1.19989Z" fill="#DF4F56"/>
<path d="M100.132 1.19989C100.658 0.0137724 102.342 0.0137763 102.868 1.19989L105.058 6.14267C105.276 6.633 105.739 6.96947 106.273 7.0244L111.655 7.57805C112.947 7.71092 113.467 9.31171 112.501 10.1776L108.472 13.7861C108.073 14.1441 107.895 14.6885 108.008 15.2128L109.144 20.4977C109.417 21.7659 108.054 22.7553 106.931 22.1043L102.251 19.3917C101.786 19.1226 101.214 19.1226 100.749 19.3917L96.0692 22.1043C94.9461 22.7553 93.5831 21.7659 93.8557 20.4977L94.9919 15.2128C95.1046 14.6885 94.9275 14.1441 94.5279 13.7861L90.4993 10.1776C89.5326 9.3117 90.0532 7.71092 91.3448 7.57805L96.727 7.0244C97.2609 6.96947 97.7245 6.633 97.9417 6.14267L100.132 1.19989Z" fill="#DF4F56"/>
<path d="M130.132 1.19989C130.658 0.0137724 132.342 0.0137763 132.868 1.19989L135.058 6.14267C135.276 6.633 135.739 6.96947 136.273 7.0244L141.655 7.57805C142.947 7.71092 143.467 9.31171 142.501 10.1776L138.472 13.7861C138.073 14.1441 137.895 14.6885 138.008 15.2128L139.144 20.4977C139.417 21.7659 138.054 22.7553 136.931 22.1043L132.251 19.3917C131.786 19.1226 131.214 19.1226 130.749 19.3917L126.069 22.1043C124.946 22.7553 123.583 21.7659 123.856 20.4977L124.992 15.2128C125.105 14.6885 124.927 14.1441 124.528 13.7861L120.499 10.1776C119.533 9.3117 120.053 7.71092 121.345 7.57805L126.727 7.0244C127.261 6.96947 127.724 6.633 127.942 6.14267L130.132 1.19989Z" fill="#DF4F56"/>
</svg>
