<svg width="56" height="64" viewBox="0 0 56 64" fill="none" xmlns="http://www.w3.org/2000/svg">
<path d="M33.9025 62.5636L22.1825 48.6404C20.8172 47.0184 21.0533 44.6312 22.7099 43.3082C24.3678 41.9852 26.8173 42.2275 28.1826 43.8495L31.7448 48.0814C35.5949 22.4219 19.4946 3.89709 1.30574 1.94216C0.648123 1.87201 0.603513 0.958066 1.22818 0.81802C20.7686 -3.53671 43.4174 10.139 44.7877 40.1625C44.8871 43.067 44.891 45.9952 44.8123 48.9383L48.6506 45.8727C50.3072 44.5496 52.758 44.7921 54.122 46.4139C55.4873 48.0359 55.2525 50.4231 53.5946 51.7461L39.374 63.1035C37.7173 64.4279 35.2678 64.1856 33.9025 62.5636Z" fill="#D12A32"/>
</svg>
