<svg width="1014" height="139" viewBox="0 0 1014 139" fill="none" xmlns="http://www.w3.org/2000/svg">
<g clip-path="url(#clip0_462_4168)">
<path d="M59.3713 15.1002L73.1327 28.8615C73.0652 32.76 73.8329 36.8633 75.452 41.5776L75.4678 41.6222L77.567 47.3949C74.9431 50.0553 73.5706 53.6193 73.5706 57.8461C73.5706 68.5595 82.2865 77.2756 93 77.2756C100.706 77.2756 107.379 72.7657 110.518 66.2467L122.9 78.6287C114.654 85.9792 104.137 90 93 90C80.9801 90 69.6795 85.3192 61.1801 76.8198C52.6809 68.3204 48 57.0199 48 45C48 33.8634 52.0209 23.3461 59.3713 15.1002Z" fill="white"/>
<path d="M93 0C105.02 0 116.32 4.68088 124.82 13.1803C133.319 21.6796 138 32.9801 138 45C138 56.1366 133.979 66.654 126.629 74.8999L112.245 60.5164C112.366 59.6431 112.43 58.7521 112.43 57.8461C112.43 53.3974 110.909 49.6833 108.009 46.9839L110.523 42.1835C115.646 45 120.584 43.7453 123.278 39.6499C125.999 35.5147 124.882 29.8865 120.788 27.1042L116.028 23.869C112.815 21.6274 108.715 21.1277 105.057 22.5323C101.395 23.9384 98.6816 27.0584 97.7971 30.8793L95.1067 42.2133C94.4189 42.1712 92.5152 42.1538 92.2742 42.1587V22.491C92.2742 17.5908 88.2875 13.6042 83.3872 13.6042C79.5079 13.6042 76.1048 16.1858 74.7177 20.1811C74.4681 20.9 74.2496 21.6155 74.0585 22.33L63.1001 11.3716C71.346 4.02082 81.8634 0 93 0V0Z" fill="white"/>
<path d="M82.0494 44.2913L80.4317 39.8428C77.9759 32.6827 77.7637 27.4855 79.6992 21.9106C80.4764 19.672 82.1716 18.8777 83.3869 18.8777C85.3794 18.8777 87.0005 20.4987 87.0005 22.491V42.7089C85.1943 43.0676 83.5353 43.598 82.0494 44.2913Z" fill="white"/>
<path d="M108.444 34.786L103.56 44.1119C102.558 43.6727 101.481 43.3054 100.337 43.0115L102.933 32.0732C103.429 29.9276 104.891 28.2445 106.947 27.4552C109.002 26.666 111.216 26.9374 113.02 28.2002L113.05 28.2208L117.824 31.4655C119.548 32.6378 120.019 35.0091 118.873 36.7514C117.737 38.4771 115.46 38.9962 113.69 37.9336L108.444 34.786Z" fill="white"/>
<path d="M95.6366 71.752V66.7171L99.3022 63.0515L95.5734 59.3227L92.9999 61.8961L90.4265 59.3227L86.6976 63.0515L90.3632 66.7171V71.752C83.8138 70.5125 78.8439 64.7504 78.8439 57.8461C78.8439 54.3342 80.0814 51.7693 82.6274 50.0049C85.0659 48.3149 88.6527 47.4218 92.9997 47.4218C97.347 47.4218 100.934 48.3151 103.372 50.0049C105.918 51.7692 107.156 54.3342 107.156 57.8461C107.156 64.7504 102.186 70.5127 95.6366 71.752Z" fill="white"/>
</g>
<path d="M14.6917 124.336H18.2437V131.152C17.3317 131.84 16.2757 132.368 15.0757 132.736C13.8757 133.104 12.6677 133.288 11.4517 133.288C9.70766 133.288 8.13966 132.92 6.74766 132.184C5.35566 131.432 4.25966 130.4 3.45966 129.088C2.67566 127.76 2.28366 126.264 2.28366 124.6C2.28366 122.936 2.67566 121.448 3.45966 120.136C4.25966 118.808 5.36366 117.776 6.77166 117.04C8.17966 116.288 9.76366 115.912 11.5237 115.912C12.9957 115.912 14.3317 116.16 15.5317 116.656C16.7317 117.152 17.7397 117.872 18.5557 118.816L16.0597 121.12C14.8597 119.856 13.4117 119.224 11.7157 119.224C10.6437 119.224 9.69166 119.448 8.85966 119.896C8.02766 120.344 7.37966 120.976 6.91566 121.792C6.45166 122.608 6.21966 123.544 6.21966 124.6C6.21966 125.64 6.45166 126.568 6.91566 127.384C7.37966 128.2 8.01966 128.84 8.83566 129.304C9.66766 129.752 10.6117 129.976 11.6677 129.976C12.7877 129.976 13.7957 129.736 14.6917 129.256V124.336ZM34.8633 129.88V133H21.8553V116.2H34.5513V119.32H25.7193V122.968H33.5193V125.992H25.7193V129.88H34.8633ZM37.9568 116.2H41.8448V129.832H50.2688V133H37.9568V116.2ZM63.6458 129.4H55.8458L54.3578 133H50.3738L57.8618 116.2H61.7018L69.2138 133H65.1338L63.6458 129.4ZM62.4218 126.448L59.7578 120.016L57.0938 126.448H62.4218ZM73.5931 119.368H68.2171V116.2H82.8571V119.368H77.4811V133H73.5931V119.368ZM84.949 116.2H88.837V133H84.949V116.2ZM108.232 116.2V133H105.04L96.664 122.8V133H92.824V116.2H96.04L104.392 126.4V116.2H108.232ZM111.463 124.744H118.255V127.744H111.463V124.744ZM125.353 119.32V123.76H133.129V126.88H125.353V133H121.465V116.2H134.161V119.32H125.353ZM147.497 133L144.257 128.32H144.065H140.681V133H136.793V116.2H144.065C145.553 116.2 146.841 116.448 147.929 116.944C149.033 117.44 149.881 118.144 150.473 119.056C151.065 119.968 151.361 121.048 151.361 122.296C151.361 123.544 151.057 124.624 150.449 125.536C149.857 126.432 149.009 127.12 147.905 127.6L151.673 133H147.497ZM147.425 122.296C147.425 121.352 147.121 120.632 146.513 120.136C145.905 119.624 145.017 119.368 143.849 119.368H140.681V125.224H143.849C145.017 125.224 145.905 124.968 146.513 124.456C147.121 123.944 147.425 123.224 147.425 122.296ZM167.449 129.88V133H154.441V116.2H167.137V119.32H158.305V122.968H166.105V125.992H158.305V129.88H167.449ZM183.551 129.88V133H170.543V116.2H183.239V119.32H174.407V122.968H182.207V125.992H174.407V129.88H183.551Z" fill="white"/>
<path d="M384.495 64.2252C380.505 67.6336 374.95 68.24 371.637 68.2576V76.8164C371.637 78.2719 370.455 79.4531 369 79.4531C367.545 79.4531 366.363 78.2719 366.363 76.8164V68.2576C362.839 68.2383 356.776 67.5563 352.761 63.5396C346.934 57.7125 348.124 47.5664 348.177 47.1375C348.326 45.9404 349.27 44.9965 350.467 44.8471C350.522 44.84 350.738 44.8154 351.081 44.7873C347.182 38.9074 348.129 30.8303 348.177 30.4488C348.26 29.7879 348.583 29.2043 349.059 28.7895L335.37 15.0996C328.018 23.3438 324 33.8643 324 45C324 69.8718 344.126 90 369 90C380.136 90 390.656 85.9816 398.9 78.6305L384.495 64.2252ZM369 0C357.864 0 347.344 4.01836 339.1 11.3695L355.89 28.1602C356.966 28.2674 358.135 28.4467 359.327 28.7402C359.133 27.8385 359.024 26.9033 359.024 25.9418C359.024 17.7012 367.04 11.3678 367.381 11.1023C368.334 10.3623 369.666 10.3623 370.619 11.1023C370.96 11.3678 378.976 17.7012 378.976 25.9418C378.976 26.9033 378.867 27.8385 378.673 28.7402C383.143 27.6416 387.264 28.125 387.533 28.1584C388.73 28.3078 389.674 29.25 389.823 30.4488C389.871 30.8303 390.818 38.9074 386.919 44.7891C387.262 44.8154 387.478 44.84 387.533 44.8471C388.73 44.9965 389.674 45.9404 389.823 47.1375C389.867 47.4891 390.672 54.3568 387.763 60.0328L402.63 74.9004C409.982 66.6562 414 56.1357 414 45C414 20.1282 393.874 0 369 0Z" fill="white"/>
<path d="M384.683 49.9869C384.577 58.8215 380.614 62.9253 371.686 62.9842C371.704 60.3158 372.176 55.8439 374.859 53.1598C377.543 50.4773 382.017 50.0045 384.683 49.9869Z" fill="white"/>
<path d="M366.314 62.9842C363.646 62.9666 359.174 62.4955 356.49 59.8113C353.806 57.1271 353.334 52.6553 353.317 49.9869C355.985 50.0062 360.457 50.4773 363.141 53.1598C365.825 55.8439 366.297 60.3176 366.314 62.9842Z" fill="white"/>
<path d="M366.314 46.2885C363.641 46.2639 359.155 45.7875 356.49 43.1227C353.806 40.4385 353.334 35.9649 353.317 33.2983C362.583 33.3958 366.257 37.7389 366.314 46.2885Z" fill="white"/>
<path d="M371.686 46.2885C374.36 46.2639 378.846 45.7875 381.51 43.1227C384.195 40.4385 384.666 35.9649 384.683 33.2983C375.418 33.3958 371.743 37.7389 371.686 46.2885Z" fill="white"/>
<path d="M373.702 25.9418C373.702 29.3519 371.405 32.6979 369 35.1334C366.593 32.6805 364.298 29.3628 364.298 25.9418C364.298 22.1466 367.126 18.6504 369 16.7519C370.874 18.6521 373.702 22.1484 373.702 25.9418Z" fill="white"/>
<path d="M295.485 124.336H299.037V131.152C298.125 131.84 297.069 132.368 295.869 132.736C294.669 133.104 293.461 133.288 292.245 133.288C290.501 133.288 288.933 132.92 287.541 132.184C286.149 131.432 285.053 130.4 284.253 129.088C283.469 127.76 283.077 126.264 283.077 124.6C283.077 122.936 283.469 121.448 284.253 120.136C285.053 118.808 286.157 117.776 287.565 117.04C288.973 116.288 290.557 115.912 292.317 115.912C293.789 115.912 295.125 116.16 296.325 116.656C297.525 117.152 298.533 117.872 299.349 118.816L296.853 121.12C295.653 119.856 294.205 119.224 292.509 119.224C291.437 119.224 290.485 119.448 289.653 119.896C288.821 120.344 288.173 120.976 287.709 121.792C287.245 122.608 287.013 123.544 287.013 124.6C287.013 125.64 287.245 126.568 287.709 127.384C288.173 128.2 288.813 128.84 289.629 129.304C290.461 129.752 291.405 129.976 292.461 129.976C293.581 129.976 294.589 129.736 295.485 129.256V124.336ZM302.648 116.2H306.536V129.832H314.96V133H302.648V116.2ZM324.386 133.288C321.986 133.288 320.114 132.624 318.77 131.296C317.442 129.968 316.778 128.072 316.778 125.608V116.2H320.666V125.464C320.666 128.472 321.914 129.976 324.41 129.976C325.626 129.976 326.554 129.616 327.194 128.896C327.834 128.16 328.154 127.016 328.154 125.464V116.2H331.994V125.608C331.994 128.072 331.322 129.968 329.978 131.296C328.65 132.624 326.786 133.288 324.386 133.288ZM339.035 119.368H333.659V116.2H348.299V119.368H342.923V133H339.035V119.368ZM363.398 129.88V133H350.39V116.2H363.086V119.32H354.254V122.968H362.054V125.992H354.254V129.88H363.398ZM381.9 116.2V133H378.708L370.332 122.8V133H366.492V116.2H369.708L378.06 126.4V116.2H381.9ZM396.56 119.32V123.76H404.336V126.88H396.56V133H392.672V116.2H405.368V119.32H396.56ZM418.704 133L415.464 128.32H415.272H411.888V133H408V116.2H415.272C416.76 116.2 418.048 116.448 419.136 116.944C420.24 117.44 421.088 118.144 421.68 119.056C422.272 119.968 422.568 121.048 422.568 122.296C422.568 123.544 422.264 124.624 421.656 125.536C421.064 126.432 420.216 127.12 419.112 127.6L422.88 133H418.704ZM418.632 122.296C418.632 121.352 418.328 120.632 417.72 120.136C417.112 119.624 416.224 119.368 415.056 119.368H411.888V125.224H415.056C416.224 125.224 417.112 124.968 417.72 124.456C418.328 123.944 418.632 123.224 418.632 122.296ZM438.656 129.88V133H425.648V116.2H438.344V119.32H429.512V122.968H437.312V125.992H429.512V129.88H438.656ZM454.758 129.88V133H441.75V116.2H454.446V119.32H445.614V122.968H453.414V125.992H445.614V129.88H454.758Z" fill="white"/>
<circle cx="645" cy="45" r="45" fill="white"/>
<g clip-path="url(#clip1_462_4168)">
<path d="M634.584 43.6305L652.601 61.9879C652.684 60.359 652.756 56.7641 652.15 52.4567C651.057 44.6938 648.248 38.3156 644.024 34.0125C639.8 29.7092 633.54 26.8462 625.921 25.7331C620.252 24.9047 615.837 25.3185 615.652 25.3368C614.745 25.4251 614.027 26.1566 613.941 27.0806C613.923 27.2692 613.517 31.7669 614.33 37.5432C615.422 45.3062 618.232 51.6843 622.456 55.9875C626.679 60.2907 632.939 63.1538 640.559 64.2669C643.365 64.6769 645.863 64.7824 647.693 64.7824C648.62 64.7824 649.375 64.7553 649.913 64.7267L631.896 46.3696C631.153 45.6133 631.153 44.3869 631.896 43.6304C632.638 42.8742 633.842 42.8742 634.584 43.6305Z" fill="#D12A32"/>
<path d="M676.092 38.7718C676.005 37.8478 675.288 37.1163 674.381 37.028C673.873 36.9786 661.855 35.8983 654.858 43.0283C654.585 43.3058 654.325 43.5916 654.077 43.8838C654.896 46.3798 655.513 49.0627 655.913 51.907C656.042 52.8177 656.141 53.6968 656.219 54.5369L661.186 49.476C661.928 48.7197 663.132 48.7197 663.874 49.476C664.617 50.2323 664.617 51.4587 663.874 52.2152L656.46 59.7696C656.458 61.744 656.348 63.0312 656.324 63.2882C656.281 63.7427 656.186 64.1814 656.047 64.5995C660.27 64.2017 666.099 62.8445 670.203 58.6631C677.201 51.5334 676.141 39.2897 676.092 38.7718Z" fill="#D12A32"/>
</g>
<path d="M618.203 116.2L610.931 133H607.091L599.843 116.2H604.043L609.155 128.2L614.339 116.2H618.203ZM632.613 129.88V133H619.605V116.2H632.301V119.32H623.469V122.968H631.269V125.992H623.469V129.88H632.613ZM647.012 124.336H650.564V131.152C649.652 131.84 648.596 132.368 647.396 132.736C646.196 133.104 644.988 133.288 643.772 133.288C642.028 133.288 640.46 132.92 639.068 132.184C637.676 131.432 636.58 130.4 635.78 129.088C634.996 127.76 634.604 126.264 634.604 124.6C634.604 122.936 634.996 121.448 635.78 120.136C636.58 118.808 637.684 117.776 639.092 117.04C640.5 116.288 642.084 115.912 643.844 115.912C645.316 115.912 646.652 116.16 647.852 116.656C649.052 117.152 650.06 117.872 650.876 118.816L648.38 121.12C647.18 119.856 645.732 119.224 644.036 119.224C642.964 119.224 642.012 119.448 641.18 119.896C640.348 120.344 639.7 120.976 639.236 121.792C638.772 122.608 638.54 123.544 638.54 124.6C638.54 125.64 638.772 126.568 639.236 127.384C639.7 128.2 640.34 128.84 641.156 129.304C641.988 129.752 642.932 129.976 643.988 129.976C645.108 129.976 646.116 129.736 647.012 129.256V124.336ZM665.24 129.4H657.44L655.952 133H651.968L659.456 116.2H663.296L670.808 133H666.728L665.24 129.4ZM664.016 126.448L661.352 120.016L658.688 126.448H664.016ZM687.959 116.2V133H684.767L676.391 122.8V133H672.551V116.2H675.767L684.119 126.4V116.2H687.959Z" fill="white"/>
<path d="M924.704 15.9459H917.297L918.708 21.001H923.293L924.704 15.9459Z" fill="white"/>
<path d="M940.408 66.3864C936.224 73.1732 928.968 77.2272 921.001 77.2272C908.449 77.2272 898.23 67.007 898.23 54.4544C898.23 46.4765 902.284 39.2292 909.08 35.055C909.13 35.025 909.18 34.995 909.23 34.965L888.331 14.0641C880.695 22.1321 876 33.013 876 44.995C876 69.8498 896.148 90 921.001 90C932.981 90 943.861 85.3053 951.928 77.6677L940.488 66.2262C940.488 66.2262 940.438 66.3263 940.408 66.3764V66.3864Z" fill="white"/>
<path d="M921 0C910.04 0 900.001 3.92392 892.194 10.4404L912.782 31.031V26.6567C912.782 26.5365 912.802 26.4264 912.812 26.3163H911.861C910.4 26.3163 909.209 25.1251 909.209 23.6637C909.209 22.2022 910.4 21.011 911.861 21.011H913.203L911.721 15.6056C911.571 14.2342 911.971 12.8929 912.842 11.9319C913.583 11.1011 914.584 10.6507 915.645 10.6507H926.344C927.415 10.6507 928.406 11.1111 929.147 11.9319C930.008 12.8929 930.418 14.2342 930.268 15.6056L930.188 16.026L928.797 21.011H930.128C931.589 21.011 932.78 22.2022 932.78 23.6637C932.78 25.1251 931.589 26.3163 930.128 26.3163H929.217V33.2432C937.885 36.5966 943.77 45.035 943.77 54.4645C943.77 56.6366 943.47 58.7688 942.859 60.8208C942.839 60.9009 942.809 60.971 942.789 61.051L955.56 73.8238C962.076 66.016 966 55.976 966 45.015C966 20.1602 945.852 0.0100102 921 0.0100102V0Z" fill="white"/>
<path d="M918.088 35.1251C918.088 36.3363 917.267 37.3473 916.166 37.6677L916.116 37.6877C914.625 38.1181 913.193 38.7487 911.862 39.5796C906.647 42.7828 903.535 48.3383 903.535 54.4545C903.535 64.0841 911.372 71.9219 921 71.9219C927.116 71.9219 932.681 68.8188 935.884 63.6036C936.704 62.2623 937.335 60.8208 937.765 59.3293C938.226 57.7577 938.456 56.1161 938.456 54.4545C938.456 46.6567 933.221 39.7497 925.734 37.6476C924.674 37.2873 923.903 36.2963 923.903 35.1251V26.3063H918.048C918.058 26.4164 918.078 26.5265 918.078 26.6466V35.1251H918.088ZM923.462 48.5385C924.503 47.5075 926.175 47.5075 927.216 48.5385C928.257 49.5796 928.257 51.2512 927.216 52.2923L924.754 54.7547L927.216 57.2072C928.257 58.2382 928.257 59.9199 927.216 60.961C926.695 61.4815 926.015 61.7417 925.334 61.7417C924.654 61.7417 923.983 61.4815 923.462 60.971L921 58.5085L918.538 60.971C918.018 61.4915 917.337 61.7518 916.666 61.7518C915.996 61.7518 915.305 61.4915 914.795 60.971C913.754 59.9299 913.754 58.2583 914.795 57.2172L917.257 54.7547L914.795 52.3023C913.754 51.2713 913.754 49.5896 914.795 48.5485C915.826 47.5075 917.507 47.5075 918.548 48.5485L921.01 51.011L923.472 48.5485L923.462 48.5385Z" fill="white"/>
<path d="M873.373 116.2V133H870.181L861.805 122.8V133H857.965V116.2H861.181L869.533 126.4V116.2H873.373ZM885.483 133.288C883.739 133.288 882.163 132.912 880.755 132.16C879.363 131.408 878.267 130.376 877.467 129.064C876.683 127.736 876.291 126.248 876.291 124.6C876.291 122.952 876.683 121.472 877.467 120.16C878.267 118.832 879.363 117.792 880.755 117.04C882.163 116.288 883.739 115.912 885.483 115.912C887.227 115.912 888.795 116.288 890.187 117.04C891.579 117.792 892.675 118.832 893.475 120.16C894.275 121.472 894.675 122.952 894.675 124.6C894.675 126.248 894.275 127.736 893.475 129.064C892.675 130.376 891.579 131.408 890.187 132.16C888.795 132.912 887.227 133.288 885.483 133.288ZM885.483 129.976C886.475 129.976 887.371 129.752 888.171 129.304C888.971 128.84 889.595 128.2 890.043 127.384C890.507 126.568 890.739 125.64 890.739 124.6C890.739 123.56 890.507 122.632 890.043 121.816C889.595 121 888.971 120.368 888.171 119.92C887.371 119.456 886.475 119.224 885.483 119.224C884.491 119.224 883.595 119.456 882.795 119.92C881.995 120.368 881.363 121 880.899 121.816C880.451 122.632 880.227 123.56 880.227 124.6C880.227 125.64 880.451 126.568 880.899 127.384C881.363 128.2 881.995 128.84 882.795 129.304C883.595 129.752 884.491 129.976 885.483 129.976ZM913.005 116.2V133H909.813L901.437 122.8V133H897.597V116.2H900.813L909.165 126.4V116.2H913.005ZM916.236 124.744H923.028V127.744H916.236V124.744ZM937.684 124.336H941.236V131.152C940.324 131.84 939.268 132.368 938.068 132.736C936.868 133.104 935.66 133.288 934.444 133.288C932.7 133.288 931.132 132.92 929.74 132.184C928.348 131.432 927.252 130.4 926.452 129.088C925.668 127.76 925.276 126.264 925.276 124.6C925.276 122.936 925.668 121.448 926.452 120.136C927.252 118.808 928.356 117.776 929.764 117.04C931.172 116.288 932.756 115.912 934.516 115.912C935.988 115.912 937.324 116.16 938.524 116.656C939.724 117.152 940.732 117.872 941.548 118.816L939.052 121.12C937.852 119.856 936.404 119.224 934.708 119.224C933.636 119.224 932.684 119.448 931.852 119.896C931.02 120.344 930.372 120.976 929.908 121.792C929.444 122.608 929.212 123.544 929.212 124.6C929.212 125.64 929.444 126.568 929.908 127.384C930.372 128.2 931.012 128.84 931.828 129.304C932.66 129.752 933.604 129.976 934.66 129.976C935.78 129.976 936.788 129.736 937.684 129.256V124.336ZM960.135 133L960.111 122.92L955.167 131.224H953.415L948.495 123.136V133H944.847V116.2H948.063L954.351 126.64L960.543 116.2H963.735L963.783 133H960.135ZM975.905 133.288C974.161 133.288 972.585 132.912 971.177 132.16C969.785 131.408 968.689 130.376 967.889 129.064C967.105 127.736 966.713 126.248 966.713 124.6C966.713 122.952 967.105 121.472 967.889 120.16C968.689 118.832 969.785 117.792 971.177 117.04C972.585 116.288 974.161 115.912 975.905 115.912C977.649 115.912 979.217 116.288 980.609 117.04C982.001 117.792 983.097 118.832 983.897 120.16C984.697 121.472 985.097 122.952 985.097 124.6C985.097 126.248 984.697 127.736 983.897 129.064C983.097 130.376 982.001 131.408 980.609 132.16C979.217 132.912 977.649 133.288 975.905 133.288ZM975.905 129.976C976.897 129.976 977.793 129.752 978.593 129.304C979.393 128.84 980.017 128.2 980.465 127.384C980.929 126.568 981.161 125.64 981.161 124.6C981.161 123.56 980.929 122.632 980.465 121.816C980.017 121 979.393 120.368 978.593 119.92C977.793 119.456 976.897 119.224 975.905 119.224C974.913 119.224 974.017 119.456 973.217 119.92C972.417 120.368 971.785 121 971.321 121.816C970.873 122.632 970.649 123.56 970.649 124.6C970.649 125.64 970.873 126.568 971.321 127.384C971.785 128.2 972.417 128.84 973.217 129.304C974.017 129.752 974.913 129.976 975.905 129.976Z" fill="white"/>
<defs>
<clipPath id="clip0_462_4168">
<rect width="90" height="90" fill="white" transform="matrix(-1 0 0 1 138 0)"/>
</clipPath>
<clipPath id="clip1_462_4168">
<rect width="62.3529" height="63.5294" fill="white" transform="translate(613.824 13.2353)"/>
</clipPath>
</defs>
</svg>
