<svg width="10" height="6" viewBox="0 0 10 6" fill="none" xmlns="http://www.w3.org/2000/svg">
<path d="M4.6098 5.83709L0.159755 1.29221C0.0567475 1.1871 -4.57559e-08 1.04677 -3.92157e-08 0.897152C-3.26756e-08 0.74753 0.0567475 0.607207 0.159755 0.50209L0.487394 0.167391C0.700889 -0.0503998 1.04788 -0.0503998 1.26105 0.167391L4.99793 3.98384L8.73895 0.163157C8.84196 0.0580392 8.97928 3.92497e-07 9.1257 3.98897e-07C9.27228 4.05304e-07 9.4096 0.0580392 9.51269 0.163157L9.84025 0.497855C9.94325 0.603056 10 0.743296 10 0.892918C10 1.04254 9.94325 1.18286 9.84025 1.28798L5.38614 5.83709C5.2828 5.94246 5.14484 6.00033 4.99817 6C4.85094 6.00033 4.71305 5.94246 4.6098 5.83709Z" fill="#090E34"/>
</svg>
