<svg width="55" height="64" viewBox="0 0 55 64" fill="none" xmlns="http://www.w3.org/2000/svg">
<path d="M21.4705 62.5636L33.1905 48.6404C34.5558 47.0184 34.3197 44.6312 32.6631 43.3082C31.0052 41.9852 28.5558 42.2275 27.1905 43.8495L23.6283 48.0814C19.7782 22.4219 35.8785 3.89709 54.0673 1.94216C54.7249 1.87201 54.7695 0.958066 54.1449 0.81802C34.6045 -3.53671 11.9557 10.139 10.5854 40.1625C10.486 43.067 10.482 45.9952 10.5608 48.9383L6.72241 45.8727C5.06581 44.5496 2.61506 44.7921 1.25106 46.4139C-0.114246 48.0359 0.120571 50.4231 1.77847 51.7461L15.999 63.1035C17.6558 64.4279 20.1052 64.1856 21.4705 62.5636Z" fill="#FFC400"/>
</svg>
